<?xml version="1.0" encoding="utf-8"?>
<!-- Generator: Adobe Illustrator 25.0.1, SVG Export Plug-In . SVG Version: 6.00 Build 0)  -->
<svg version="1.1" id="Capa_1" xmlns="http://www.w3.org/2000/svg" xmlns:xlink="http://www.w3.org/1999/xlink" x="0px" y="0px"
	 viewBox="0 0 627.1 210.6" style="enable-background:new 0 0 627.1 210.6;" xml:space="preserve">
<style type="text/css">
	.st0{opacity:0.58;}
	.st1{enable-background:new    ;}
	.st2{fill:#CAF8FF;}
	.st3{font-family:'LLPixel';}
	.st4{font-size:72px;}
	.st5{fill:#97E2FF;}
	.st6{fill:#FF4C3E;}
	.st7{font-family:'TheLedDisplaySt';}
	.st8{font-size:27.9064px;}
	.st9{fill:#FFC4C0;}
</style>
<g class="st0">
</g>
<g>
	<g class="st1">
		
			<image style="overflow:visible;" width="284" height="149" xlink:href="B7D1934910E2679D.png"  transform="matrix(1 0 0 1 40 13.6)">
		</image>
	</g>
	<g class="st1">
		
			<image style="overflow:visible;" width="336" height="149" xlink:href="B7D1934910E2679E.png"  transform="matrix(1 0 0 1 251 13.6)">
		</image>
	</g>
	<g>
	</g>
	<text transform="matrix(1 0 0 1 76.6005 111.71)" class="st2 st3 st4">CUBE </text>
	<g class="st1">
		
			<image style="overflow:visible;" width="336" height="149" xlink:href="B7D1934910E2679C.png"  transform="matrix(1 0 0 1 251 13.6)">
		</image>
	</g>
	<text transform="matrix(1 0 0 1 287.9005 111.71)" class="st5 st3 st4">CHAOS</text>
</g>
<text transform="matrix(1.2184 0 0 1 210.6201 151.4082)" class="st6 st7 st8">SURVIVAL</text>
<g>
	<g>
	</g>
	<g>
		
			<image style="overflow:visible;" width="335" height="77" xlink:href="B7D1934910E26794.png"  transform="matrix(1 0 0 1 143 96.6)">
		</image>
	</g>
	<g>
		
			<image style="overflow:visible;" width="297" height="76" xlink:href="B7D1934910E26795.png"  transform="matrix(1 0 0 1 161 106.6)">
		</image>
	</g>
	<g>
		
			<image style="overflow:visible;" width="463" height="78" xlink:href="B7D1934910E26797.png"  transform="matrix(1 0 0 1 82 100.6)">
		</image>
	</g>
</g>
<text transform="matrix(1.2184 0 0 1 210.6201 150.9082)" class="st9 st7 st8">SURVIVAL</text>
</svg>
