<svg xmlns="http://www.w3.org/2000/svg" viewBox="0 0 100.5 878.12"><defs><style>.cls-1,.cls-2{fill:#d9e021;}.cls-2{stroke:#000;stroke-miterlimit:10;stroke-width:0.5px;}.cls-3{fill:#f15a24;}.cls-4{fill:#fff;}</style></defs><g id="Ebene_2" data-name="Ebene 2"><g id="Ebene_1-2" data-name="Ebene 1"><rect class="cls-1" x="6.64" y="0.25" width="87.22" height="876.69"/><path d="M93.61.5V876.69H6.89V.5H93.61m.5-.5H6.39V877.19H94.11V0Z"/><rect class="cls-2" x="0.25" y="855.06" width="100" height="22.81"/><rect x="2.88" y="869.97" width="7.02" height="7.02"/><rect x="2.88" y="855.94" width="7.02" height="7.02"/><rect x="9.9" y="862.95" width="7.02" height="7.02"/><rect x="16.92" y="869.97" width="7.02" height="7.02"/><rect x="16.92" y="855.94" width="7.02" height="7.02"/><rect x="23.93" y="862.95" width="7.02" height="7.02"/><rect x="30.95" y="869.97" width="7.02" height="7.02"/><rect x="30.95" y="855.94" width="7.02" height="7.02"/><rect x="37.97" y="862.95" width="7.02" height="7.02"/><rect x="44.99" y="869.97" width="7.02" height="7.02"/><rect x="44.99" y="855.94" width="7.02" height="7.02"/><rect x="52" y="862.95" width="7.02" height="7.02"/><rect x="59.02" y="869.97" width="7.02" height="7.02"/><rect x="59.02" y="855.94" width="7.02" height="7.02"/><rect x="66.04" y="862.95" width="7.02" height="7.02"/><rect x="73.06" y="869.97" width="7.02" height="7.02"/><rect x="73.06" y="855.94" width="7.02" height="7.02"/><rect x="80.07" y="862.95" width="7.02" height="7.02"/><rect x="87.09" y="869.97" width="7.02" height="7.02"/><rect x="87.09" y="855.94" width="7.02" height="7.02"/><rect x="94.11" y="862.95" width="5.26" height="7.02"/><rect x="1.13" y="862.95" width="1.75" height="7.02"/><path class="cls-3" d="M47,788.74l-14.9,25.81a4.56,4.56,0,0,0,4,6.83H65.86a4.55,4.55,0,0,0,3.94-6.83L54.91,788.74A4.56,4.56,0,0,0,47,788.74Z"/><circle class="cls-4" cx="50.76" cy="801.65" r="5.06"/><rect class="cls-4" x="43.17" y="810.51" width="15.19" height="2.53" transform="translate(-399.08 134.14) rotate(-30)"/><rect class="cls-4" x="43.17" y="810.51" width="15.19" height="2.53" transform="matrix(0.87, 0.5, -0.5, 0.87, 412.69, 83.38)"/><rect class="cls-4" x="41.41" y="806.46" width="4.52" height="2.53" transform="translate(-677.67 441.68) rotate(-60)"/><rect class="cls-4" x="55.59" y="806.46" width="4.52" height="2.53" transform="translate(728.43 353.76) rotate(60)"/><rect class="cls-4" x="41.41" y="814.56" width="4.52" height="2.53" transform="translate(728.36 370.09) rotate(60)"/><rect class="cls-4" x="55.59" y="814.56" width="4.52" height="2.53" transform="translate(-677.6 458.01) rotate(-60)"/><circle class="cls-3" cx="48.74" cy="801.65" r="1.27"/><circle class="cls-3" cx="52.79" cy="801.65" r="1.27"/><rect class="cls-3" x="48.23" y="803.92" width="5.06" height="1.52"/></g></g></svg>