<svg xmlns="http://www.w3.org/2000/svg" viewBox="0 0 100.5 878.12"><defs><style>.cls-1,.cls-2{fill:#d9e021;}.cls-2{stroke:#000;stroke-miterlimit:10;stroke-width:0.5px;}.cls-3{fill:#f15a24;}.cls-4{fill:#fff;}</style></defs><g id="Ebene_2" data-name="Ebene 2"><g id="Ebene_1-2" data-name="Ebene 1"><rect class="cls-1" x="6.64" y="1.17" width="87.22" height="876.69"/><path d="M93.61,1.42v876.2H6.89V1.42H93.61m.5-.5H6.39v877.2H94.11V.92Z"/><rect class="cls-2" x="0.25" y="0.25" width="100" height="22.81"/><rect x="2.88" y="1.13" width="7.02" height="7.02"/><rect x="2.88" y="15.16" width="7.02" height="7.02"/><rect x="9.9" y="8.14" width="7.02" height="7.02"/><rect x="16.92" y="1.13" width="7.02" height="7.02"/><rect x="16.92" y="15.16" width="7.02" height="7.02"/><rect x="23.93" y="8.14" width="7.02" height="7.02"/><rect x="30.95" y="1.13" width="7.02" height="7.02"/><rect x="30.95" y="15.16" width="7.02" height="7.02"/><rect x="37.97" y="8.14" width="7.02" height="7.02"/><rect x="44.99" y="1.13" width="7.02" height="7.02"/><rect x="44.99" y="15.16" width="7.02" height="7.02"/><rect x="52" y="8.14" width="7.02" height="7.02"/><rect x="59.02" y="1.13" width="7.02" height="7.02"/><rect x="59.02" y="15.16" width="7.02" height="7.02"/><rect x="66.04" y="8.14" width="7.02" height="7.02"/><rect x="73.06" y="1.13" width="7.02" height="7.02"/><rect x="73.06" y="15.16" width="7.02" height="7.02"/><rect x="80.07" y="8.14" width="7.02" height="7.02"/><rect x="87.09" y="1.13" width="7.02" height="7.02"/><rect x="87.09" y="15.16" width="7.02" height="7.02"/><rect x="94.11" y="8.14" width="5.26" height="7.02"/><rect x="1.13" y="8.14" width="1.75" height="7.02"/><path class="cls-3" d="M47,59l-14.9,25.8a4.55,4.55,0,0,0,4,6.83H65.86a4.55,4.55,0,0,0,3.94-6.83L54.91,59A4.55,4.55,0,0,0,47,59Z"/><circle class="cls-4" cx="50.76" cy="71.92" r="5.06"/><rect class="cls-4" x="43.17" y="80.78" width="15.19" height="2.53" transform="translate(-34.22 36.37) rotate(-30)"/><rect class="cls-4" x="43.17" y="80.78" width="15.19" height="2.53" transform="translate(47.82 -14.39) rotate(30)"/><rect class="cls-4" x="41.41" y="76.73" width="4.52" height="2.53" transform="translate(-45.71 76.82) rotate(-60)"/><rect class="cls-4" x="55.59" y="76.73" width="4.52" height="2.53" transform="translate(96.47 -11.1) rotate(60)"/><rect class="cls-4" x="41.41" y="84.83" width="4.52" height="2.53" transform="translate(96.4 5.22) rotate(60)"/><rect class="cls-4" x="55.59" y="84.83" width="4.52" height="2.53" transform="translate(-45.64 93.15) rotate(-60)"/><circle class="cls-3" cx="48.74" cy="71.92" r="1.27"/><circle class="cls-3" cx="52.79" cy="71.92" r="1.27"/><rect class="cls-3" x="48.23" y="74.2" width="5.06" height="1.52"/></g></g></svg>