<svg xmlns="http://www.w3.org/2000/svg" viewBox="0 0 30 30"><path d="M17.5 27h7a.5.5 0 0 0 .5-.5V17h2.5a.5.5 0 0 0 .36-.847L24 12.14V6.5a.5.5 0 0 0-.5-.5h-2.992a.5.5 0 0 0-.5.498l-.006 1.483-4.642-4.828a.515.515 0 0 0-.72 0l-12.5 13A.5.5 0 0 0 2.5 17H5v9.5a.5.5 0 0 0 .5.5h7a.5.5 0 0 0 .5-.5V20h4v6.5a.5.5 0 0 0 .5.5zm3.498-17.998L21.006 7H23v4.099l-2.016-2.097h.014zM12.5 19a.5.5 0 0 0-.5.5V26H6v-9.5a.5.5 0 0 0-.5-.5H3.674L15 4.221 26.325 16H24.5a.5.5 0 0 0-.5.5V26h-6v-6.5a.5.5 0 0 0-.5-.5h-5z" fill="#333"/></svg>