<svg xmlns="http://www.w3.org/2000/svg" viewBox="0 0 30 30"><path d="M26.5 8H20V6.499A2.502 2.502 0 0 0 17.501 4h-5.002A2.502 2.502 0 0 0 10 6.499V8H3.5C2.673 8 2 8.673 2 9.5v16a.5.5 0 0 0 .5.5h25a.5.5 0 0 0 .5-.5v-16c0-.827-.673-1.5-1.5-1.5zM10 9h10v16H10V9zM9 25H8V9h1v16zm8-17h-4V7h4v1zm4 1h1v16h-1V9zM11 6.499A1.5 1.5 0 0 1 12.499 5h5.002C18.327 5 19 5.672 19 6.499V8h-1V6.5a.5.5 0 0 0-.5-.5h-5a.5.5 0 0 0-.5.5V8h-1V6.499zM3 9.5a.5.5 0 0 1 .5-.5H7v16H3V9.5zM27 25h-4V9h3.5a.5.5 0 0 1 .5.5V25z" fill="#333"/></svg>