<?xml version="1.0" encoding="utf-8"?>
<!-- Generator: Adobe Illustrator 25.0.1, SVG Export Plug-In . SVG Version: 6.00 Build 0)  -->
<svg version="1.1" id="Ebene_1" xmlns="http://www.w3.org/2000/svg" xmlns:xlink="http://www.w3.org/1999/xlink" x="0px" y="0px"
	 viewBox="0 0 674.7 535.3" style="enable-background:new 0 0 674.7 535.3;" xml:space="preserve">
<style type="text/css">
	.st0{fill:#050706;}
	.st1{fill:#24532A;}
	.st2{fill:#57795C;}
	.st3{fill:#DDDFD9;}
	.st4{fill:#E5E5DF;}
	.st5{fill:#1E4555;}
</style>
<path class="st0" d="M435,108.2c-0.8,4.6,3.2,9.2-0.5,13.9c-1.3,1.7,1.6,2.5,2.9,3.2c10.7,6.1,21.2,12.6,32.3,18
	c8.2,4,9.9,10.8,9.6,18.4c-0.2,4.3,0.8,6.8,4.6,8.7c2.2,1.1,4,3.1,6.2,4.1c9,4.1,13.2,11.6,15.2,20.8c0.5,2.3,1.2,4.5,1.9,6.7
	c1.5,4.8,3,9.4-4.3,10.7c-2,0.4-2.5,2.5-3.4,4.1c-5.5,10.6-13,19.7-21.4,28.1c-1.7,1.8-4.1,2.8-6.6,2.8
	c-38.7,0.2-77.3,0.5-115.9,0.9c-1.8,0-3.8,0.3-5.2-1.2c-3.9-4.1-8.8-3.9-13.8-3.9c-26.3,0.3-52.6,0.2-79,0.8
	c-6.3,0.2-10.9-2.1-15-6.1c-3.7-3.6-8.1-7-10.4-11.4c-5-9.3-13.5-15.9-17.8-25.5c-0.7-1.4-2.2-2.7-0.6-4.5c0.5-0.6,0.5-0.9-0.3-1.4
	c-7-4.9-9.3-13-12.8-20.2c-1-2.2-1.6-4.2-4.7-4.9c-4.6-1.2-7.2-8.3-5.6-12.9c4.4-12.8,10.9-24.6,17.1-36.6c0.7-1.7,2.3-2.8,4.1-3
	c14.2-2.1,28.3-4.1,42.6-5.2c3.3-0.3,4.6,2.1,6.6,3.7c1.2,0.9,2.5,2.5,3.5,0.2c1.5-3.7,4.5-3.9,7.8-3.9c3.7,0,3.8-1.2,1.7-4
	c-4.7-6.4-8.2-13.4-8.5-21.5c-0.1-3.5-2.3-4.3-4.9-5.3c-25.9-10-51.8-20-77.6-30.1c-12.2-4.8-17.6-12.7-17.2-25.8
	c0.3-9,3-17.1,10.8-22.5c5.3-3.7,10.5-4.4,16.7-1c31.8,18.1,63.8,35.8,95.8,53.6c4.6,2.6,8.4,1.4,11-3.3c0.8-1.5,2.3-1.8,3.7-2.2
	c11.8-3.6,23.8-4.9,35.9-1.4c6.6,2,13.3,0.3,19.8-0.5c6.2-0.9,12.6,0.3,18.1,3.4c17.3,9.3,33.8,20,50.4,30.4c-0.1,0.8,0.3,1.6,1,2
	c-0.1,1.1,0.3,2.2,1,3c1.4,5,2.8,9.9,4.2,14.9l0.5,3.1C434,106.3,434.2,107.4,435,108.2z M287.2,101.1c-0.7-7.1-5.8-11-10.9-14.8
	c-1.2-0.9-3.9-1.8-3.4,1.1c1,5.4,0.8,11.6,6.5,15.2c1.9,4.8,5.8,7.8,9.8,10.8c1,0.8,2.1,1.1,3.2,0.3c1.3-1,0.5-1.9,0-3
	C290.5,107.5,288.9,104.3,287.2,101.1L287.2,101.1z M327.5,64.3c1.6-1.2,2.4-3.1,2.3-5.1l-19.5,3.4c0.5,3.2,3.1,2.6,5,3.1
	c6.3,4.4,5.1,10.6,4.3,16.9c-0.5,4.2-3.5,7.5-4,11.7c-1.1,1-2.3,1.8-3.4,2.8c-4.1,3.9-8.6,5.3-14,2.3c-1.5-0.8-4.2-2.8-5.4,0.3
	c-1.1,2.9,4.8,9.6,8,9.5c8.1-0.3,16.2-0.6,24.3-1.1c2-0.1,4.9,1.2,5.8-1.2c0.8-2-1.6-3.8-2.8-5.5c-0.1-0.1-0.3-0.2-0.4-0.3
	C322.9,89,323.2,76.7,327.5,64.3z M426.6,134.2c-0.7,3.3,1.2,4.7,3.8,6.1c8.2,4.3,16.3,9,24.5,13.1c4.1,2.1,7.6,5.4,12.4,6.1
	c1.2,1.4,2.7,3.3,4.4,2.2c1.5-0.8,0.4-3,0.2-4.6c-0.3-3-2.2-5.7-4.9-7c-8.6-4.6-17.1-9.5-25.7-14.2c-5.3-2.9-10.7-5.6-16.3-8.5
	C424.7,129.8,425.2,132.2,426.6,134.2L426.6,134.2z M335.1,61.7c-3.8,7.5-6.2,15.4-5.5,23.9c0.5,7.3,3.3,14.3,7.9,20
	c2.9,3.4,7.2,1.6,10.9,1.6s9,1.8,10.1-1s-2.8-6.9-5.2-10c-2.2-6.4-3.2-13.2-2.8-19.9c0.4-5.5,3-10.4,4.3-15.6
	c1.7-0.7,3.1-1.9,2.5-3.7c-0.5-1.4-2.4-0.6-3.6-0.5c-5,0.4-9.9,1-14.9,1.4C336.5,58.2,335.1,59.2,335.1,61.7L335.1,61.7z
	 M292.8,68.3c-2.3-2.7-5.2-5-8.4-6.6c-31-17.3-62-34.7-93.1-52c-6.5-3.6-8.9-3.2-14,2.5c-2.9,4.9-4.8,10-3.4,15.8
	c-0.6,2,0.4,3.9,0.6,5.9c1.3,10.2,12.3,14.7,19,7.8c2-2.1,3.8-1,5.9-0.1c7.7,3.4,15.5,6.8,23.2,10.1c18.8,8.1,37.5,16.2,56.3,24.1
	c4.9,2.1,9.6,4.8,14.9,5.8l0.7-1.4l-50.8-25.5l0.7-1.5c7.8,3.2,15.5,6.4,23.3,9.5c6.3,2.4,12.2,6,19,7l2.5,0.7
	c0.4,1.2,1.1,1.8,2.5,1.4c0.5,0.2,0.9,0.3,1.4,0.4c1.3,0.2,2.9,1.9,3.9,0.1c0.8-1.7-1.5-2.2-2.2-3.4C294.4,68.4,293.6,68,292.8,68.3
	z M255,174.3c0.5,4.8,4.6,7.5,6.7,11.3c4.5,8.1,10.8,12.8,20.6,10.3c10.4-0.2,20.8-0.5,31.3-0.7c2.6,0,3.2-1.1,2.2-3.5
	c-3.7-9-6.4-18.5-14.9-24.8c-2.2-1.7-4.2-2.9-7.1-2.8c-11.3,0.2-22.6,0-33.9,0.2c-3,0-7.3-1.5-8.7,1.7
	C250.2,168.8,253.2,171.8,255,174.3z M366.7,124.4c2.2-0.5,3.6-2.6,3.2-4.9c-0.5-2.1-3.1-1.2-4.8-1.2c-13.4-0.3-26.8-0.4-40.2-0.7
	c-4-0.1-6,1.4-5.1,5.6c-2,0.8-2.2,2.8-2.8,4.4c-2.8,7.5-5.2,15.1-8.1,22.5c-1.6,4.1-0.9,5.6,3.8,5.5c10-0.3,20-0.7,29.9,0.1
	c8.2,0.7,13.4-1.4,15.3-9.8c0.5-2.1,2-3.9,2.7-5.9C362.3,134.8,366.2,130.3,366.7,124.4L366.7,124.4z M212,129.3
	c-4.5,6.4-7.3,13.7-10.6,20.8c-1.5,3.1-0.6,4.1,2.9,3.8c10.9-0.9,21.8-1.6,32.7-2.5c2.2-0.2,4.4,0.6,5.9,2.2
	c3.3,3.4,7.5,3.8,11.9,3.9c10.3,0,20.6,0,30.9,0c12.9,0,12.8-0.1,17-12.4c1.2-3.5,2.6-6.8,3.6-10.3c0.9-3,2.9-5.7,2.5-9
	c1-1.2,3.3-2,2.5-3.8s-2.9-0.9-4.5-0.9c-10.9-0.2-21.8-0.2-32.8-0.4c-2.8,0-5,0.3-4.9,3.8c-5.7,8.9-11.7,17.6-16.9,26.8
	c-2,3.5-3.1,3.4-5.6,1.2c-0.7-0.7-1.6-1.2-2.4-1.8c-4.3-3.4-4.1-5.8,1-7.8c2.4-1,2.9-2.2,1-3.9c-2.9-2.6-1.1-3.8,1.4-4.2
	c3.5-0.6,5.6-1.7,4-5.7c-0.4-1,0-2.3,0-3.4c1-0.5,3.3,0.5,2.6-1.8c-0.7-2-1.9-3.6-4.8-3.2c-10.8,1.5-21.7,2.7-32.5,4
	C213.9,124.8,211.9,126,212,129.3L212,129.3z M428.5,116c-1.4-8.4-2.7-16.2-5.1-23.9c-0.9-3-2.9-5.7-5.5-7.5
	c-15.1-10.7-31.1-20-47.7-28c-2.9-1.4-4.5-0.9-6.2,1.6c-6.6,9.3-9.5,19.6-6.3,30.7c2.2,7.7,5.7,15.5,13.7,18.6
	c9.6,3.7,19.6,6.4,29.1,10.4c1.7,0.7,3.6,1.4,5.2-0.2c5.2-5.3,10.6-4.4,16.2-0.6c0.8,0.6,1.7,1,2.7,1.3
	C427.1,119.2,428.4,118.1,428.5,116z M333.3,161.6c-7,0-14,0-21,0c-1.3,0-3.2-0.5-3.5,1c-0.5,1.9,1.3,2.9,2.8,3.7
	c1.1,0.5,2.2,0.7,3.4,0.7c13.7,0,27.3,0,41,0c2.4,0.2,4.6-1.3,5.4-3.5c3.5-7.9,7.3-15.7,10.9-23.5c5.5-12,5.5-12.2,17.1-6.3
	c32.7,16.4,65.8,32.1,96.8,51.9c3.4,2.2,5.8,4.7,6.6,8.8c0.8,3.2,1.7,6.4,2.8,9.6c0.4,1.2,1,2.2,2.4,1.9c1.2-0.2,2.5-0.9,2.1-2.3
	c-2.2-7-2.2-15.1-9.2-19.8c-4.5-3.1-9.1-6.1-13.8-9c-31.4-19.2-64.3-35.7-97.2-52.2c-2.9-1.5-4.3-1.1-5.6,2
	c-4.5,10.6-9.5,20.9-14,31.4c-1.7,4-3.7,6.1-8.5,5.7C345.6,161.2,339.4,161.6,333.3,161.6L333.3,161.6z M491.6,217
	c-2.6-0.5-3.1,1.1-4,2.2c-4,5.1-8.3,10-12.9,14.6c-1.6,1.7-3.8,2.6-6.2,2.6c-20.3,0-40.7,0-61,0.1c-2.1,0-4-0.2-5.3-2
	c-2.2-2.9-4.7-5.6-6.8-8.6c-10.6-15.3-20-31.3-26.1-49.2c-0.5-1.6-0.7-4.4-3.1-3.7c-2.1,0.6-1.4,3-0.7,4.8
	c8.3,20.5,16.1,41.2,30.6,58.4c2.1,2.5,3.9,5.2,8,5.2c20.3-0.2,40.7,0,61-0.3c4.5-0.1,9.4-0.1,12.5-4.6c1.7-2.4,4-4.4,5.8-6.8
	C486.4,225.7,490.1,222.2,491.6,217L491.6,217z M362.3,224.2L362.3,224.2c-5.3,0.1-10.6,0.1-16,0.1c-3.5,0-4.8,0.9-2.4,4.2
	c2.7,4,5.8,7.7,9.3,11c1,1.1,2.5,1.8,4,1.8c10.8,0,21.6,0,32.4,0c2.3,0,3-0.6,1.5-2.9c-8.9-14.2-8.9-14.2-25.9-14.2L362.3,224.2z
	 M270.4,237.2L270.4,237.2c5.3,0,10.7,0,16,0c1,0,2.2,0.2,2.5-1c0.1-0.6-0.5-1.5-1-2.1c-2.9-3.6-6-7.1-8.7-10.9
	c-1.5-2.2-4.1-3.4-6.8-3.1c-9.5,0.5-18.9,0.7-28.4,1c-1.4,0-3.3-0.6-4.1,1c-0.9,1.8,0.5,3.2,1.6,4.4c5.7,6.7,11.7,12.9,21.9,10.7
	C265.7,236.9,268.1,237.3,270.4,237.2L270.4,237.2z M222.6,189.2c8.8-1.2,17.8-0.8,26.7-1c1.7,0,4-0.2,2.7-2.6
	c-1.7-3.1-2.8-6.7-6.2-8.7c-10.4-6.6-23-9-35.1-6.6c-2.8,0.5-3.4,1.7-2.1,4.1c1.8,3.3,3.8,6.6,5.3,10.1
	C215.7,188.5,218.4,190.1,222.6,189.2L222.6,189.2z M355.3,215.3L355.3,215.3c5.7,0,11.3,0,17,0c3.2,0,3.8-1,2.1-3.9
	c-1.8-3-3.3-6.1-4.6-9.4c-0.5-1.8-2.3-3-4.2-2.7c-9.1,0.4-18.3-0.8-27.4,0.9c-3,0.6-7.5-1.6-8.7,1.2c-1.2,2.7,2.5,5.8,3.5,8.9
	c1.4,4.1,4,5.5,8.3,5.2C345.9,215.1,350.6,215.4,355.3,215.3L355.3,215.3z M338.9,175.2h-9c-12.6,0-12.4-0.1-7.8,11.6
	c1.5,3.7,3.7,5,7.2,4.3c7.8-1.5,15.6-0.8,23.4-0.8c14.6,0,11.5,0,7.8-11.7c-0.9-2.7-2.5-3.6-5.2-3.5
	C349.8,175.3,344.3,175.2,338.9,175.2L338.9,175.2z M237.3,212.5c9.3-0.4,16.9-1.3,24.6-1.2c8.8,0.2,8.8,0,4.4-7.4
	c-1.7-2.9-3.3-6.3-7-6.4c-10.7-0.2-21.3-0.2-32,0.2c-3.3,0.1-4.8,2.4-2.8,5.6C227.8,208.6,230.8,214.7,237.3,212.5L237.3,212.5z
	 M407.7,206.1c-0.1,5.2,1.1,10.3,3.6,14.8c2.6,5.2,7.7,6,11.5,1.8c6.3-6.8,6.4-24.4,0.2-31.3c-2.9-3.2-5.9-3.9-9.5-0.9
	C408.7,194.6,407.5,199.8,407.7,206.1L407.7,206.1z M458.4,210.9c0.1-5.8-1-10.7-4.1-14.8c-2.8-3.7-7.4-3.5-10,0.2
	c-4.7,6.5-4.7,20.1,0,26.6c3.3,4.6,7.8,4.5,10.8-0.3C457.5,219.1,458.6,215.1,458.4,210.9L458.4,210.9z M394.4,164.3
	c0.1-4.2-0.6-8.3-3.3-11.7c-2-2.5-4.1-2.4-6.2,0c-4.3,4.9-4.4,17.6,0,22.4c2.4,2.7,4.7,2.8,6.8-0.4
	C393.7,171.6,394.7,167.9,394.4,164.3L394.4,164.3z M205.3,163c11,0.8,22.3-4.9,33,1.8c0.6,0.2,1.2,0.2,1.8-0.2
	c0.5-0.7,0.3-1.7-0.4-2.2l0,0c-3.1-2.3-5.5-5.4-10.3-4.8c-8,1-16.2,1.2-24.3,2c-2.4,0.2-6.8-0.8-6.6,2
	C198.7,164.7,203,162.4,205.3,163L205.3,163z M301.1,235.6c-0.8-0.8-1.4-1.5-2.1-2.2c-1.9-2.1-3.9-4.1-5.7-6.3
	c-5.2-6.5-9.8-13.4-13.9-20.6c-1-1.9-2.8-2.8-4.5-1.9c-2.5,1.3-0.2,2.8,0.5,4c4.6,7.3,9.6,14.3,15.1,21c2.2,2.5,4.5,4.8,7,7
	c0.8,0.7,1.9,0.8,2.8,0.3C300.8,236.7,300.9,236.1,301.1,235.6L301.1,235.6z M480.6,203.5c-0.5-3.3,0-8.7-4.7-8.8s-4.5,5.3-4.5,9.1
	c0.1,3.4,0.2,8.2,4.5,8.2S480.4,207.4,480.6,203.5L480.6,203.5z M302,78.3c2.9-8.6,0.9-14-5.4-13.9C301.6,68.1,301.7,73.2,302,78.3z
	"/>
<path class="st1" d="M173.3,357.2c0,19.5-0.1,39,0.1,58.4c0,3.8-1,5.1-4.8,4.7c-3-0.3-6-0.3-9,0c-3.7,0.3-4.4-1.2-4.4-4.6
	c0.2-9.3,0-18.7,0.1-28c0-2.8-0.8-3.7-3.6-3.8c-15.1-0.6-15.1-0.7-15.1,14.2c0,6-0.2,12,0.1,18c0.2,3.4-1.1,4.2-4.3,4.2
	c-9-0.2-18-0.3-27,0c-4.5,0.2-5.1-1.6-5.1-5.4c0.2-27,0.1-53.9,0.1-80.9c0-12.2,0.1-24.3-0.1-36.5c-0.1-3.6,0.7-4.9,4.6-4.9
	c21.3,0.2,42.6,0.2,63.9,0c3.6,0,4.4,1.3,4.4,4.6C173.2,317.3,173.3,337.3,173.3,357.2z M155.3,338.5c0-7.7-0.1-15.3,0.1-23
	c0.1-3-0.7-4.3-3.9-4.1c-3.7,0.2-7.3,0.2-11,0c-3-0.2-4,0.9-4,3.9c0.1,15.3,0.1,30.6,0,45.9c0,3,0.7,4.3,3.9,4c3.5-0.2,7-0.2,10.5,0
	c3.4,0.2,4.7-0.8,4.5-4.4C155.2,353.4,155.3,346,155.3,338.5L155.3,338.5z"/>
<path class="st1" d="M200.8,356.7c0-19.7,0.1-39.3-0.1-59c0-3.9,1-5.1,5-5.1c21,0.2,42,0.2,63,0c3.9,0,5,1.1,5,5
	c-0.1,39.1-0.1,78.3,0,117.4c0,4.2-1.2,5.7-5.3,5.2c-2.5-0.3-5-0.3-7.5,0c-4.7,0.7-5.4-1.4-5.4-5.6c0.2-32.7,0-65.3,0.2-97.9
	c0-4-0.9-5.4-5.2-5.4c-13.5,0.2-13.5,0-13.5,13.6c0,30-0.1,60,0.1,89.9c0,4.5-1.2,5.6-5.6,5.4c-8.5-0.4-17-0.3-25.5,0
	c-4.1,0.1-5.4-0.9-5.3-5.2C200.9,395.7,200.8,376.2,200.8,356.7z"/>
<path class="st1" d="M301.1,356.4c0-19.7,0.1-39.3-0.1-59c0-3.8,1-4.9,4.8-4.8c8.8,0.3,17.6,0.3,26.5,0c3.8-0.1,5.2,0.9,5.1,5
	c-0.2,14.7,0.1,29.3-0.2,44c-0.1,4.1,1.2,5.3,5.1,4.9c4.3-0.4,9.8,1.7,12.6-0.8s0.9-8.2,1-12.4c0.1-12,0.2-24,0-36
	c0-3.4,0.8-4.6,4.4-4.6c13.8-0.1,13.8-0.2,13.8,13.7c0,12-0.1,24,0.1,36c0,3.3-0.9,4.5-4.2,4.2c-3.5-0.2-7,0.1-10.5-0.1
	c-2.5-0.1-3.8,0.7-3.6,3.4c0,0.2,0,0.3,0,0.5c0.1,4.7-1.5,10.5,0.7,13.7c2.4,3.5,8.6,1,13.1,1.2c3,0.1,4.5,0.6,4.4,4.1
	c-0.2,15.7-0.2,31.3,0,47c0,3.4-1.2,4.3-4.3,4.1c-3.2-0.2-6.3-0.2-9.5,0c-3.6,0.3-4.5-1.1-4.5-4.5c0.2-15.2-0.1-30.3,0.2-45.5
	c0.1-4.3-1.2-5.6-5.3-5.1c-3,0.3-6,0.3-9,0c-3.6-0.3-4.4,1.2-4.4,4.6c0.2,15.3,0,30.6,0.1,46c0,3.4-0.8,4.7-4.4,4.6
	c-9.2-0.2-18.3-0.2-27.5,0c-3.6,0.1-4.5-1.1-4.4-4.5C301.2,396,301.1,376.2,301.1,356.4z"/>
<path class="st1" d="M602,328.9c0-10.7,0.1-21.3-0.1-32c-0.1-3.3,1.1-4.3,4.3-4.2c21.3,0.1,42.6,0.1,63.9,0c3.4,0,4.8,1,4.6,4.5
	c-0.3,3.3-0.3,6.7,0,10c0.3,3.7-1.3,4.5-4.6,4.4c-9-0.2-18,0.1-27-0.2c-4.1-0.1-5.1,1.3-5,5.2c0.2,8.8,0.2,17.7,0,26.5
	c-0.1,3.7,1,5,4.8,4.9c9.1-0.3,18.3,0,27.5-0.2c3.2-0.1,4.4,0.8,4.4,4.2c-0.1,21.5-0.1,42.9,0,64.4c0,3-0.9,4-4,4
	c-21.7-0.1-43.3-0.1-64.9,0c-3.2,0-3.8-1.2-3.8-4.1c-0.3-14.8-0.4-14.8,14.2-14.8c6.2,0,12.3-0.1,18.5,0.1c3.1,0.1,4-1,4-4
	c-0.2-9.3-0.2-18.7,0-28c0.1-3.7-1.4-4.4-4.7-4.3c-9.2,0.2-18.3-0.1-27.5,0.1c-3.5,0.1-4.6-1-4.5-4.5
	C602.1,350.2,602,339.5,602,328.9L602,328.9z"/>
<path class="st1" d="M401.2,294.3c1.3-2.2,3.5-1.4,5.4-1.4c20.3-0.1,40.5-0.1,60.8-0.1c1.8,0,3.6-0.2,5.5-0.2
	c2.2,6.2,0.6,12.6,0.9,18.9c-10.5,0.1-21,0.2-31.4,0.1c-3.6-0.1-5,0.7-4.9,4.6c0.3,8.6,0.2,17.3,0,25.9c-0.1,3.4,0.8,4.7,4.4,4.6
	c9.3-0.2,18.6,0.1,27.9-0.2c3.3-0.1,4.5,1,4.2,4.2c-0.4,4.6,1.9,10.5-0.8,13.6s-8.8,0.9-13.3,1c-6.3,0.2-12.6,0.2-19,0
	c-2.6,0-3.5,0.9-3.4,3.5c0.1,9.8,0.2,19.6,0,29.4c-0.1,4.2,2.5,3.4,5,3.1c2.6,0.4,5.4,0.4,8,0h2c1,0.4,2,0.4,3,0h3
	c1.3,0.4,2.7,0.4,4,0h8c1.9,0.2,3.6,0.6,3.5,3.2c-0.2,5.3,0.5,10.6-0.4,15.8l-66,0.2h-2c-1.5-0.6-3.9,0.5-4.3-2.2c0.1-2,0.3-4,0.3-6
	c0-32.2,0-64.4,0-96.7C401.5,308.5,401.3,301.4,401.2,294.3z"/>
<path class="st1" d="M556.7,384.3l-17.1-0.2c0-0.2-0.1-0.3-0.2-0.4c-0.1-0.1-0.3-0.3-0.4-0.3c-2.4,0.8-1.2,2.7-1.2,4.1
	c-0.2,10.9-0.2,21.8-0.3,32.8l-35.2,0.1c-1-1.9-0.6-3.9-0.6-5.9c0-37.6,0-75.1,0-112.7c0-8.4,0-8.4,7.9-9.3
	c13.4,0.1,26.8,0.2,40.3,0.3c8,0,15.9,0,23.9-0.1c0.3,1.3,0.5,2.6,0.6,3.9c0,21.6,0,43.3,0,64.9c0,1.3-0.7,5.7-0.9,7
	c-5.4,0-10-0.1-15.5,0c-1.7-1.3-1.4-6.3-1.4-8.1c-0.1-14.6-0.2-29.2,0-43.9c0-3.8-0.7-5.6-4.9-5.1c-3,0.3-6,0.3-9,0
	c-3.8-0.3-5.2,0.8-5.1,4.9c0.3,14,0.1,27.9,0.1,41.9c0,8-1.1,7,7.2,7.1c11.4,0,14.5,0.2,14.3,11.5
	C559.2,379.3,560,382.4,556.7,384.3z"/>
<path class="st1" d="M18.6,365.3c0-16.3-0.1-32.6,0.1-49c0-3.6-0.8-5-4.7-4.9c-4.4,0.1-10.4,2.2-12.8-1c-2.2-2.9-0.5-8.6-0.9-13.1
	c-0.4-3.9,1.2-4.7,4.8-4.7c21.1,0.2,42.3,0.2,63.4,0c3.9,0,5,1.2,4.6,4.9c-0.4,4.4,1.8,10.2-0.9,13s-8.5,1-12.9,0.8
	c-4-0.2-4.6,1.4-4.6,5c0.1,32.8,0,65.6,0.2,98.4c0,4.3-0.9,5.8-5.5,5.6c-8.5-0.4-17-0.4-25.5,0c-4.7,0.2-5.4-1.5-5.4-5.7
	C18.8,398.2,18.6,381.7,18.6,365.3L18.6,365.3z"/>
<path class="st1" d="M556.2,389.3c0.8-1.7-0.2-6.4,1.6-7.9c4.3,0.1,8.6,0.3,13,0.2c2.9-0.1,3.8,3.1,3.8,6.3
	c-0.2,9.6-0.1,19.3,0,28.9c0,2.5-0.7,3.6-3.4,3.5c-3.8-0.2-7.7-0.2-11.5,0c-2.4,0.1-3.3-0.8-3.4-3c0.4-1.3,0.4-2.7,0-4
	C556.7,405.3,556.6,397.3,556.2,389.3z"/>
<path class="st2" d="M251.6,125.4c0,1.2-0.4,2.4,0,3.4c1.6,4.1-0.5,5.2-4,5.7c-2.5,0.4-4.3,1.6-1.4,4.2c1.9,1.7,1.4,2.9-1,3.9
	c-5.1,2.1-5.3,4.4-1,7.8c0.8,0.6,1.6,1.1,2.4,1.8c2.5,2.2,3.6,2.3,5.6-1.2c5.2-9.2,11.2-17.9,16.9-26.8c13.2,0.2,26.4-0.5,39.5,1.4
	c0.4,3.3-1.6,6-2.5,9c-1,3.5-2.5,6.9-3.6,10.3c-4.1,12.3-4.1,12.4-17,12.4c-10.3,0-20.6,0-30.9,0c-4.3,0-8.5-0.5-11.9-3.9
	c-1.5-1.6-3.7-2.4-5.9-2.2c-10.9,0.9-21.8,1.5-32.7,2.5c-3.5,0.3-4.3-0.6-2.9-3.8c3.3-7.1,6.1-14.3,10.6-20.8
	c11.5-1.1,22.8-3.9,34.5-4.5C248.2,124.8,250.1,123.8,251.6,125.4z"/>
<path class="st2" d="M428.5,116c-0.2,2-1.4,3.2-3.9,2.4c-1-0.3-1.9-0.7-2.7-1.3c-5.5-3.8-10.9-4.7-16.2,0.6
	c-1.5,1.6-3.4,0.9-5.2,0.2c-9.5-4-19.5-6.7-29.1-10.4c-8-3.1-11.5-10.9-13.7-18.6c-3.2-11.1-0.3-21.4,6.3-30.7
	c1.7-2.4,3.3-2.9,6.2-1.6c16.7,8,32.6,17.3,47.7,28c2.6,1.8,4.5,4.5,5.5,7.5C425.9,99.8,427.2,107.6,428.5,116z M385.1,83.6
	c-0.1,0.6-0.2,1-0.1,1.2c3.7,4.8,7.2,9.5,2.8,15.9c-1.1,1.6,0.6,2.9,2.4,1.8c4.5-2.9,7.7-1.3,10.5,2.5c0.7,1,1.7,2.6,3.1,1.8
	s0.5-2.4,0.1-3.6c-1.1-3.6-0.4-6.2,3.8-7c0.8-0.2,2.1-0.3,2-2.3c-6-1.7-10.1-5.5-10.2-12.4c0-0.2,0-0.3-0.1-0.5
	c-0.7-1.7-2.2-2.2-2.7-0.4c-1.7,6.8-5.6,5.3-9.9,3C386.4,83.4,385.7,83.6,385.1,83.6L385.1,83.6z"/>
<path class="st2" d="M366.7,124.5c-0.4,5.8-4.4,10.3-6.1,15.6c-0.7,2-2.2,3.8-2.7,5.9c-1.9,8.4-7.2,10.4-15.3,9.8
	c-9.9-0.8-20-0.4-29.9-0.1c-4.7,0.1-5.4-1.3-3.8-5.5c2.9-7.4,5.3-15,8.1-22.5c0.6-1.6,0.8-3.7,2.8-4.4c5.8-0.1,11.5-0.4,17.3-0.3
	C346.9,123.1,356.9,122.2,366.7,124.5z"/>
<path class="st2" d="M333.3,161.6c6.2,0,12.3-0.4,18.5,0.1c4.8,0.4,6.8-1.8,8.5-5.7c4.5-10.6,9.5-20.9,14-31.4
	c1.3-3.1,2.7-3.5,5.6-2c32.9,16.5,65.8,33,97.2,52.2c4.7,2.9,9.3,5.9,13.8,9c6.9,4.8,7,12.8,9.2,19.8c0.4,1.4-0.9,2-2.1,2.3
	c-1.5,0.3-2.1-0.7-2.4-1.9c-1.1-3.1-2.1-6.3-2.8-9.6c-0.8-4.1-3.2-6.6-6.6-8.8c-30.9-19.8-64.1-35.4-96.8-51.9
	c-11.6-5.8-11.6-5.7-17.1,6.3c-3.6,7.9-7.4,15.6-10.9,23.5c-0.8,2.3-3,3.7-5.4,3.5c-13.7,0-27.3,0-41,0c-1.2,0-2.3-0.3-3.3-0.8
	c-1.5-0.7-3.3-1.8-2.8-3.7c0.4-1.5,2.3-1,3.5-1C319.3,161.6,326.3,161.6,333.3,161.6z"/>
<path class="st1" d="M255,174.3c-1.9-2.5-4.8-5.6-3.7-8.2c1.3-3.2,5.6-1.7,8.7-1.7c11.3-0.2,22.6,0,33.9-0.2c2.9,0,4.8,1.2,7.1,2.8
	c8.5,6.2,11.2,15.8,14.9,24.8c1,2.3,0.4,3.4-2.2,3.5c-10.4,0.2-20.8,0.5-31.3,0.7c-1.6-7.6-6.6-13.6-9.8-20.4
	c-0.8-1.6-2.6-1.2-4.1-1.2C264,174.3,259.5,174.3,255,174.3z"/>
<path class="st1" d="M286.8,69.9c-6.8-1-12.7-4.5-19-7c-7.8-3-15.5-6.3-23.3-9.5l-0.7,1.5l50.7,25.6l-0.7,1.4
	c-5.3-1-10-3.8-14.9-5.8c-18.8-8-37.6-16.1-56.3-24.1c-7.8-3.3-15.5-6.7-23.2-10.1c-2-0.9-3.8-2-5.9,0.1c-6.7,6.8-17.7,2.3-19-7.8
	c-0.2-2-1.2-3.8-0.6-5.9c4,0.4,3.3-2.7,3.8-4.9c1.3-0.4,2.6-0.7,3.9-0.7c2.5,0.1,5.3,0.2,6.5,2.7c1,1.9,1.1,4.6-0.2,6.2
	c-1.8,2.4-4.2,0.3-6.3-0.4c-1.4-0.5-2.8-0.9-3.1,1.1c-0.4,3.3,1.3,5.8,3.9,7.6c2.2,1.5,4.3,0.8,6.3-0.9c3.7-3.4,3.6-8,3.9-12.4
	c1.3,0.1,2.6,0.4,3.9,0.8c7.2,3.3,14.4,6.7,21.6,10.1c16.4,7.6,33,15,49.2,22.8C274,63.1,281.2,64.9,286.8,69.9z"/>
<path class="st1" d="M491.6,217c-1.5,5.2-5.2,8.7-8.2,12.7c-1.8,2.4-4.1,4.4-5.8,6.8c-3.2,4.5-8.1,4.5-12.5,4.6
	c-20.3,0.3-40.7,0.1-61,0.3c-4.1,0-5.9-2.7-8-5.2c-14.4-17.2-22.3-37.9-30.6-58.4c-0.7-1.8-1.4-4.2,0.7-4.8c2.4-0.7,2.6,2.1,3.1,3.7
	c6,17.8,15.5,33.8,26.1,49.2c2.1,3,4.5,5.7,6.8,8.6c1.4,1.8,3.3,2,5.3,2c20.3-0.1,40.7-0.1,61-0.1c2.3,0.1,4.6-0.9,6.2-2.6
	c4.6-4.6,8.9-9.5,12.9-14.6C488.5,218.1,489,216.5,491.6,217z"/>
<path class="st2" d="M286.8,69.9c-5.6-4.9-12.8-6.8-19.4-9.9c-16.3-7.9-32.8-15.2-49.2-22.8c-7.2-3.3-14.4-6.8-21.6-10.1
	c-1.3-0.4-2.5-0.7-3.9-0.8c-0.2-1-0.5-1.9-0.7-2.9c-0.9-4.1-1.8-8.8-6.9-8.9s-6.1,4.7-7.3,8.7c-0.5,2.2,0.1,5.4-3.8,4.9
	c-1.4-5.8,0.5-10.9,3.4-15.8c6.2-1.3,11.8-0.1,17.5,3c31,17.5,62.1,34.8,93.2,52.2c1.6,0.9,3.2,0.8,4.8,0.8c0.8-0.3,1.7,0.1,2.1,0.8
	c0.7,1.2,3,1.7,2.2,3.4c-0.9,1.8-2.5,0.1-3.9-0.1c-0.5-0.1-0.9-0.2-1.4-0.4c-0.3-1.1-1.4-1.7-2.4-1.4l0,0L286.8,69.9z"/>
<path class="st1" d="M362.3,224.2h3c17-0.1,16.9,0,25.9,14.2c1.5,2.3,0.8,2.9-1.5,2.9c-10.8,0-21.6,0-32.4,0c-1.5,0-3-0.7-4-1.8
	c-3.5-3.3-6.6-7-9.3-11c-2.4-3.4-1.1-4.3,2.4-4.2C351.7,224.3,357,224.3,362.3,224.2L362.3,224.2z"/>
<path class="st1" d="M270.4,237.3c-2.3,0-4.7-0.4-7,0.1c-10.2,2.2-16.2-3.9-21.9-10.7c-1-1.2-2.5-2.6-1.6-4.4c0.8-1.6,2.7-1,4.1-1
	c9.5-0.4,18.9-0.6,28.4-1c2.7-0.3,5.3,0.9,6.8,3.1c2.8,3.7,5.8,7.2,8.7,10.9c0.5,0.6,1.1,1.5,1,2.1c-0.3,1.2-1.6,1-2.5,1
	C281.1,237.4,275.7,237.4,270.4,237.3L270.4,237.3z"/>
<path class="st1" d="M222.6,189.3c-4.3,0.8-7-0.8-8.7-4.8c-1.5-3.5-3.5-6.7-5.3-10.1c-1.3-2.4-0.7-3.6,2.1-4.1
	c12.1-2.4,24.7,0,35.1,6.6c3.4,2.1,4.5,5.6,6.2,8.7c1.3,2.4-1,2.6-2.7,2.6C240.4,188.4,231.5,188,222.6,189.3z"/>
<path class="st2" d="M354.7,60.7c-1.3,5.2-3.9,10.1-4.3,15.6c-0.4,6.8,0.6,13.5,2.8,19.9c-3.2,1.3-6.5,0.8-9.8,1.2
	c-7.4,0.8-8.2,0.2-9.8-7.2c-2.2-9.8-0.7-19.1,3.1-28.2C342.7,61.9,348.6,60.4,354.7,60.7z"/>
<path class="st1" d="M355.2,215.4c-4.7,0-9.3-0.3-14,0.1c-4.3,0.3-6.9-1.1-8.3-5.2c-1.1-3.1-4.7-6.2-3.5-8.9
	c1.3-2.9,5.7-0.7,8.7-1.2c9.1-1.7,18.2-0.5,27.4-0.9c1.9-0.2,3.7,0.9,4.2,2.8c1.3,3.2,2.8,6.4,4.6,9.4c1.7,2.8,1.1,3.9-2.1,3.9
	C366.5,215.3,360.9,215.3,355.2,215.4L355.2,215.4z"/>
<path class="st1" d="M338.9,175.2c5.5,0,11,0.1,16.5,0c2.7-0.1,4.3,0.8,5.2,3.5c3.7,11.6,6.8,11.7-7.8,11.7
	c-7.8,0-15.6-0.7-23.4,0.8c-3.5,0.7-5.8-0.6-7.2-4.3c-4.6-11.6-4.8-11.6,7.8-11.6L338.9,175.2z"/>
<path class="st1" d="M237.3,212.5c-6.6,2.2-9.5-3.9-12.8-9.3c-2-3.2-0.5-5.5,2.8-5.6c10.7-0.3,21.3-0.4,32-0.2
	c3.7,0.1,5.3,3.6,7,6.4c4.3,7.4,4.3,7.6-4.4,7.4C254.3,211.2,246.7,212.1,237.3,212.5z"/>
<path class="st3" d="M292.8,68.3c-1.6,0-3.2,0.1-4.8-0.8c-31-17.4-62.2-34.7-93.2-52.2c-5.6-3.2-11.2-4.4-17.5-3
	c5-5.7,7.5-6.1,14-2.5c31,17.3,62,34.7,93.1,52C287.6,63.4,290.5,65.6,292.8,68.3z"/>
<path class="st2" d="M407.7,206.1c-0.1-6.3,1-11.5,5.9-15.5c3.6-3,6.6-2.3,9.5,0.9c6.2,6.9,6,24.4-0.2,31.3c-3.8,4.2-9,3.3-11.5-1.8
	C408.8,216.4,407.6,211.3,407.7,206.1z M416.5,201.3c-0.2-3.2,2.3-3.9,5-4.6c-1.7-2.2-3.2-2.6-5-1.3c-2.4,1.6-3.8,4.3-3.8,7.2
	c-0.1,2.4-0.5,4.9-0.2,7.3c0.5,3.9,0.7,8.4,6,9.4c6.1-1.5,3.5-7.1,4.8-10.7c1.2-3-0.6-4.7-4-4C418.4,203.4,417.5,202.3,416.5,201.3z
	"/>
<path class="st2" d="M255,174.3c4.5,0,9,0,13.5,0c1.5,0,3.3-0.4,4.1,1.2c3.2,6.8,8.2,12.8,9.8,20.4c-9.8,2.4-16.1-2.3-20.6-10.3
	C259.6,181.8,255.5,179.2,255,174.3z"/>
<path class="st2" d="M458.4,210.9c0.2,4.1-1,8.2-3.2,11.6c-3,4.8-7.5,4.9-10.8,0.3c-4.7-6.5-4.7-20.1,0-26.6c2.7-3.7,7.3-3.9,10-0.2
	C457.4,200.3,458.5,205.1,458.4,210.9z M451.8,219.3c2.7-2.6,2.6-6.1,2.7-9.4c0.1-2.2-1.3-2.7-3.2-2.3c-2.2-1.5-3.2-3.5-2.8-6.2
	c1-0.1,1.9-0.3,2.2-1.4c0-0.1-0.4-0.4-0.6-0.5c-1.2,0-1.7,0.6-1.7,1.7c-4.9,3.7-5,15.3-0.2,18.4c1,0.9,2.5,0.8,3.4-0.2
	C451.7,219.4,451.8,219.4,451.8,219.3z"/>
<path class="st1" d="M336.7,62.1c-3.8,9.1-5.3,18.4-3.1,28.2c1.7,7.3,2.4,7.9,9.8,7.2c3.3-0.3,6.7,0.1,9.8-1.2c2.4,3.1,6.3,7,5.2,10
	s-6.6,1-10.1,1s-8,1.9-10.9-1.6c-4.7-5.7-7.4-12.7-7.9-20c-0.7-8.5,1.7-16.4,5.5-23.9L336.7,62.1z"/>
<path class="st1" d="M327.9,101.3c0.1,0.1,0.3,0.2,0.4,0.3c1.2,1.7,3.5,3.5,2.8,5.5c-0.9,2.4-3.8,1.1-5.8,1.2
	c-8.1,0.5-16.2,0.8-24.3,1.1c-3.3,0.1-9.1-6.6-8-9.5c1.2-3.1,3.9-1.1,5.4-0.3c5.4,2.9,9.8,1.6,14-2.3c1.1-1,2.3-1.9,3.4-2.8
	c2.8,8.3,2.8,8.3,11.7,7C327.6,101.3,327.7,101.3,327.9,101.3z"/>
<path class="st4" d="M366.7,124.5c-9.8-2.3-19.7-1.3-29.6-1.5c-5.8-0.1-11.5,0.2-17.3,0.3c-0.9-4.2,1.1-5.7,5.1-5.6
	c13.4,0.3,26.8,0.4,40.2,0.7c1.7,0,4.4-0.9,4.8,1.2C370.3,121.8,368.9,124,366.7,124.5z"/>
<path class="st2" d="M426.6,134.2c-1.4-2-1.9-4.4-1.5-6.8c5.7,3,11,5.7,16.3,8.5c8.6,4.7,17,9.6,25.7,14.2c2.7,1.3,4.6,4,4.9,7
	c0.3,1.6,1.3,3.8-0.2,4.6c-1.8,1-3.3-0.8-4.4-2.2c0.2-2-0.8-4-2.6-5C452.2,147.4,439.6,140.4,426.6,134.2z"/>
<path class="st2" d="M327.9,101.3c-0.2,0-0.3,0-0.5,0c-9,1.3-9,1.3-11.7-7c0.4-4.2,3.4-7.5,4-11.7c0.8-6.3,2-12.5-4.3-16.9
	c4-1.4,8.1-1.4,12.2-1.4C323.2,76.7,322.9,89,327.9,101.3z"/>
<path class="st2" d="M394.4,164.3c0.2,3.7-0.7,7.3-2.7,10.4c-2.2,3.2-4.4,3-6.8,0.4c-4.4-4.8-4.3-17.6,0-22.4c2.1-2.4,4.2-2.5,6.2,0
	C393.9,156,394.5,160.1,394.4,164.3z M388.4,155.5c-4.3,2.5-4.3,6.4-4,10.3c0.2,2.3,0.8,4.6,2.8,6.1c0.6,0.5,1.5,0.3,2-0.3
	c0-0.1,0.1-0.1,0.1-0.2c1.3-2.3,1.6-5.1,0.8-7.6c-0.2-0.5-0.5-0.9-0.8-1.2C387.3,160.5,386.4,158.3,388.4,155.5L388.4,155.5z"/>
<path class="st3" d="M251.6,125.4c-1.6-1.6-3.4-0.7-5.2-0.6c-11.6,0.6-22.9,3.4-34.5,4.5c-0.1-3.3,1.9-4.6,4.9-4.9
	c10.9-1.2,21.7-2.5,32.5-4c2.9-0.4,4.1,1.2,4.8,3.2C254.9,126,252.6,125,251.6,125.4z"/>
<path class="st3" d="M308.7,125.7c-13.1-1.9-26.3-1.2-39.5-1.4c-0.1-3.5,2-3.8,4.9-3.8c10.9,0.2,21.8,0.2,32.8,0.4
	c1.5,0,3.7-0.9,4.5,0.9S309.7,124.5,308.7,125.7z"/>
<path class="st1" d="M426.6,134.2c13,6.2,25.6,13.2,38.2,20.2c1.8,1,2.8,3,2.6,5c-4.8-0.7-8.3-4-12.4-6.1
	c-8.3-4.1-16.3-8.8-24.5-13.1C427.8,138.9,425.9,137.5,426.6,134.2z"/>
<path class="st2" d="M205.4,163c-2.4-0.6-6.7,1.7-6.9-1.5c-0.2-2.8,4.2-1.8,6.6-2c8.1-0.8,16.2-1,24.3-2c4.8-0.6,7.2,2.6,10.3,4.8
	c0.7,0.5,0.9,1.5,0.4,2.2l0,0c-0.5,0.4-1.2,0.5-1.8,0.2C227.7,158.1,216.4,163.8,205.4,163z"/>
<path class="st1" d="M301.1,235.6c-0.3,0.5-0.4,1.1-0.7,1.2c-0.9,0.5-2,0.4-2.8-0.3c-2.5-2.2-4.9-4.5-7-7
	c-5.5-6.7-10.5-13.7-15.1-21c-0.7-1.2-3-2.7-0.5-4c1.7-0.9,3.5,0,4.5,1.9c4.1,7.2,8.7,14.1,13.9,20.6c1.7,2.2,3.8,4.2,5.7,6.3
	C299.7,234.1,300.4,234.8,301.1,235.6z"/>
<path class="st2" d="M279.4,102.6c-5.7-3.5-5.5-9.7-6.5-15.2c-0.5-2.8,2.2-1.9,3.4-1.1c5.2,3.8,10.3,7.7,10.9,14.8
	C284.9,103,281.9,101.9,279.4,102.6z"/>
<path class="st1" d="M480.6,203.5c-0.2,3.9-0.5,8.5-4.6,8.5s-4.4-4.8-4.5-8.2c-0.1-3.7-0.2-9.1,4.5-9.1S480.2,200.2,480.6,203.5z
	 M476.5,208.4c1.1-2.4,1.5-4.8-0.8-7c-0.5-0.5-1.4-0.8-1.6-0.1c-1,2.6-0.7,5.1,1.6,7C475.8,208.4,476,208.4,476.5,208.4z"/>
<path class="st3" d="M336.7,62.1l-1.6-0.4c0-2.5,1.4-3.5,3.7-3.8c5-0.5,9.9-1,14.9-1.4c1.2-0.1,3.1-0.9,3.6,0.5
	c0.6,1.7-0.8,3-2.5,3.7C348.6,60.4,342.7,61.9,336.7,62.1z"/>
<path class="st1" d="M279.4,102.6c2.6-0.7,5.5,0.5,7.9-1.4c1.7,3.2,3.3,6.4,5.1,9.5c0.6,1.1,1.3,2,0,3c-1.1,0.8-2.2,0.5-3.2-0.3
	C285.2,110.4,281.3,107.4,279.4,102.6z"/>
<path class="st3" d="M327.5,64.3c-4.1,0-8.2,0-12.2,1.4c-2-0.6-4.6,0.1-5-3.1l19.5-3.4C330,61.2,329.1,63.1,327.5,64.3z"/>
<path class="st2" d="M302,78.3c-0.3-5.1-0.4-10.2-5.4-13.9C302.9,64.3,304.9,69.7,302,78.3z"/>
<path class="st1" d="M289.3,70.6c1.1-0.3,2.2,0.3,2.5,1.4l0,0C290.4,72.4,289.7,71.8,289.3,70.6z"/>
<path class="st5" d="M385.1,83.6c0.6,0,1.3-0.2,1.8,0c4.3,2.2,8.2,3.8,9.9-3c0.5-1.8,2-1.3,2.7,0.4c0.1,0.2,0.1,0.3,0.1,0.5
	c0.1,6.9,4.2,10.7,10.2,12.4c0.1,2-1.2,2.1-2,2.3c-4.2,0.8-4.9,3.4-3.8,7c0.4,1.2,1.2,2.8-0.1,3.6s-2.4-0.8-3.1-1.8
	c-2.9-3.8-6-5.4-10.5-2.5c-1.8,1.2-3.5-0.1-2.4-1.8c4.4-6.4,0.9-11.1-2.8-15.9C384.8,84.6,385,84.2,385.1,83.6z"/>
<path class="st0" d="M177.8,23.2c1.2-4,2.2-8.8,7.3-8.7s6,4.8,6.9,8.9c0.2,1,0.5,1.9,0.7,2.9c-0.3,4.4-0.1,9-3.9,12.4
	c-2,1.8-4.1,2.5-6.3,0.9c-2.6-1.8-4.3-4.3-3.9-7.6c0.2-2,1.7-1.5,3.1-1.1c2.1,0.7,4.4,2.8,6.3,0.4c1.3-1.7,1.2-4.3,0.2-6.2
	c-1.3-2.5-4.1-2.6-6.5-2.7C180.3,22.5,179,22.8,177.8,23.2z"/>
<path class="st0" d="M418.5,219.2c-5.3-1.1-5.4-5.5-6-9.4c-0.3-2.4,0.1-4.9,0.2-7.3l3.8-1.2l2.8,3.2
	C420.7,209.5,416.9,214.2,418.5,219.2z"/>
<path class="st1" d="M418.5,219.2c-1.6-5,2.2-9.7,0.9-14.7c3.4-0.7,5.1,1.1,4,4C421.9,212.1,424.6,217.8,418.5,219.2z"/>
<path class="st1" d="M416.5,201.3l-3.8,1.2c0-2.9,1.4-5.5,3.8-7.2c1.8-1.2,3.3-0.8,5,1.3C418.8,197.4,416.3,198,416.5,201.3z"/>
<path class="st0" d="M448.5,201.4c-0.5,2.7,0.6,4.7,2.7,6.2c0.2,2.8,0.5,5.5-1,8.1c-1.1,1.8-0.6,3.1,1.5,3.7
	c-0.8,1.1-2.3,1.3-3.3,0.6c-0.1,0-0.1-0.1-0.2-0.2C443.3,216.6,443.4,205.1,448.5,201.4L448.5,201.4z"/>
<path class="st1" d="M451.8,219.3c-2-0.6-2.6-1.9-1.5-3.7c1.5-2.6,1.2-5.3,1-8.1c1.9-0.4,3.3,0.1,3.2,2.3
	C454.4,213.2,454.5,216.7,451.8,219.3z"/>
<path class="st0" d="M448.4,201.3c0-1.2,0.6-1.8,1.7-1.7c0.2,0,0.7,0.4,0.6,0.5c-0.3,1.1-1.3,1.3-2.2,1.4L448.4,201.3z"/>
<path class="st0" d="M388.5,155.5c-2,2.8-1.2,5,0.8,7c0.4,0.3,0.7,0.7,0.8,1.2c0.8,2.5,0.6,5.3-0.8,7.6c-0.3,0.7-1.2,1-1.9,0.7
	c-0.1,0-0.1-0.1-0.2-0.1c-2-1.5-2.7-3.8-2.8-6.1C384.2,161.9,384.2,158,388.5,155.5z"/>
<path class="st0" d="M476.5,208.4c-0.5,0-0.7,0-0.8-0.1c-2.3-1.9-2.6-4.4-1.6-7c0.2-0.7,1.1-0.4,1.6,0.1
	C478,203.6,477.6,206,476.5,208.4z"/>
</svg>
