<?xml version="1.0" encoding="utf-8"?>
<!-- Generator: Adobe Illustrator 25.0.1, SVG Export Plug-In . SVG Version: 6.00 Build 0)  -->
<svg version="1.1" id="Ebene_1" xmlns="http://www.w3.org/2000/svg" xmlns:xlink="http://www.w3.org/1999/xlink" x="0px" y="0px"
	 viewBox="0 0 597.4 621.3" style="enable-background:new 0 0 597.4 621.3;" xml:space="preserve">
<style type="text/css">
	.st0{fill:#666666;}
	.st1{fill:#757575;}
	.st2{fill:#333333;}
	.st3{fill:#1A1A1A;}
	.st4{fill:#4D4D4D;}
</style>
<rect x="573.5" y="597.4" class="st0" width="23.9" height="23.9"/>
<rect x="573.5" y="573.5" class="st0" width="23.9" height="23.9"/>
<rect x="573.5" y="549.6" class="st0" width="23.9" height="23.9"/>
<rect x="573.5" y="525.7" class="st0" width="23.9" height="23.9"/>
<rect x="573.5" y="501.8" class="st0" width="23.9" height="23.9"/>
<rect x="573.5" y="477.9" class="st0" width="23.9" height="23.9"/>
<rect x="573.5" y="454" class="st0" width="23.9" height="23.9"/>
<rect x="573.5" y="430.1" class="st1" width="23.9" height="23.9"/>
<rect x="573.5" y="406.2" class="st1" width="23.9" height="23.9"/>
<rect x="573.5" y="382.4" class="st0" width="23.9" height="23.9"/>
<rect x="573.5" y="358.5" class="st0" width="23.9" height="23.9"/>
<rect x="573.5" y="334.5" class="st0" width="23.9" height="23.9"/>
<rect x="573.5" y="310.7" class="st0" width="23.9" height="23.9"/>
<rect x="573.5" y="286.8" class="st0" width="23.9" height="23.9"/>
<rect x="573.5" y="262.9" class="st0" width="23.9" height="23.9"/>
<rect x="573.5" y="239" class="st0" width="23.9" height="23.9"/>
<rect x="573.5" y="215.1" class="st0" width="23.9" height="23.9"/>
<rect x="573.5" y="191.2" class="st0" width="23.9" height="23.9"/>
<rect x="573.5" y="167.3" class="st0" width="23.9" height="23.9"/>
<rect x="573.5" y="143.4" class="st0" width="23.9" height="23.9"/>
<rect x="573.5" y="119.5" class="st0" width="23.9" height="23.9"/>
<rect x="573.5" y="95.6" class="st0" width="23.9" height="23.9"/>
<rect x="573.5" y="71.7" class="st1" width="23.9" height="23.9"/>
<rect x="573.5" y="47.8" class="st0" width="23.9" height="23.9"/>
<rect x="573.5" y="23.9" class="st0" width="23.9" height="23.9"/>
<rect x="573.5" y="0" class="st0" width="23.9" height="23.9"/>
<rect x="549.6" y="597.4" class="st0" width="23.9" height="23.9"/>
<rect x="549.6" y="573.5" class="st1" width="23.9" height="23.9"/>
<rect x="549.6" y="549.6" class="st1" width="23.9" height="23.9"/>
<rect x="549.6" y="525.7" class="st1" width="23.9" height="23.9"/>
<rect x="549.6" y="501.8" class="st1" width="23.9" height="23.9"/>
<rect x="549.6" y="477.9" class="st1" width="23.9" height="23.9"/>
<rect x="549.6" y="454" class="st1" width="23.9" height="23.9"/>
<rect x="549.6" y="430.1" class="st2" width="23.9" height="23.9"/>
<rect x="549.6" y="406.2" class="st2" width="23.9" height="23.9"/>
<rect x="549.6" y="382.4" class="st2" width="23.9" height="23.9"/>
<rect x="549.6" y="358.5" class="st2" width="23.9" height="23.9"/>
<rect x="549.6" y="334.5" class="st2" width="23.9" height="23.9"/>
<rect x="549.6" y="310.7" class="st1" width="23.9" height="23.9"/>
<rect x="549.6" y="286.8" class="st1" width="23.9" height="23.9"/>
<rect x="549.6" y="262.9" class="st1" width="23.9" height="23.9"/>
<rect x="549.6" y="239" class="st2" width="23.9" height="23.9"/>
<rect x="549.6" y="215.1" class="st1" width="23.9" height="23.9"/>
<rect x="549.6" y="191.2" class="st1" width="23.9" height="23.9"/>
<rect x="549.6" y="167.3" class="st1" width="23.9" height="23.9"/>
<rect x="549.6" y="143.4" class="st1" width="23.9" height="23.9"/>
<rect x="549.6" y="119.5" class="st1" width="23.9" height="23.9"/>
<rect x="549.6" y="95.6" class="st2" width="23.9" height="23.9"/>
<rect x="549.6" y="71.7" class="st2" width="23.9" height="23.9"/>
<rect x="549.6" y="47.8" class="st3" width="23.9" height="23.9"/>
<rect x="549.6" y="23.9" class="st3" width="23.9" height="23.9"/>
<rect x="549.6" y="0" class="st0" width="23.9" height="23.9"/>
<rect x="525.7" y="597.4" class="st0" width="23.9" height="23.9"/>
<rect x="525.7" y="573.5" class="st1" width="23.9" height="23.9"/>
<rect x="525.7" y="549.6" class="st1" width="23.9" height="23.9"/>
<rect x="525.7" y="525.7" class="st1" width="23.9" height="23.9"/>
<rect x="525.7" y="501.8" class="st2" width="23.9" height="23.9"/>
<rect x="525.7" y="477.9" class="st2" width="23.9" height="23.9"/>
<rect x="525.7" y="454" class="st2" width="23.9" height="23.9"/>
<rect x="525.7" y="430.1" class="st1" width="23.9" height="23.9"/>
<rect x="525.7" y="406.2" class="st1" width="23.9" height="23.9"/>
<rect x="525.7" y="382.4" class="st1" width="23.9" height="23.9"/>
<rect x="525.7" y="358.5" class="st2" width="23.9" height="23.9"/>
<rect x="525.7" y="334.5" class="st1" width="23.9" height="23.9"/>
<rect x="525.7" y="310.7" class="st1" width="23.9" height="23.9"/>
<rect x="525.7" y="286.8" class="st1" width="23.9" height="23.9"/>
<rect x="525.7" y="262.9" class="st1" width="23.9" height="23.9"/>
<rect x="525.7" y="239" class="st2" width="23.9" height="23.9"/>
<rect x="525.7" y="215.1" class="st1" width="23.9" height="23.9"/>
<rect x="525.7" y="191.2" class="st2" width="23.9" height="23.9"/>
<rect x="525.7" y="167.3" class="st1" width="23.9" height="23.9"/>
<rect x="525.7" y="47.8" class="st2" width="23.9" height="23.9"/>
<rect x="525.7" y="23.9" class="st3" width="23.9" height="23.9"/>
<rect x="525.7" y="0" class="st0" width="23.9" height="23.9"/>
<rect x="501.8" y="597.4" class="st0" width="23.9" height="23.9"/>
<rect x="501.8" y="573.5" class="st1" width="23.9" height="23.9"/>
<rect x="501.8" y="549.6" class="st1" width="23.9" height="23.9"/>
<rect x="501.8" y="525.7" class="st2" width="23.9" height="23.9"/>
<rect x="501.8" y="501.8" class="st2" width="23.9" height="23.9"/>
<rect x="501.8" y="477.9" class="st3" width="23.9" height="23.9"/>
<rect x="501.8" y="454" class="st1" width="23.9" height="23.9"/>
<rect x="501.8" y="430.1" class="st1" width="23.9" height="23.9"/>
<rect x="501.8" y="406.2" class="st2" width="23.9" height="23.9"/>
<rect x="501.8" y="382.4" class="st1" width="23.9" height="23.9"/>
<rect x="501.8" y="358.5" class="st1" width="23.9" height="23.9"/>
<rect x="501.8" y="334.5" class="st1" width="23.9" height="23.9"/>
<rect x="501.8" y="310.7" class="st3" width="23.9" height="23.9"/>
<rect x="501.8" y="286.8" class="st3" width="23.9" height="23.9"/>
<rect x="501.8" y="262.9" class="st1" width="23.9" height="23.9"/>
<rect x="501.8" y="239" class="st2" width="23.9" height="23.9"/>
<rect x="501.8" y="215.1" class="st2" width="23.9" height="23.9"/>
<rect x="501.8" y="191.2" class="st2" width="23.9" height="23.9"/>
<rect x="501.8" y="167.3" class="st1" width="23.9" height="23.9"/>
<rect x="477.9" y="597.4" class="st0" width="23.9" height="23.9"/>
<rect x="477.9" y="573.5" class="st2" width="23.9" height="23.9"/>
<rect x="477.9" y="549.6" class="st2" width="23.9" height="23.9"/>
<rect x="477.9" y="525.7" class="st1" width="23.9" height="23.9"/>
<rect x="477.9" y="501.8" class="st3" width="23.9" height="23.9"/>
<rect x="477.9" y="477.9" class="st2" width="23.9" height="23.9"/>
<rect x="477.9" y="454" class="st2" width="23.9" height="23.9"/>
<rect x="477.9" y="430.1" class="st1" width="23.9" height="23.9"/>
<rect x="477.9" y="406.2" class="st2" width="23.9" height="23.9"/>
<rect x="477.9" y="382.4" class="st1" width="23.9" height="23.9"/>
<rect x="477.9" y="358.5" class="st3" width="23.9" height="23.9"/>
<rect x="477.9" y="334.5" class="st3" width="23.9" height="23.9"/>
<rect x="477.9" y="310.7" class="st3" width="23.9" height="23.9"/>
<rect x="477.9" y="286.8" class="st1" width="23.9" height="23.9"/>
<rect x="477.9" y="262.9" class="st1" width="23.9" height="23.9"/>
<rect x="477.9" y="239" class="st4" width="23.9" height="23.9"/>
<rect x="477.9" y="215.1" class="st1" width="23.9" height="23.9"/>
<rect x="477.9" y="167.3" class="st3" width="23.9" height="23.9"/>
<rect x="454" y="597.4" class="st0" width="23.9" height="23.9"/>
<rect x="454" y="573.5" class="st2" width="23.9" height="23.9"/>
<rect x="454" y="549.6" class="st1" width="23.9" height="23.9"/>
<rect x="454" y="525.7" class="st1" width="23.9" height="23.9"/>
<rect x="454" y="501.8" class="st1" width="23.9" height="23.9"/>
<rect x="454" y="477.9" class="st1" width="23.9" height="23.9"/>
<rect x="454" y="454" class="st1" width="23.9" height="23.9"/>
<rect x="454" y="430.1" class="st2" width="23.9" height="23.9"/>
<rect x="454" y="406.2" class="st2" width="23.9" height="23.9"/>
<rect x="454" y="382.4" class="st1" width="23.9" height="23.9"/>
<rect x="454" y="358.5" class="st3" width="23.9" height="23.9"/>
<rect x="454" y="334.5" class="st2" width="23.9" height="23.9"/>
<rect x="454" y="310.7" class="st2" width="23.9" height="23.9"/>
<rect x="454" y="286.8" class="st1" width="23.9" height="23.9"/>
<rect x="454" y="262.9" class="st1" width="23.9" height="23.9"/>
<rect x="454" y="215.1" class="st4" width="23.9" height="23.9"/>
<rect x="454" y="191.2" class="st3" width="23.9" height="23.9"/>
<rect x="454" y="167.3" class="st3" width="23.9" height="23.9"/>
<rect x="430.1" y="597.4" class="st0" width="23.9" height="23.9"/>
<rect x="430.1" y="573.5" class="st1" width="23.9" height="23.9"/>
<rect x="430.1" y="549.6" class="st1" width="23.9" height="23.9"/>
<rect x="430.1" y="525.7" class="st2" width="23.9" height="23.9"/>
<rect x="430.1" y="501.8" class="st2" width="23.9" height="23.9"/>
<rect x="430.1" y="477.9" class="st1" width="23.9" height="23.9"/>
<rect x="430.1" y="454" class="st1" width="23.9" height="23.9"/>
<rect x="430.1" y="430.1" class="st1" width="23.9" height="23.9"/>
<rect x="430.1" y="406.2" class="st1" width="23.9" height="23.9"/>
<rect x="430.1" y="382.4" class="st1" width="23.9" height="23.9"/>
<rect x="430.1" y="358.5" class="st2" width="23.9" height="23.9"/>
<rect x="430.1" y="334.5" class="st1" width="23.9" height="23.9"/>
<rect x="430.1" y="310.7" class="st1" width="23.9" height="23.9"/>
<rect x="430.1" y="286.8" class="st1" width="23.9" height="23.9"/>
<rect x="430.1" y="262.9" class="st2" width="23.9" height="23.9"/>
<rect x="430.1" y="239" class="st1" width="23.9" height="23.9"/>
<rect x="430.1" y="215.1" class="st1" width="23.9" height="23.9"/>
<rect x="406.2" y="597.4" class="st0" width="23.9" height="23.9"/>
<rect x="406.2" y="573.5" class="st1" width="23.9" height="23.9"/>
<rect x="406.2" y="549.6" class="st1" width="23.9" height="23.9"/>
<rect x="406.2" y="525.7" class="st1" width="23.9" height="23.9"/>
<rect x="406.2" y="501.8" class="st1" width="23.9" height="23.9"/>
<rect x="406.2" y="477.9" class="st2" width="23.9" height="23.9"/>
<rect x="406.2" y="454" class="st2" width="23.9" height="23.9"/>
<rect x="406.2" y="430.1" class="st3" width="23.9" height="23.9"/>
<rect x="406.2" y="406.2" class="st3" width="23.9" height="23.9"/>
<rect x="406.2" y="382.4" class="st4" width="23.9" height="23.9"/>
<rect x="406.2" y="358.5" class="st1" width="23.9" height="23.9"/>
<rect x="406.2" y="334.5" class="st2" width="23.9" height="23.9"/>
<rect x="406.2" y="310.7" class="st1" width="23.9" height="23.9"/>
<rect x="406.2" y="286.8" class="st2" width="23.9" height="23.9"/>
<rect x="406.2" y="262.9" class="st3" width="23.9" height="23.9"/>
<rect x="406.2" y="239" class="st3" width="23.9" height="23.9"/>
<rect x="406.2" y="215.1" class="st2" width="23.9" height="23.9"/>
<rect x="406.2" y="191.2" class="st2" width="23.9" height="23.9"/>
<rect x="382.4" y="597.4" class="st0" width="23.9" height="23.9"/>
<rect x="382.4" y="573.5" class="st1" width="23.9" height="23.9"/>
<rect x="382.4" y="549.6" class="st1" width="23.9" height="23.9"/>
<rect x="382.4" y="525.7" class="st2" width="23.9" height="23.9"/>
<rect x="382.4" y="501.8" class="st2" width="23.9" height="23.9"/>
<rect x="382.4" y="477.9" class="st1" width="23.9" height="23.9"/>
<rect x="382.4" y="454" class="st3" width="23.9" height="23.9"/>
<rect x="382.4" y="430.1" class="st2" width="23.9" height="23.9"/>
<rect x="382.4" y="406.2" class="st4" width="23.9" height="23.9"/>
<rect x="382.4" y="382.4" class="st2" width="23.9" height="23.9"/>
<rect x="382.4" y="358.5" class="st2" width="23.9" height="23.9"/>
<rect x="382.4" y="334.5" class="st2" width="23.9" height="23.9"/>
<rect x="382.4" y="310.7" class="st4" width="23.9" height="23.9"/>
<rect x="382.4" y="286.8" class="st2" width="23.9" height="23.9"/>
<rect x="382.4" y="239" class="st1" width="23.9" height="23.9"/>
<rect x="382.4" y="215.1" class="st1" width="23.9" height="23.9"/>
<rect x="382.4" y="191.2" class="st1" width="23.9" height="23.9"/>
<rect x="382.4" y="167.3" class="st4" width="23.9" height="23.9"/>
<rect x="382.4" y="143.4" class="st1" width="23.9" height="23.9"/>
<rect x="358.5" y="597.4" class="st0" width="23.9" height="23.9"/>
<rect x="358.5" y="573.5" class="st1" width="23.9" height="23.9"/>
<rect x="358.5" y="549.6" class="st1" width="23.9" height="23.9"/>
<rect x="358.5" y="525.7" class="st1" width="23.9" height="23.9"/>
<rect x="358.5" y="501.8" class="st3" width="23.9" height="23.9"/>
<rect x="358.5" y="477.9" class="st3" width="23.9" height="23.9"/>
<rect x="358.5" y="454" class="st1" width="23.9" height="23.9"/>
<rect x="358.5" y="430.1" class="st1" width="23.9" height="23.9"/>
<rect x="358.5" y="406.2" class="st4" width="23.9" height="23.9"/>
<rect x="358.5" y="382.4" class="st1" width="23.9" height="23.9"/>
<rect x="358.5" y="358.5" class="st2" width="23.9" height="23.9"/>
<rect x="358.5" y="334.5" class="st2" width="23.9" height="23.9"/>
<rect x="358.5" y="310.7" class="st1" width="23.9" height="23.9"/>
<rect x="358.5" y="286.8" class="st1" width="23.9" height="23.9"/>
<rect x="358.5" y="262.9" class="st1" width="23.9" height="23.9"/>
<rect x="358.5" y="239" class="st1" width="23.9" height="23.9"/>
<rect x="358.5" y="191.2" class="st1" width="23.9" height="23.9"/>
<rect x="358.5" y="143.4" class="st3" width="23.9" height="23.9"/>
<rect x="358.5" y="119.5" class="st3" width="23.9" height="23.9"/>
<rect x="358.5" y="95.6" class="st2" width="23.9" height="23.9"/>
<rect x="334.5" y="597.4" class="st0" width="23.9" height="23.9"/>
<rect x="334.5" y="573.5" class="st2" width="23.9" height="23.9"/>
<rect x="334.5" y="549.6" class="st1" width="23.9" height="23.9"/>
<rect x="334.5" y="525.7" class="st1" width="23.9" height="23.9"/>
<rect x="334.5" y="501.8" class="st2" width="23.9" height="23.9"/>
<rect x="334.5" y="477.9" class="st2" width="23.9" height="23.9"/>
<rect x="334.5" y="454" class="st1" width="23.9" height="23.9"/>
<rect x="334.5" y="430.1" class="st2" width="23.9" height="23.9"/>
<rect x="334.5" y="406.2" class="st4" width="23.9" height="23.9"/>
<rect x="334.5" y="382.4" class="st1" width="23.9" height="23.9"/>
<rect x="334.5" y="358.5" class="st1" width="23.9" height="23.9"/>
<rect x="334.5" y="334.5" class="st1" width="23.9" height="23.9"/>
<rect x="334.5" y="310.7" class="st1" width="23.9" height="23.9"/>
<rect x="334.5" y="286.8" class="st2" width="23.9" height="23.9"/>
<rect x="334.5" y="262.9" class="st4" width="23.9" height="23.9"/>
<rect x="334.5" y="239" class="st4" width="23.9" height="23.9"/>
<rect x="334.5" y="215.1" class="st3" width="23.9" height="23.9"/>
<rect x="334.5" y="191.2" class="st3" width="23.9" height="23.9"/>
<rect x="334.5" y="167.3" class="st3" width="23.9" height="23.9"/>
<rect x="334.5" y="143.4" class="st2" width="23.9" height="23.9"/>
<rect x="334.5" y="119.5" class="st4" width="23.9" height="23.9"/>
<rect x="334.5" y="95.6" class="st4" width="23.9" height="23.9"/>
<rect x="310.7" y="597.4" class="st0" width="23.9" height="23.9"/>
<rect x="310.7" y="573.5" class="st2" width="23.9" height="23.9"/>
<rect x="310.7" y="549.6" class="st1" width="23.9" height="23.9"/>
<rect x="310.7" y="525.7" class="st1" width="23.9" height="23.9"/>
<rect x="310.7" y="501.8" class="st2" width="23.9" height="23.9"/>
<rect x="310.7" y="477.9" class="st1" width="23.9" height="23.9"/>
<rect x="310.7" y="454" class="st2" width="23.9" height="23.9"/>
<rect x="310.7" y="430.1" class="st1" width="23.9" height="23.9"/>
<rect x="310.7" y="406.2" class="st1" width="23.9" height="23.9"/>
<rect x="310.7" y="382.4" class="st1" width="23.9" height="23.9"/>
<rect x="310.7" y="358.5" class="st2" width="23.9" height="23.9"/>
<rect x="310.7" y="334.5" class="st1" width="23.9" height="23.9"/>
<rect x="310.7" y="310.7" class="st1" width="23.9" height="23.9"/>
<rect x="310.7" y="286.8" class="st2" width="23.9" height="23.9"/>
<rect x="310.7" y="262.9" class="st2" width="23.9" height="23.9"/>
<rect x="310.7" y="239" class="st1" width="23.9" height="23.9"/>
<rect x="310.7" y="215.1" class="st2" width="23.9" height="23.9"/>
<rect x="310.7" y="191.2" class="st1" width="23.9" height="23.9"/>
<rect x="310.7" y="95.6" class="st4" width="23.9" height="23.9"/>
<rect x="286.8" y="597.4" class="st0" width="23.9" height="23.9"/>
<rect x="286.8" y="573.5" class="st1" width="23.9" height="23.9"/>
<rect x="286.8" y="549.6" class="st1" width="23.9" height="23.9"/>
<rect x="286.8" y="525.7" class="st2" width="23.9" height="23.9"/>
<rect x="286.8" y="501.8" class="st1" width="23.9" height="23.9"/>
<rect x="286.8" y="477.9" class="st1" width="23.9" height="23.9"/>
<rect x="286.8" y="454" class="st1" width="23.9" height="23.9"/>
<rect x="286.8" y="430.1" class="st1" width="23.9" height="23.9"/>
<rect x="286.8" y="406.2" class="st1" width="23.9" height="23.9"/>
<rect x="286.8" y="382.4" class="st1" width="23.9" height="23.9"/>
<rect x="286.8" y="358.5" class="st1" width="23.9" height="23.9"/>
<rect x="286.8" y="334.5" class="st3" width="23.9" height="23.9"/>
<rect x="286.8" y="310.7" class="st3" width="23.9" height="23.9"/>
<rect x="286.8" y="286.8" class="st1" width="23.9" height="23.9"/>
<rect x="286.8" y="262.9" class="st1" width="23.9" height="23.9"/>
<rect x="286.8" y="215.1" class="st4" width="23.9" height="23.9"/>
<rect x="286.8" y="191.2" class="st4" width="23.9" height="23.9"/>
<rect x="262.9" y="597.4" class="st1" width="23.9" height="23.9"/>
<rect x="262.9" y="573.5" class="st1" width="23.9" height="23.9"/>
<rect x="262.9" y="549.6" class="st1" width="23.9" height="23.9"/>
<rect x="262.9" y="525.7" class="st1" width="23.9" height="23.9"/>
<rect x="262.9" y="501.8" class="st1" width="23.9" height="23.9"/>
<rect x="262.9" y="477.9" class="st2" width="23.9" height="23.9"/>
<rect x="262.9" y="454" class="st1" width="23.9" height="23.9"/>
<rect x="262.9" y="430.1" class="st1" width="23.9" height="23.9"/>
<rect x="262.9" y="406.2" class="st2" width="23.9" height="23.9"/>
<rect x="262.9" y="382.4" class="st1" width="23.9" height="23.9"/>
<rect x="262.9" y="358.5" class="st1" width="23.9" height="23.9"/>
<rect x="262.9" y="334.5" class="st3" width="23.9" height="23.9"/>
<rect x="262.9" y="310.7" class="st2" width="23.9" height="23.9"/>
<rect x="262.9" y="286.8" class="st1" width="23.9" height="23.9"/>
<rect x="262.9" y="262.9" class="st1" width="23.9" height="23.9"/>
<rect x="262.9" y="239" class="st1" width="23.9" height="23.9"/>
<rect x="262.9" y="215.1" class="st1" width="23.9" height="23.9"/>
<rect x="239" y="597.4" class="st1" width="23.9" height="23.9"/>
<rect x="239" y="573.5" class="st1" width="23.9" height="23.9"/>
<rect x="239" y="549.6" class="st1" width="23.9" height="23.9"/>
<rect x="239" y="525.7" class="st1" width="23.9" height="23.9"/>
<rect x="239" y="501.8" class="st1" width="23.9" height="23.9"/>
<rect x="239" y="477.9" class="st1" width="23.9" height="23.9"/>
<rect x="239" y="454" class="st4" width="23.9" height="23.9"/>
<rect x="239" y="430.1" class="st4" width="23.9" height="23.9"/>
<rect x="239" y="406.2" class="st2" width="23.9" height="23.9"/>
<rect x="239" y="382.4" class="st1" width="23.9" height="23.9"/>
<rect x="239" y="358.5" class="st1" width="23.9" height="23.9"/>
<rect x="239" y="334.5" class="st3" width="23.9" height="23.9"/>
<rect x="239" y="310.7" class="st3" width="23.9" height="23.9"/>
<rect x="239" y="286.8" class="st3" width="23.9" height="23.9"/>
<rect x="239" y="262.9" class="st4" width="23.9" height="23.9"/>
<rect x="239" y="239" class="st2" width="23.9" height="23.9"/>
<rect x="239" y="215.1" class="st2" width="23.9" height="23.9"/>
<rect x="215.1" y="597.4" class="st1" width="23.9" height="23.9"/>
<rect x="215.1" y="573.5" class="st1" width="23.9" height="23.9"/>
<rect x="215.1" y="549.6" class="st1" width="23.9" height="23.9"/>
<rect x="215.1" y="525.7" class="st2" width="23.9" height="23.9"/>
<rect x="215.1" y="501.8" class="st2" width="23.9" height="23.9"/>
<rect x="215.1" y="477.9" class="st2" width="23.9" height="23.9"/>
<rect x="215.1" y="454" class="st2" width="23.9" height="23.9"/>
<rect x="215.1" y="430.1" class="st2" width="23.9" height="23.9"/>
<rect x="215.1" y="406.2" class="st3" width="23.9" height="23.9"/>
<rect x="215.1" y="382.4" class="st1" width="23.9" height="23.9"/>
<rect x="215.1" y="358.5" class="st2" width="23.9" height="23.9"/>
<rect x="215.1" y="334.5" class="st2" width="23.9" height="23.9"/>
<rect x="215.1" y="310.7" class="st3" width="23.9" height="23.9"/>
<rect x="215.1" y="286.8" class="st1" width="23.9" height="23.9"/>
<rect x="215.1" y="262.9" class="st4" width="23.9" height="23.9"/>
<rect x="215.1" y="215.1" class="st1" width="23.9" height="23.9"/>
<rect x="215.1" y="191.2" class="st1" width="23.9" height="23.9"/>
<rect x="215.1" y="167.3" class="st2" width="23.9" height="23.9"/>
<rect x="215.1" y="143.4" class="st2" width="23.9" height="23.9"/>
<rect x="191.2" y="597.4" class="st0" width="23.9" height="23.9"/>
<rect x="191.2" y="573.5" class="st1" width="23.9" height="23.9"/>
<rect x="191.2" y="549.6" class="st1" width="23.9" height="23.9"/>
<rect x="191.2" y="525.7" class="st2" width="23.9" height="23.9"/>
<rect x="191.2" y="501.8" class="st3" width="23.9" height="23.9"/>
<rect x="191.2" y="477.9" class="st1" width="23.9" height="23.9"/>
<rect x="191.2" y="454" class="st3" width="23.9" height="23.9"/>
<rect x="191.2" y="430.1" class="st3" width="23.9" height="23.9"/>
<rect x="191.2" y="406.2" class="st3" width="23.9" height="23.9"/>
<rect x="191.2" y="382.4" class="st2" width="23.9" height="23.9"/>
<rect x="191.2" y="358.5" class="st2" width="23.9" height="23.9"/>
<rect x="191.2" y="334.5" class="st2" width="23.9" height="23.9"/>
<rect x="191.2" y="310.7" class="st1" width="23.9" height="23.9"/>
<rect x="191.2" y="286.8" class="st2" width="23.9" height="23.9"/>
<rect x="191.2" y="262.9" class="st2" width="23.9" height="23.9"/>
<rect x="191.2" y="239" class="st1" width="23.9" height="23.9"/>
<rect x="191.2" y="215.1" class="st1" width="23.9" height="23.9"/>
<rect x="191.2" y="167.3" class="st3" width="23.9" height="23.9"/>
<rect x="191.2" y="143.4" class="st1" width="23.9" height="23.9"/>
<rect x="167.3" y="597.4" class="st0" width="23.9" height="23.9"/>
<rect x="167.3" y="573.5" class="st1" width="23.9" height="23.9"/>
<rect x="167.3" y="549.6" class="st2" width="23.9" height="23.9"/>
<rect x="167.3" y="525.7" class="st2" width="23.9" height="23.9"/>
<rect x="167.3" y="501.8" class="st4" width="23.9" height="23.9"/>
<rect x="167.3" y="477.9" class="st1" width="23.9" height="23.9"/>
<rect x="167.3" y="454" class="st1" width="23.9" height="23.9"/>
<rect x="167.3" y="430.1" class="st1" width="23.9" height="23.9"/>
<rect x="167.3" y="406.2" class="st1" width="23.9" height="23.9"/>
<rect x="167.3" y="382.4" class="st2" width="23.9" height="23.9"/>
<rect x="167.3" y="358.5" class="st1" width="23.9" height="23.9"/>
<rect x="167.3" y="334.5" class="st4" width="23.9" height="23.9"/>
<rect x="167.3" y="310.7" class="st4" width="23.9" height="23.9"/>
<rect x="167.3" y="262.9" class="st1" width="23.9" height="23.9"/>
<rect x="167.3" y="239" class="st3" width="23.9" height="23.9"/>
<rect x="167.3" y="215.1" class="st1" width="23.9" height="23.9"/>
<rect x="167.3" y="191.2" class="st1" width="23.9" height="23.9"/>
<rect x="167.3" y="167.3" class="st1" width="23.9" height="23.9"/>
<rect x="167.3" y="143.4" class="st1" width="23.9" height="23.9"/>
<rect x="167.3" y="119.5" class="st1" width="23.9" height="23.9"/>
<rect x="143.4" y="597.4" class="st1" width="23.9" height="23.9"/>
<rect x="143.4" y="573.5" class="st1" width="23.9" height="23.9"/>
<rect x="143.4" y="549.6" class="st1" width="23.9" height="23.9"/>
<rect x="143.4" y="525.7" class="st1" width="23.9" height="23.9"/>
<rect x="143.4" y="501.8" class="st4" width="23.9" height="23.9"/>
<rect x="143.4" y="477.9" class="st4" width="23.9" height="23.9"/>
<rect x="143.4" y="454" class="st1" width="23.9" height="23.9"/>
<rect x="143.4" y="430.1" class="st2" width="23.9" height="23.9"/>
<rect x="143.4" y="406.2" class="st2" width="23.9" height="23.9"/>
<rect x="143.4" y="382.4" class="st1" width="23.9" height="23.9"/>
<rect x="143.4" y="358.5" class="st1" width="23.9" height="23.9"/>
<rect x="143.4" y="334.5" class="st1" width="23.9" height="23.9"/>
<rect x="143.4" y="310.7" class="st1" width="23.9" height="23.9"/>
<rect x="143.4" y="286.8" class="st1" width="23.9" height="23.9"/>
<rect x="143.4" y="262.9" class="st3" width="23.9" height="23.9"/>
<rect x="143.4" y="239" class="st2" width="23.9" height="23.9"/>
<rect x="143.4" y="191.2" class="st2" width="23.9" height="23.9"/>
<rect x="143.4" y="47.8" class="st1" width="23.9" height="23.9"/>
<rect x="143.4" y="23.9" class="st0" width="23.9" height="23.9"/>
<rect x="143.4" y="0" class="st0" width="23.9" height="23.9"/>
<rect x="119.5" y="597.4" class="st1" width="23.9" height="23.9"/>
<rect x="119.5" y="573.5" class="st1" width="23.9" height="23.9"/>
<rect x="119.5" y="549.6" class="st1" width="23.9" height="23.9"/>
<rect x="119.5" y="525.7" class="st3" width="23.9" height="23.9"/>
<rect x="119.5" y="501.8" class="st3" width="23.9" height="23.9"/>
<rect x="119.5" y="477.9" class="st1" width="23.9" height="23.9"/>
<rect x="119.5" y="454" class="st2" width="23.9" height="23.9"/>
<rect x="119.5" y="430.1" class="st2" width="23.9" height="23.9"/>
<rect x="119.5" y="406.2" class="st1" width="23.9" height="23.9"/>
<rect x="119.5" y="382.4" class="st4" width="23.9" height="23.9"/>
<rect x="119.5" y="358.5" class="st1" width="23.9" height="23.9"/>
<rect x="119.5" y="334.5" class="st1" width="23.9" height="23.9"/>
<rect x="119.5" y="310.7" class="st2" width="23.9" height="23.9"/>
<rect x="119.5" y="286.8" class="st3" width="23.9" height="23.9"/>
<rect x="119.5" y="262.9" class="st3" width="23.9" height="23.9"/>
<rect x="119.5" y="239" class="st2" width="23.9" height="23.9"/>
<rect x="119.5" y="215.1" class="st1" width="23.9" height="23.9"/>
<rect x="119.5" y="191.2" class="st2" width="23.9" height="23.9"/>
<rect x="119.5" y="167.3" class="st2" width="23.9" height="23.9"/>
<rect x="119.5" y="143.4" class="st4" width="23.9" height="23.9"/>
<rect x="119.5" y="119.5" class="st1" width="23.9" height="23.9"/>
<rect x="119.5" y="47.8" class="st1" width="23.9" height="23.9"/>
<rect x="119.5" y="23.9" class="st2" width="23.9" height="23.9"/>
<rect x="95.6" y="597.4" class="st0" width="23.9" height="23.9"/>
<rect x="95.6" y="573.5" class="st2" width="23.9" height="23.9"/>
<rect x="95.6" y="549.6" class="st2" width="23.9" height="23.9"/>
<rect x="95.6" y="525.7" class="st3" width="23.9" height="23.9"/>
<rect x="95.6" y="501.8" class="st3" width="23.9" height="23.9"/>
<rect x="95.6" y="477.9" class="st3" width="23.9" height="23.9"/>
<rect x="95.6" y="454" class="st3" width="23.9" height="23.9"/>
<rect x="95.6" y="430.1" class="st1" width="23.9" height="23.9"/>
<rect x="95.6" y="406.2" class="st2" width="23.9" height="23.9"/>
<rect x="95.6" y="382.4" class="st2" width="23.9" height="23.9"/>
<rect x="95.6" y="358.5" class="st1" width="23.9" height="23.9"/>
<rect x="95.6" y="334.5" class="st2" width="23.9" height="23.9"/>
<rect x="95.6" y="310.7" class="st2" width="23.9" height="23.9"/>
<rect x="95.6" y="286.8" class="st2" width="23.9" height="23.9"/>
<rect x="95.6" y="262.9" class="st2" width="23.9" height="23.9"/>
<rect x="95.6" y="239" class="st3" width="23.9" height="23.9"/>
<rect x="95.6" y="215.1" class="st1" width="23.9" height="23.9"/>
<rect x="95.6" y="191.2" class="st2" width="23.9" height="23.9"/>
<rect x="95.6" y="167.3" class="st2" width="23.9" height="23.9"/>
<rect x="95.6" y="143.4" class="st1" width="23.9" height="23.9"/>
<rect x="95.6" y="119.5" class="st1" width="23.9" height="23.9"/>
<rect x="95.6" y="47.8" class="st3" width="23.9" height="23.9"/>
<rect x="95.6" y="23.9" class="st1" width="23.9" height="23.9"/>
<rect x="71.7" y="597.4" class="st0" width="23.9" height="23.9"/>
<rect x="71.7" y="573.5" class="st2" width="23.9" height="23.9"/>
<rect x="71.7" y="549.6" class="st1" width="23.9" height="23.9"/>
<rect x="71.7" y="525.7" class="st2" width="23.9" height="23.9"/>
<rect x="71.7" y="501.8" class="st3" width="23.9" height="23.9"/>
<rect x="71.7" y="477.9" class="st3" width="23.9" height="23.9"/>
<rect x="71.7" y="454" class="st1" width="23.9" height="23.9"/>
<rect x="71.7" y="430.1" class="st1" width="23.9" height="23.9"/>
<rect x="71.7" y="406.2" class="st2" width="23.9" height="23.9"/>
<rect x="71.7" y="382.4" class="st1" width="23.9" height="23.9"/>
<rect x="71.7" y="358.5" class="st1" width="23.9" height="23.9"/>
<rect x="71.7" y="334.5" class="st4" width="23.9" height="23.9"/>
<rect x="71.7" y="310.7" class="st4" width="23.9" height="23.9"/>
<rect x="71.7" y="286.8" class="st2" width="23.9" height="23.9"/>
<rect x="71.7" y="262.9" class="st2" width="23.9" height="23.9"/>
<rect x="71.7" y="239" class="st1" width="23.9" height="23.9"/>
<rect x="71.7" y="215.1" class="st3" width="23.9" height="23.9"/>
<rect x="71.7" y="191.2" class="st3" width="23.9" height="23.9"/>
<rect x="71.7" y="167.3" class="st4" width="23.9" height="23.9"/>
<rect x="71.7" y="143.4" class="st4" width="23.9" height="23.9"/>
<rect x="71.7" y="119.5" class="st3" width="23.9" height="23.9"/>
<rect x="71.7" y="95.6" class="st3" width="23.9" height="23.9"/>
<rect x="71.7" y="71.7" class="st3" width="23.9" height="23.9"/>
<rect x="71.7" y="47.8" class="st3" width="23.9" height="23.9"/>
<rect x="71.7" y="23.9" class="st3" width="23.9" height="23.9"/>
<rect x="47.8" y="597.4" class="st0" width="23.9" height="23.9"/>
<rect x="47.8" y="573.5" class="st3" width="23.9" height="23.9"/>
<rect x="47.8" y="549.6" class="st1" width="23.9" height="23.9"/>
<rect x="47.8" y="525.7" class="st3" width="23.9" height="23.9"/>
<rect x="47.8" y="501.8" class="st2" width="23.9" height="23.9"/>
<rect x="47.8" y="477.9" class="st1" width="23.9" height="23.9"/>
<rect x="47.8" y="454" class="st2" width="23.9" height="23.9"/>
<rect x="47.8" y="430.1" class="st1" width="23.9" height="23.9"/>
<rect x="47.8" y="406.2" class="st1" width="23.9" height="23.9"/>
<rect x="47.8" y="382.4" class="st1" width="23.9" height="23.9"/>
<rect x="47.8" y="358.5" class="st2" width="23.9" height="23.9"/>
<rect x="47.8" y="334.5" class="st1" width="23.9" height="23.9"/>
<rect x="47.8" y="310.7" class="st1" width="23.9" height="23.9"/>
<rect x="47.8" y="286.8" class="st1" width="23.9" height="23.9"/>
<rect x="47.8" y="262.9" class="st1" width="23.9" height="23.9"/>
<rect x="47.8" y="239" class="st2" width="23.9" height="23.9"/>
<rect x="47.8" y="215.1" class="st2" width="23.9" height="23.9"/>
<rect x="47.8" y="191.2" class="st2" width="23.9" height="23.9"/>
<rect x="47.8" y="167.3" class="st3" width="23.9" height="23.9"/>
<rect x="47.8" y="143.4" class="st2" width="23.9" height="23.9"/>
<rect x="47.8" y="119.5" class="st1" width="23.9" height="23.9"/>
<rect x="47.8" y="95.6" class="st1" width="23.9" height="23.9"/>
<rect x="47.8" y="71.7" class="st1" width="23.9" height="23.9"/>
<rect x="47.8" y="47.8" class="st2" width="23.9" height="23.9"/>
<rect x="47.8" y="23.9" class="st2" width="23.9" height="23.9"/>
<rect x="47.8" y="0" class="st0" width="23.9" height="23.9"/>
<rect x="23.9" y="597.4" class="st0" width="23.9" height="23.9"/>
<rect x="23.9" y="573.5" class="st0" width="23.9" height="23.9"/>
<rect x="23.9" y="549.6" class="st2" width="23.9" height="23.9"/>
<rect x="23.9" y="525.7" class="st3" width="23.9" height="23.9"/>
<rect x="23.9" y="501.8" class="st1" width="23.9" height="23.9"/>
<rect x="23.9" y="477.9" class="st2" width="23.9" height="23.9"/>
<rect x="23.9" y="454" class="st2" width="23.9" height="23.9"/>
<rect x="23.9" y="430.1" class="st1" width="23.9" height="23.9"/>
<rect x="23.9" y="406.2" class="st1" width="23.9" height="23.9"/>
<rect x="23.9" y="382.4" class="st1" width="23.9" height="23.9"/>
<rect x="23.9" y="358.5" class="st2" width="23.9" height="23.9"/>
<rect x="23.9" y="334.5" class="st2" width="23.9" height="23.9"/>
<rect x="23.9" y="310.7" class="st1" width="23.9" height="23.9"/>
<rect x="23.9" y="286.8" class="st1" width="23.9" height="23.9"/>
<rect x="23.9" y="262.9" class="st1" width="23.9" height="23.9"/>
<rect x="23.9" y="239" class="st1" width="23.9" height="23.9"/>
<rect x="23.9" y="215.1" class="st1" width="23.9" height="23.9"/>
<rect x="23.9" y="191.2" class="st1" width="23.9" height="23.9"/>
<rect x="23.9" y="167.3" class="st2" width="23.9" height="23.9"/>
<rect x="23.9" y="143.4" class="st2" width="23.9" height="23.9"/>
<rect x="23.9" y="119.5" class="st1" width="23.9" height="23.9"/>
<rect x="23.9" y="95.6" class="st1" width="23.9" height="23.9"/>
<rect x="23.9" y="71.7" class="st4" width="23.9" height="23.9"/>
<rect x="23.9" y="47.8" class="st4" width="23.9" height="23.9"/>
<rect x="23.9" y="23.9" class="st1" width="23.9" height="23.9"/>
<rect x="23.9" y="0" class="st0" width="23.9" height="23.9"/>
<rect y="597.4" class="st0" width="23.9" height="23.9"/>
<rect y="573.5" class="st0" width="23.9" height="23.9"/>
<rect y="549.6" class="st0" width="23.9" height="23.9"/>
<rect y="525.7" class="st1" width="23.9" height="23.9"/>
<rect y="501.8" class="st1" width="23.9" height="23.9"/>
<rect y="477.9" class="st1" width="23.9" height="23.9"/>
<rect y="454" class="st1" width="23.9" height="23.9"/>
<rect y="430.1" class="st0" width="23.9" height="23.9"/>
<rect y="406.2" class="st0" width="23.9" height="23.9"/>
<rect y="382.4" class="st0" width="23.9" height="23.9"/>
<rect y="358.5" class="st0" width="23.9" height="23.9"/>
<rect y="334.5" class="st0" width="23.9" height="23.9"/>
<rect y="310.7" class="st0" width="23.9" height="23.9"/>
<rect y="286.8" class="st0" width="23.9" height="23.9"/>
<rect y="262.9" class="st0" width="23.9" height="23.9"/>
<rect y="239" class="st0" width="23.9" height="23.9"/>
<rect y="215.1" class="st0" width="23.9" height="23.9"/>
<rect y="191.2" class="st0" width="23.9" height="23.9"/>
<rect y="167.3" class="st0" width="23.9" height="23.9"/>
<rect y="143.4" class="st0" width="23.9" height="23.9"/>
<rect y="119.5" class="st0" width="23.9" height="23.9"/>
<rect y="95.6" class="st0" width="23.9" height="23.9"/>
<rect y="71.7" class="st0" width="23.9" height="23.9"/>
<rect y="47.8" class="st0" width="23.9" height="23.9"/>
<rect y="23.9" class="st0" width="23.9" height="23.9"/>
<rect y="0" class="st0" width="23.9" height="23.9"/>
</svg>
