<svg id="Ebene_1" data-name="Ebene 1" xmlns="http://www.w3.org/2000/svg" viewBox="0 0 597.42 621.31"><defs><style>.cls-1{fill:#666;}.cls-2{fill:#757575;}.cls-3{fill:#333;}.cls-4{fill:#1a1a1a;}.cls-5{fill:#4d4d4d;}</style></defs><rect class="cls-1" x="573.52" y="597.42" width="23.9" height="23.89"/><rect class="cls-1" x="573.52" y="573.52" width="23.9" height="23.9"/><rect class="cls-1" x="573.52" y="549.62" width="23.9" height="23.9"/><rect class="cls-1" x="573.52" y="525.73" width="23.9" height="23.89"/><rect class="cls-1" x="573.52" y="501.83" width="23.9" height="23.9"/><rect class="cls-1" x="573.52" y="477.93" width="23.9" height="23.9"/><rect class="cls-1" x="573.52" y="454.04" width="23.9" height="23.89"/><rect class="cls-2" x="573.52" y="430.14" width="23.9" height="23.9"/><rect class="cls-2" x="573.52" y="406.24" width="23.9" height="23.9"/><rect class="cls-1" x="573.52" y="382.35" width="23.9" height="23.89"/><rect class="cls-1" x="573.52" y="358.45" width="23.9" height="23.9"/><rect class="cls-1" x="573.52" y="334.55" width="23.9" height="23.9"/><rect class="cls-1" x="573.52" y="310.66" width="23.9" height="23.89"/><rect class="cls-1" x="573.52" y="286.76" width="23.9" height="23.9"/><rect class="cls-1" x="573.52" y="262.87" width="23.9" height="23.89"/><rect class="cls-1" x="573.52" y="238.97" width="23.9" height="23.9"/><rect class="cls-1" x="573.52" y="215.07" width="23.9" height="23.9"/><rect class="cls-1" x="573.52" y="191.18" width="23.9" height="23.89"/><rect class="cls-1" x="573.52" y="167.28" width="23.9" height="23.9"/><rect class="cls-1" x="573.52" y="143.38" width="23.9" height="23.9"/><rect class="cls-1" x="573.52" y="119.49" width="23.9" height="23.89"/><rect class="cls-1" x="573.52" y="95.59" width="23.9" height="23.9"/><rect class="cls-2" x="573.52" y="71.69" width="23.9" height="23.9"/><rect class="cls-1" x="573.52" y="47.8" width="23.9" height="23.89"/><rect class="cls-1" x="573.52" y="23.9" width="23.9" height="23.9"/><rect class="cls-1" x="573.52" width="23.9" height="23.9"/><rect class="cls-1" x="549.62" y="597.42" width="23.9" height="23.89"/><rect class="cls-2" x="549.62" y="573.52" width="23.9" height="23.9"/><rect class="cls-2" x="549.62" y="549.62" width="23.9" height="23.9"/><rect class="cls-2" x="549.62" y="525.73" width="23.9" height="23.89"/><rect class="cls-2" x="549.62" y="501.83" width="23.9" height="23.9"/><rect class="cls-2" x="549.62" y="477.93" width="23.9" height="23.9"/><rect class="cls-2" x="549.62" y="454.04" width="23.9" height="23.89"/><rect class="cls-3" x="549.62" y="430.14" width="23.9" height="23.9"/><rect class="cls-3" x="549.62" y="406.24" width="23.9" height="23.9"/><rect class="cls-3" x="549.62" y="382.35" width="23.9" height="23.89"/><rect class="cls-3" x="549.62" y="358.45" width="23.9" height="23.9"/><rect class="cls-3" x="549.62" y="334.55" width="23.9" height="23.9"/><rect class="cls-2" x="549.62" y="310.66" width="23.9" height="23.89"/><rect class="cls-2" x="549.62" y="286.76" width="23.9" height="23.9"/><rect class="cls-2" x="549.62" y="262.87" width="23.9" height="23.89"/><rect class="cls-3" x="549.62" y="238.97" width="23.9" height="23.9"/><rect class="cls-2" x="549.62" y="215.07" width="23.9" height="23.9"/><rect class="cls-2" x="549.62" y="191.18" width="23.9" height="23.89"/><rect class="cls-2" x="549.62" y="167.28" width="23.9" height="23.9"/><rect class="cls-2" x="549.62" y="143.38" width="23.9" height="23.9"/><rect class="cls-2" x="549.62" y="119.49" width="23.9" height="23.89"/><rect class="cls-3" x="549.62" y="95.59" width="23.9" height="23.9"/><rect class="cls-3" x="549.62" y="71.69" width="23.9" height="23.9"/><rect class="cls-4" x="549.62" y="47.8" width="23.9" height="23.89"/><rect class="cls-4" x="549.62" y="23.9" width="23.9" height="23.9"/><rect class="cls-1" x="549.62" width="23.9" height="23.9"/><rect class="cls-1" x="525.73" y="597.42" width="23.89" height="23.89"/><rect class="cls-2" x="525.73" y="573.52" width="23.89" height="23.9"/><rect class="cls-2" x="525.73" y="549.62" width="23.89" height="23.9"/><rect class="cls-2" x="525.73" y="525.73" width="23.89" height="23.89"/><rect class="cls-3" x="525.73" y="501.83" width="23.89" height="23.9"/><rect class="cls-3" x="525.73" y="477.93" width="23.89" height="23.9"/><rect class="cls-3" x="525.73" y="454.04" width="23.89" height="23.89"/><rect class="cls-2" x="525.73" y="430.14" width="23.89" height="23.9"/><rect class="cls-2" x="525.73" y="406.24" width="23.89" height="23.9"/><rect class="cls-2" x="525.73" y="382.35" width="23.89" height="23.89"/><rect class="cls-3" x="525.73" y="358.45" width="23.89" height="23.9"/><rect class="cls-2" x="525.73" y="334.55" width="23.89" height="23.9"/><rect class="cls-2" x="525.73" y="310.66" width="23.89" height="23.89"/><rect class="cls-2" x="525.73" y="286.76" width="23.89" height="23.9"/><rect class="cls-2" x="525.73" y="262.87" width="23.89" height="23.89"/><rect class="cls-3" x="525.73" y="238.97" width="23.89" height="23.9"/><rect class="cls-2" x="525.73" y="215.07" width="23.89" height="23.9"/><rect class="cls-3" x="525.73" y="191.18" width="23.89" height="23.89"/><rect class="cls-2" x="525.73" y="167.28" width="23.89" height="23.9"/><rect class="cls-2" x="525.73" y="143.38" width="23.89" height="23.9"/><rect class="cls-5" x="525.73" y="119.49" width="23.89" height="23.89"/><rect class="cls-3" x="525.73" y="95.59" width="23.89" height="23.9"/><rect class="cls-2" x="525.73" y="71.69" width="23.89" height="23.9"/><rect class="cls-3" x="525.73" y="47.8" width="23.89" height="23.89"/><rect class="cls-4" x="525.73" y="23.9" width="23.89" height="23.9"/><rect class="cls-1" x="525.73" width="23.89" height="23.9"/><rect class="cls-1" x="501.83" y="597.42" width="23.9" height="23.89"/><rect class="cls-2" x="501.83" y="573.52" width="23.9" height="23.9"/><rect class="cls-2" x="501.83" y="549.62" width="23.9" height="23.9"/><rect class="cls-3" x="501.83" y="525.73" width="23.9" height="23.89"/><rect class="cls-3" x="501.83" y="501.83" width="23.9" height="23.9"/><rect class="cls-4" x="501.83" y="477.93" width="23.9" height="23.9"/><rect class="cls-2" x="501.83" y="454.04" width="23.9" height="23.89"/><rect class="cls-2" x="501.83" y="430.14" width="23.9" height="23.9"/><rect class="cls-3" x="501.83" y="406.24" width="23.9" height="23.9"/><rect class="cls-2" x="501.83" y="382.35" width="23.9" height="23.89"/><rect class="cls-2" x="501.83" y="358.45" width="23.9" height="23.9"/><rect class="cls-2" x="501.83" y="334.55" width="23.9" height="23.9"/><rect class="cls-4" x="501.83" y="310.66" width="23.9" height="23.89"/><rect class="cls-4" x="501.83" y="286.76" width="23.9" height="23.9"/><rect class="cls-2" x="501.83" y="262.87" width="23.9" height="23.89"/><rect class="cls-3" x="501.83" y="238.97" width="23.9" height="23.9"/><rect class="cls-3" x="501.83" y="215.07" width="23.9" height="23.9"/><rect class="cls-3" x="501.83" y="191.18" width="23.9" height="23.89"/><rect class="cls-2" x="501.83" y="167.28" width="23.9" height="23.9"/><rect class="cls-4" x="501.83" y="143.38" width="23.9" height="23.9"/><rect class="cls-5" x="501.83" y="119.49" width="23.9" height="23.89"/><rect class="cls-2" x="501.83" y="95.59" width="23.9" height="23.9"/><rect class="cls-2" x="501.83" y="71.69" width="23.9" height="23.9"/><rect class="cls-2" x="501.83" y="47.8" width="23.9" height="23.89"/><rect class="cls-4" x="501.83" y="23.9" width="23.9" height="23.9"/><rect class="cls-1" x="501.83" width="23.9" height="23.9"/><rect class="cls-1" x="477.93" y="597.42" width="23.9" height="23.89"/><rect class="cls-3" x="477.93" y="573.52" width="23.9" height="23.9"/><rect class="cls-3" x="477.93" y="549.62" width="23.9" height="23.9"/><rect class="cls-2" x="477.93" y="525.73" width="23.9" height="23.89"/><rect class="cls-4" x="477.93" y="501.83" width="23.9" height="23.9"/><rect class="cls-3" x="477.93" y="477.93" width="23.9" height="23.9"/><rect class="cls-3" x="477.93" y="454.04" width="23.9" height="23.89"/><rect class="cls-2" x="477.93" y="430.14" width="23.9" height="23.9"/><rect class="cls-3" x="477.93" y="406.24" width="23.9" height="23.9"/><rect class="cls-2" x="477.93" y="382.35" width="23.9" height="23.89"/><rect class="cls-4" x="477.93" y="358.45" width="23.9" height="23.9"/><rect class="cls-4" x="477.93" y="334.55" width="23.9" height="23.9"/><rect class="cls-4" x="477.93" y="310.66" width="23.9" height="23.89"/><rect class="cls-2" x="477.93" y="286.76" width="23.9" height="23.9"/><rect class="cls-2" x="477.93" y="262.87" width="23.9" height="23.89"/><rect class="cls-5" x="477.93" y="238.97" width="23.9" height="23.9"/><rect class="cls-2" x="477.93" y="215.07" width="23.9" height="23.9"/><rect class="cls-4" x="477.93" y="191.18" width="23.9" height="23.89"/><rect class="cls-4" x="477.93" y="167.28" width="23.9" height="23.9"/><rect class="cls-4" x="477.93" y="143.38" width="23.9" height="23.9"/><rect class="cls-4" x="477.93" y="119.49" width="23.9" height="23.89"/><rect class="cls-4" x="477.93" y="95.59" width="23.9" height="23.9"/><rect class="cls-2" x="477.93" y="71.69" width="23.9" height="23.9"/><rect class="cls-2" x="477.93" y="47.8" width="23.9" height="23.89"/><rect class="cls-3" x="477.93" y="23.9" width="23.9" height="23.9"/><rect class="cls-1" x="477.93" width="23.9" height="23.9"/><rect class="cls-1" x="454.04" y="597.42" width="23.89" height="23.89"/><rect class="cls-3" x="454.04" y="573.52" width="23.89" height="23.9"/><rect class="cls-2" x="454.04" y="549.62" width="23.89" height="23.9"/><rect class="cls-2" x="454.04" y="525.73" width="23.89" height="23.89"/><rect class="cls-2" x="454.04" y="501.83" width="23.89" height="23.9"/><rect class="cls-2" x="454.04" y="477.93" width="23.89" height="23.9"/><rect class="cls-2" x="454.04" y="454.04" width="23.89" height="23.89"/><rect class="cls-3" x="454.04" y="430.14" width="23.89" height="23.9"/><rect class="cls-3" x="454.04" y="406.24" width="23.89" height="23.9"/><rect class="cls-2" x="454.04" y="382.35" width="23.89" height="23.89"/><rect class="cls-4" x="454.04" y="358.45" width="23.89" height="23.9"/><rect class="cls-3" x="454.04" y="334.55" width="23.89" height="23.9"/><rect class="cls-3" x="454.04" y="310.66" width="23.89" height="23.89"/><rect class="cls-2" x="454.04" y="286.76" width="23.89" height="23.9"/><rect class="cls-2" x="454.04" y="262.87" width="23.89" height="23.89"/><rect class="cls-5" x="454.04" y="238.97" width="23.89" height="23.9"/><rect class="cls-5" x="454.04" y="215.07" width="23.89" height="23.9"/><rect class="cls-4" x="454.04" y="191.18" width="23.89" height="23.89"/><rect class="cls-4" x="454.04" y="167.28" width="23.89" height="23.9"/><rect class="cls-2" x="454.04" y="143.38" width="23.89" height="23.9"/><rect class="cls-4" x="454.04" y="119.49" width="23.89" height="23.89"/><rect class="cls-2" x="454.04" y="95.59" width="23.89" height="23.9"/><rect class="cls-3" x="454.04" y="71.69" width="23.89" height="23.9"/><rect class="cls-3" x="454.04" y="47.8" width="23.89" height="23.89"/><rect class="cls-3" x="454.04" y="23.9" width="23.89" height="23.9"/><rect class="cls-1" x="454.04" width="23.89" height="23.9"/><rect class="cls-1" x="430.14" y="597.42" width="23.9" height="23.89"/><rect class="cls-2" x="430.14" y="573.52" width="23.9" height="23.9"/><rect class="cls-2" x="430.14" y="549.62" width="23.9" height="23.9"/><rect class="cls-3" x="430.14" y="525.73" width="23.9" height="23.89"/><rect class="cls-3" x="430.14" y="501.83" width="23.9" height="23.9"/><rect class="cls-2" x="430.14" y="477.93" width="23.9" height="23.9"/><rect class="cls-2" x="430.14" y="454.04" width="23.9" height="23.89"/><rect class="cls-2" x="430.14" y="430.14" width="23.9" height="23.9"/><rect class="cls-2" x="430.14" y="406.24" width="23.9" height="23.9"/><rect class="cls-2" x="430.14" y="382.35" width="23.9" height="23.89"/><rect class="cls-3" x="430.14" y="358.45" width="23.9" height="23.9"/><rect class="cls-2" x="430.14" y="334.55" width="23.9" height="23.9"/><rect class="cls-2" x="430.14" y="310.66" width="23.9" height="23.89"/><rect class="cls-2" x="430.14" y="286.76" width="23.9" height="23.9"/><rect class="cls-3" x="430.14" y="262.87" width="23.9" height="23.89"/><rect class="cls-2" x="430.14" y="238.97" width="23.9" height="23.9"/><rect class="cls-2" x="430.14" y="215.07" width="23.9" height="23.9"/><rect class="cls-3" x="430.14" y="191.18" width="23.9" height="23.89"/><rect class="cls-3" x="430.14" y="167.28" width="23.9" height="23.9"/><rect class="cls-2" x="430.14" y="143.38" width="23.9" height="23.9"/><rect class="cls-3" x="430.14" y="119.49" width="23.9" height="23.89"/><rect class="cls-5" x="430.14" y="95.59" width="23.9" height="23.9"/><rect class="cls-5" x="430.14" y="71.69" width="23.9" height="23.9"/><rect class="cls-2" x="430.14" y="47.8" width="23.9" height="23.89"/><rect class="cls-2" x="430.14" y="23.9" width="23.9" height="23.9"/><rect class="cls-1" x="430.14" width="23.9" height="23.9"/><rect class="cls-1" x="406.24" y="597.42" width="23.9" height="23.89"/><rect class="cls-2" x="406.24" y="573.52" width="23.9" height="23.9"/><rect class="cls-2" x="406.24" y="549.62" width="23.9" height="23.9"/><rect class="cls-2" x="406.24" y="525.73" width="23.9" height="23.89"/><rect class="cls-2" x="406.24" y="501.83" width="23.9" height="23.9"/><rect class="cls-3" x="406.24" y="477.93" width="23.9" height="23.9"/><rect class="cls-3" x="406.24" y="454.04" width="23.9" height="23.89"/><rect class="cls-4" x="406.24" y="430.14" width="23.9" height="23.9"/><rect class="cls-4" x="406.24" y="406.24" width="23.9" height="23.9"/><rect class="cls-5" x="406.24" y="382.35" width="23.9" height="23.89"/><rect class="cls-2" x="406.24" y="358.45" width="23.9" height="23.9"/><rect class="cls-3" x="406.24" y="334.55" width="23.9" height="23.9"/><rect class="cls-2" x="406.24" y="310.66" width="23.9" height="23.89"/><rect class="cls-3" x="406.24" y="286.76" width="23.9" height="23.9"/><rect class="cls-4" x="406.24" y="262.87" width="23.9" height="23.89"/><rect class="cls-4" x="406.24" y="238.97" width="23.9" height="23.9"/><rect class="cls-3" x="406.24" y="215.07" width="23.9" height="23.9"/><rect class="cls-3" x="406.24" y="191.18" width="23.9" height="23.89"/><rect class="cls-2" x="406.24" y="167.28" width="23.9" height="23.9"/><rect class="cls-2" x="406.24" y="143.38" width="23.9" height="23.9"/><rect class="cls-2" x="406.24" y="119.49" width="23.9" height="23.89"/><rect class="cls-2" x="406.24" y="95.59" width="23.9" height="23.9"/><rect class="cls-2" x="406.24" y="71.69" width="23.9" height="23.9"/><rect class="cls-2" x="406.24" y="47.8" width="23.9" height="23.89"/><rect class="cls-2" x="406.24" y="23.9" width="23.9" height="23.9"/><rect class="cls-1" x="406.24" width="23.9" height="23.9"/><rect class="cls-1" x="382.35" y="597.42" width="23.89" height="23.89"/><rect class="cls-2" x="382.35" y="573.52" width="23.89" height="23.9"/><rect class="cls-2" x="382.35" y="549.62" width="23.89" height="23.9"/><rect class="cls-3" x="382.35" y="525.73" width="23.89" height="23.89"/><rect class="cls-3" x="382.35" y="501.83" width="23.89" height="23.9"/><rect class="cls-2" x="382.35" y="477.93" width="23.89" height="23.9"/><rect class="cls-4" x="382.35" y="454.04" width="23.89" height="23.89"/><rect class="cls-3" x="382.35" y="430.14" width="23.89" height="23.9"/><rect class="cls-5" x="382.35" y="406.24" width="23.89" height="23.9"/><rect class="cls-3" x="382.35" y="382.35" width="23.89" height="23.89"/><rect class="cls-3" x="382.35" y="358.45" width="23.89" height="23.9"/><rect class="cls-3" x="382.35" y="334.55" width="23.89" height="23.9"/><rect class="cls-5" x="382.35" y="310.66" width="23.89" height="23.89"/><rect class="cls-3" x="382.35" y="286.76" width="23.89" height="23.9"/><rect class="cls-4" x="382.35" y="262.87" width="23.89" height="23.89"/><rect class="cls-2" x="382.35" y="238.97" width="23.89" height="23.9"/><rect class="cls-2" x="382.35" y="215.07" width="23.89" height="23.9"/><rect class="cls-2" x="382.35" y="191.18" width="23.89" height="23.89"/><rect class="cls-5" x="382.35" y="167.28" width="23.89" height="23.9"/><rect class="cls-2" x="382.35" y="143.38" width="23.89" height="23.9"/><rect class="cls-2" x="382.35" y="119.49" width="23.89" height="23.89"/><rect class="cls-2" x="382.35" y="95.59" width="23.89" height="23.9"/><rect class="cls-4" x="382.35" y="71.69" width="23.89" height="23.9"/><rect class="cls-5" x="382.35" y="47.8" width="23.89" height="23.89"/><rect class="cls-2" x="382.35" y="23.9" width="23.89" height="23.9"/><rect class="cls-2" x="382.35" width="23.89" height="23.9"/><rect class="cls-1" x="358.45" y="597.42" width="23.9" height="23.89"/><rect class="cls-2" x="358.45" y="573.52" width="23.9" height="23.9"/><rect class="cls-2" x="358.45" y="549.62" width="23.9" height="23.9"/><rect class="cls-2" x="358.45" y="525.73" width="23.9" height="23.89"/><rect class="cls-4" x="358.45" y="501.83" width="23.9" height="23.9"/><rect class="cls-4" x="358.45" y="477.93" width="23.9" height="23.9"/><rect class="cls-2" x="358.45" y="454.04" width="23.9" height="23.89"/><rect class="cls-2" x="358.45" y="430.14" width="23.9" height="23.9"/><rect class="cls-5" x="358.45" y="406.24" width="23.9" height="23.9"/><rect class="cls-2" x="358.45" y="382.35" width="23.9" height="23.89"/><rect class="cls-3" x="358.45" y="358.45" width="23.9" height="23.9"/><rect class="cls-3" x="358.45" y="334.55" width="23.9" height="23.9"/><rect class="cls-2" x="358.45" y="310.66" width="23.9" height="23.89"/><rect class="cls-2" x="358.45" y="286.76" width="23.9" height="23.9"/><rect class="cls-2" x="358.45" y="262.87" width="23.9" height="23.89"/><rect class="cls-2" x="358.45" y="238.97" width="23.9" height="23.9"/><rect class="cls-2" x="358.45" y="215.07" width="23.9" height="23.9"/><rect class="cls-2" x="358.45" y="191.18" width="23.9" height="23.89"/><rect class="cls-2" x="358.45" y="167.28" width="23.9" height="23.9"/><rect class="cls-4" x="358.45" y="143.38" width="23.9" height="23.9"/><rect class="cls-4" x="358.45" y="119.49" width="23.9" height="23.89"/><rect class="cls-3" x="358.45" y="95.59" width="23.9" height="23.9"/><rect class="cls-3" x="358.45" y="71.69" width="23.9" height="23.9"/><rect class="cls-2" x="358.45" y="47.8" width="23.9" height="23.89"/><rect class="cls-2" x="358.45" y="23.9" width="23.9" height="23.9"/><rect class="cls-2" x="358.45" width="23.9" height="23.9"/><rect class="cls-1" x="334.55" y="597.42" width="23.9" height="23.89"/><rect class="cls-3" x="334.55" y="573.52" width="23.9" height="23.9"/><rect class="cls-2" x="334.55" y="549.62" width="23.9" height="23.9"/><rect class="cls-2" x="334.55" y="525.73" width="23.9" height="23.89"/><rect class="cls-3" x="334.55" y="501.83" width="23.9" height="23.9"/><rect class="cls-3" x="334.55" y="477.93" width="23.9" height="23.9"/><rect class="cls-2" x="334.55" y="454.04" width="23.9" height="23.89"/><rect class="cls-3" x="334.55" y="430.14" width="23.9" height="23.9"/><rect class="cls-5" x="334.55" y="406.24" width="23.9" height="23.9"/><rect class="cls-2" x="334.55" y="382.35" width="23.9" height="23.89"/><rect class="cls-2" x="334.55" y="358.45" width="23.9" height="23.9"/><rect class="cls-2" x="334.55" y="334.55" width="23.9" height="23.9"/><rect class="cls-2" x="334.55" y="310.66" width="23.9" height="23.89"/><rect class="cls-3" x="334.55" y="286.76" width="23.9" height="23.9"/><rect class="cls-5" x="334.55" y="262.87" width="23.9" height="23.89"/><rect class="cls-5" x="334.55" y="238.97" width="23.9" height="23.9"/><rect class="cls-4" x="334.55" y="215.07" width="23.9" height="23.9"/><rect class="cls-4" x="334.55" y="191.18" width="23.9" height="23.89"/><rect class="cls-4" x="334.55" y="167.28" width="23.9" height="23.9"/><rect class="cls-3" x="334.55" y="143.38" width="23.9" height="23.9"/><rect class="cls-5" x="334.55" y="119.49" width="23.9" height="23.89"/><rect class="cls-5" x="334.55" y="95.59" width="23.9" height="23.9"/><rect class="cls-4" x="334.55" y="71.69" width="23.9" height="23.9"/><rect class="cls-2" x="334.55" y="47.8" width="23.9" height="23.89"/><rect class="cls-1" x="334.55" y="23.9" width="23.9" height="23.9"/><rect class="cls-1" x="334.55" width="23.9" height="23.9"/><rect class="cls-1" x="310.66" y="597.42" width="23.89" height="23.89"/><rect class="cls-3" x="310.66" y="573.52" width="23.89" height="23.9"/><rect class="cls-2" x="310.66" y="549.62" width="23.89" height="23.9"/><rect class="cls-2" x="310.66" y="525.73" width="23.89" height="23.89"/><rect class="cls-3" x="310.66" y="501.83" width="23.89" height="23.9"/><rect class="cls-2" x="310.66" y="477.93" width="23.89" height="23.9"/><rect class="cls-3" x="310.66" y="454.04" width="23.89" height="23.89"/><rect class="cls-2" x="310.66" y="430.14" width="23.89" height="23.9"/><rect class="cls-2" x="310.66" y="406.24" width="23.89" height="23.9"/><rect class="cls-2" x="310.66" y="382.35" width="23.89" height="23.89"/><rect class="cls-3" x="310.66" y="358.45" width="23.89" height="23.9"/><rect class="cls-2" x="310.66" y="334.55" width="23.89" height="23.9"/><rect class="cls-2" x="310.66" y="310.66" width="23.89" height="23.89"/><rect class="cls-3" x="310.66" y="286.76" width="23.89" height="23.9"/><rect class="cls-3" x="310.66" y="262.87" width="23.89" height="23.89"/><rect class="cls-2" x="310.66" y="238.97" width="23.89" height="23.9"/><rect class="cls-3" x="310.66" y="215.07" width="23.89" height="23.9"/><rect class="cls-2" x="310.66" y="191.18" width="23.89" height="23.89"/><rect class="cls-2" x="310.66" y="167.28" width="23.89" height="23.9"/><rect class="cls-4" x="310.66" y="143.38" width="23.89" height="23.9"/><rect class="cls-4" x="310.66" y="119.49" width="23.89" height="23.89"/><rect class="cls-5" x="310.66" y="95.59" width="23.89" height="23.9"/><rect class="cls-5" x="310.66" y="71.69" width="23.89" height="23.9"/><rect class="cls-2" x="310.66" y="47.8" width="23.89" height="23.89"/><rect class="cls-1" x="310.66" y="23.9" width="23.89" height="23.9"/><rect class="cls-1" x="310.66" width="23.89" height="23.9"/><rect class="cls-1" x="286.76" y="597.42" width="23.9" height="23.89"/><rect class="cls-2" x="286.76" y="573.52" width="23.9" height="23.9"/><rect class="cls-2" x="286.76" y="549.62" width="23.9" height="23.9"/><rect class="cls-3" x="286.76" y="525.73" width="23.9" height="23.89"/><rect class="cls-2" x="286.76" y="501.83" width="23.9" height="23.9"/><rect class="cls-2" x="286.76" y="477.93" width="23.9" height="23.9"/><rect class="cls-2" x="286.76" y="454.04" width="23.9" height="23.89"/><rect class="cls-2" x="286.76" y="430.14" width="23.9" height="23.9"/><rect class="cls-2" x="286.76" y="406.24" width="23.9" height="23.9"/><rect class="cls-2" x="286.76" y="382.35" width="23.9" height="23.89"/><rect class="cls-2" x="286.76" y="358.45" width="23.9" height="23.9"/><rect class="cls-4" x="286.76" y="334.55" width="23.9" height="23.9"/><rect class="cls-4" x="286.76" y="310.66" width="23.9" height="23.89"/><rect class="cls-2" x="286.76" y="286.76" width="23.9" height="23.9"/><rect class="cls-2" x="286.76" y="262.87" width="23.9" height="23.89"/><rect class="cls-2" x="286.76" y="238.97" width="23.9" height="23.9"/><rect class="cls-5" x="286.76" y="215.07" width="23.9" height="23.9"/><rect class="cls-5" x="286.76" y="191.18" width="23.9" height="23.89"/><rect class="cls-5" x="286.76" y="167.28" width="23.9" height="23.9"/><rect class="cls-2" x="286.76" y="143.38" width="23.9" height="23.9"/><rect class="cls-2" x="286.76" y="119.49" width="23.9" height="23.89"/><rect class="cls-3" x="286.76" y="95.59" width="23.9" height="23.9"/><rect class="cls-5" x="286.76" y="71.69" width="23.9" height="23.9"/><rect class="cls-2" x="286.76" y="47.8" width="23.9" height="23.89"/><rect class="cls-1" x="286.76" y="23.9" width="23.9" height="23.9"/><rect class="cls-1" x="286.76" width="23.9" height="23.9"/><rect class="cls-2" x="262.87" y="597.42" width="23.89" height="23.89"/><rect class="cls-2" x="262.87" y="573.52" width="23.89" height="23.9"/><rect class="cls-2" x="262.87" y="549.62" width="23.89" height="23.9"/><rect class="cls-2" x="262.87" y="525.73" width="23.89" height="23.89"/><rect class="cls-2" x="262.87" y="501.83" width="23.89" height="23.9"/><rect class="cls-3" x="262.87" y="477.93" width="23.89" height="23.9"/><rect class="cls-2" x="262.87" y="454.04" width="23.89" height="23.89"/><rect class="cls-2" x="262.87" y="430.14" width="23.89" height="23.9"/><rect class="cls-3" x="262.87" y="406.24" width="23.89" height="23.9"/><rect class="cls-2" x="262.87" y="382.35" width="23.89" height="23.89"/><rect class="cls-2" x="262.87" y="358.45" width="23.89" height="23.9"/><rect class="cls-4" x="262.87" y="334.55" width="23.89" height="23.9"/><rect class="cls-3" x="262.87" y="310.66" width="23.89" height="23.89"/><rect class="cls-2" x="262.87" y="286.76" width="23.89" height="23.9"/><rect class="cls-2" x="262.87" y="262.87" width="23.89" height="23.89"/><rect class="cls-2" x="262.87" y="238.97" width="23.89" height="23.9"/><rect class="cls-2" x="262.87" y="215.07" width="23.89" height="23.9"/><rect class="cls-2" x="262.87" y="191.18" width="23.89" height="23.89"/><rect class="cls-2" x="262.87" y="167.28" width="23.89" height="23.9"/><rect class="cls-2" x="262.87" y="143.38" width="23.89" height="23.9"/><rect class="cls-2" x="262.87" y="119.49" width="23.89" height="23.89"/><rect class="cls-2" x="262.87" y="95.59" width="23.89" height="23.9"/><rect class="cls-2" x="262.87" y="71.69" width="23.89" height="23.9"/><rect class="cls-4" x="262.87" y="47.8" width="23.89" height="23.89"/><rect class="cls-1" x="262.87" y="23.9" width="23.89" height="23.9"/><rect class="cls-1" x="262.87" width="23.89" height="23.9"/><rect class="cls-2" x="238.97" y="597.42" width="23.9" height="23.89"/><rect class="cls-2" x="238.97" y="573.52" width="23.9" height="23.9"/><rect class="cls-2" x="238.97" y="549.62" width="23.9" height="23.9"/><rect class="cls-2" x="238.97" y="525.73" width="23.9" height="23.89"/><rect class="cls-2" x="238.97" y="501.83" width="23.9" height="23.9"/><rect class="cls-2" x="238.97" y="477.93" width="23.9" height="23.9"/><rect class="cls-5" x="238.97" y="454.04" width="23.9" height="23.89"/><rect class="cls-5" x="238.97" y="430.14" width="23.9" height="23.9"/><rect class="cls-3" x="238.97" y="406.24" width="23.9" height="23.9"/><rect class="cls-2" x="238.97" y="382.35" width="23.9" height="23.89"/><rect class="cls-2" x="238.97" y="358.45" width="23.9" height="23.9"/><rect class="cls-4" x="238.97" y="334.55" width="23.9" height="23.9"/><rect class="cls-4" x="238.97" y="310.66" width="23.9" height="23.89"/><rect class="cls-4" x="238.97" y="286.76" width="23.9" height="23.9"/><rect class="cls-5" x="238.97" y="262.87" width="23.9" height="23.89"/><rect class="cls-3" x="238.97" y="238.97" width="23.9" height="23.9"/><rect class="cls-3" x="238.97" y="215.07" width="23.9" height="23.9"/><rect class="cls-2" x="238.97" y="191.18" width="23.9" height="23.89"/><rect class="cls-3" x="238.97" y="167.28" width="23.9" height="23.9"/><rect class="cls-3" x="238.97" y="143.38" width="23.9" height="23.9"/><rect class="cls-3" x="238.97" y="119.49" width="23.9" height="23.89"/><rect class="cls-2" x="238.97" y="95.59" width="23.9" height="23.9"/><rect class="cls-2" x="238.97" y="71.69" width="23.9" height="23.9"/><rect class="cls-4" x="238.97" y="47.8" width="23.9" height="23.89"/><rect class="cls-1" x="238.97" y="23.9" width="23.9" height="23.9"/><rect class="cls-1" x="238.97" width="23.9" height="23.9"/><rect class="cls-2" x="215.07" y="597.42" width="23.9" height="23.89"/><rect class="cls-2" x="215.07" y="573.52" width="23.9" height="23.9"/><rect class="cls-2" x="215.07" y="549.62" width="23.9" height="23.9"/><rect class="cls-3" x="215.07" y="525.73" width="23.9" height="23.89"/><rect class="cls-3" x="215.07" y="501.83" width="23.9" height="23.9"/><rect class="cls-3" x="215.07" y="477.93" width="23.9" height="23.9"/><rect class="cls-3" x="215.07" y="454.04" width="23.9" height="23.89"/><rect class="cls-3" x="215.07" y="430.14" width="23.9" height="23.9"/><rect class="cls-4" x="215.07" y="406.24" width="23.9" height="23.9"/><rect class="cls-2" x="215.07" y="382.35" width="23.9" height="23.89"/><rect class="cls-3" x="215.07" y="358.45" width="23.9" height="23.9"/><rect class="cls-3" x="215.07" y="334.55" width="23.9" height="23.9"/><rect class="cls-4" x="215.07" y="310.66" width="23.9" height="23.89"/><rect class="cls-2" x="215.07" y="286.76" width="23.9" height="23.9"/><rect class="cls-5" x="215.07" y="262.87" width="23.9" height="23.89"/><rect class="cls-3" x="215.07" y="238.97" width="23.9" height="23.9"/><rect class="cls-2" x="215.07" y="215.07" width="23.9" height="23.9"/><rect class="cls-2" x="215.07" y="191.18" width="23.9" height="23.89"/><rect class="cls-3" x="215.07" y="167.28" width="23.9" height="23.9"/><rect class="cls-3" x="215.07" y="143.38" width="23.9" height="23.9"/><rect class="cls-3" x="215.07" y="119.49" width="23.9" height="23.89"/><rect class="cls-3" x="215.07" y="95.59" width="23.9" height="23.9"/><rect class="cls-4" x="215.07" y="71.69" width="23.9" height="23.9"/><rect class="cls-2" x="215.07" y="47.8" width="23.9" height="23.89"/><rect class="cls-1" x="215.07" y="23.9" width="23.9" height="23.9"/><rect class="cls-1" x="215.07" width="23.9" height="23.9"/><rect class="cls-1" x="191.18" y="597.42" width="23.89" height="23.89"/><rect class="cls-2" x="191.18" y="573.52" width="23.89" height="23.9"/><rect class="cls-2" x="191.18" y="549.62" width="23.89" height="23.9"/><rect class="cls-3" x="191.18" y="525.73" width="23.89" height="23.89"/><rect class="cls-4" x="191.18" y="501.83" width="23.89" height="23.9"/><rect class="cls-2" x="191.18" y="477.93" width="23.89" height="23.9"/><rect class="cls-4" x="191.18" y="454.04" width="23.89" height="23.89"/><rect class="cls-4" x="191.18" y="430.14" width="23.89" height="23.9"/><rect class="cls-4" x="191.18" y="406.24" width="23.89" height="23.9"/><rect class="cls-3" x="191.18" y="382.35" width="23.89" height="23.89"/><rect class="cls-3" x="191.18" y="358.45" width="23.89" height="23.9"/><rect class="cls-3" x="191.18" y="334.55" width="23.89" height="23.9"/><rect class="cls-2" x="191.18" y="310.66" width="23.89" height="23.89"/><rect class="cls-3" x="191.18" y="286.76" width="23.89" height="23.9"/><rect class="cls-3" x="191.18" y="262.87" width="23.89" height="23.89"/><rect class="cls-2" x="191.18" y="238.97" width="23.89" height="23.9"/><rect class="cls-2" x="191.18" y="215.07" width="23.89" height="23.9"/><rect class="cls-2" x="191.18" y="191.18" width="23.89" height="23.89"/><rect class="cls-4" x="191.18" y="167.28" width="23.89" height="23.9"/><rect class="cls-2" x="191.18" y="143.38" width="23.89" height="23.9"/><rect class="cls-2" x="191.18" y="119.49" width="23.89" height="23.89"/><rect class="cls-2" x="191.18" y="95.59" width="23.89" height="23.9"/><rect class="cls-2" x="191.18" y="71.69" width="23.89" height="23.9"/><rect class="cls-3" x="191.18" y="47.8" width="23.89" height="23.89"/><rect class="cls-1" x="191.18" y="23.9" width="23.89" height="23.9"/><rect class="cls-2" x="191.18" width="23.89" height="23.9"/><rect class="cls-1" x="167.28" y="597.42" width="23.9" height="23.89"/><rect class="cls-2" x="167.28" y="573.52" width="23.9" height="23.9"/><rect class="cls-3" x="167.28" y="549.62" width="23.9" height="23.9"/><rect class="cls-3" x="167.28" y="525.73" width="23.9" height="23.89"/><rect class="cls-5" x="167.28" y="501.83" width="23.9" height="23.9"/><rect class="cls-2" x="167.28" y="477.93" width="23.9" height="23.9"/><rect class="cls-2" x="167.28" y="454.04" width="23.9" height="23.89"/><rect class="cls-2" x="167.28" y="430.14" width="23.9" height="23.9"/><rect class="cls-2" x="167.28" y="406.24" width="23.9" height="23.9"/><rect class="cls-3" x="167.28" y="382.35" width="23.9" height="23.89"/><rect class="cls-2" x="167.28" y="358.45" width="23.9" height="23.9"/><rect class="cls-5" x="167.28" y="334.55" width="23.9" height="23.9"/><rect class="cls-5" x="167.28" y="310.66" width="23.9" height="23.89"/><rect class="cls-2" x="167.28" y="286.76" width="23.9" height="23.9"/><rect class="cls-2" x="167.28" y="262.87" width="23.9" height="23.89"/><rect class="cls-4" x="167.28" y="238.97" width="23.9" height="23.9"/><rect class="cls-2" x="167.28" y="215.07" width="23.9" height="23.9"/><rect class="cls-2" x="167.28" y="191.18" width="23.9" height="23.89"/><rect class="cls-2" x="167.28" y="167.28" width="23.9" height="23.9"/><rect class="cls-2" x="167.28" y="143.38" width="23.9" height="23.9"/><rect class="cls-2" x="167.28" y="119.49" width="23.9" height="23.89"/><rect class="cls-2" x="167.28" y="95.59" width="23.9" height="23.9"/><rect class="cls-3" x="167.28" y="71.69" width="23.9" height="23.9"/><rect class="cls-4" x="167.28" y="47.8" width="23.9" height="23.89"/><rect class="cls-1" x="167.28" y="23.9" width="23.9" height="23.9"/><rect class="cls-1" x="167.28" width="23.9" height="23.9"/><rect class="cls-2" x="143.38" y="597.42" width="23.9" height="23.89"/><rect class="cls-2" x="143.38" y="573.52" width="23.9" height="23.9"/><rect class="cls-2" x="143.38" y="549.62" width="23.9" height="23.9"/><rect class="cls-2" x="143.38" y="525.73" width="23.9" height="23.89"/><rect class="cls-5" x="143.38" y="501.83" width="23.9" height="23.9"/><rect class="cls-5" x="143.38" y="477.93" width="23.9" height="23.9"/><rect class="cls-2" x="143.38" y="454.04" width="23.9" height="23.89"/><rect class="cls-3" x="143.38" y="430.14" width="23.9" height="23.9"/><rect class="cls-3" x="143.38" y="406.24" width="23.9" height="23.9"/><rect class="cls-2" x="143.38" y="382.35" width="23.9" height="23.89"/><rect class="cls-2" x="143.38" y="358.45" width="23.9" height="23.9"/><rect class="cls-2" x="143.38" y="334.55" width="23.9" height="23.9"/><rect class="cls-2" x="143.38" y="310.66" width="23.9" height="23.89"/><rect class="cls-2" x="143.38" y="286.76" width="23.9" height="23.9"/><rect class="cls-4" x="143.38" y="262.87" width="23.9" height="23.89"/><rect class="cls-3" x="143.38" y="238.97" width="23.9" height="23.9"/><rect class="cls-3" x="143.38" y="215.07" width="23.9" height="23.9"/><rect class="cls-3" x="143.38" y="191.18" width="23.9" height="23.89"/><rect class="cls-3" x="143.38" y="167.28" width="23.9" height="23.9"/><rect class="cls-5" x="143.38" y="143.38" width="23.9" height="23.9"/><rect class="cls-3" x="143.38" y="119.49" width="23.9" height="23.89"/><rect class="cls-3" x="143.38" y="95.59" width="23.9" height="23.9"/><rect class="cls-3" x="143.38" y="71.69" width="23.9" height="23.9"/><rect class="cls-2" x="143.38" y="47.8" width="23.9" height="23.89"/><rect class="cls-1" x="143.38" y="23.9" width="23.9" height="23.9"/><rect class="cls-1" x="143.38" width="23.9" height="23.9"/><rect class="cls-2" x="119.49" y="597.42" width="23.89" height="23.89"/><rect class="cls-2" x="119.49" y="573.52" width="23.89" height="23.9"/><rect class="cls-2" x="119.49" y="549.62" width="23.89" height="23.9"/><rect class="cls-4" x="119.49" y="525.73" width="23.89" height="23.89"/><rect class="cls-4" x="119.49" y="501.83" width="23.89" height="23.9"/><rect class="cls-2" x="119.49" y="477.93" width="23.89" height="23.9"/><rect class="cls-3" x="119.49" y="454.04" width="23.89" height="23.89"/><rect class="cls-3" x="119.49" y="430.14" width="23.89" height="23.9"/><rect class="cls-2" x="119.49" y="406.24" width="23.89" height="23.9"/><rect class="cls-5" x="119.49" y="382.35" width="23.89" height="23.89"/><rect class="cls-2" x="119.49" y="358.45" width="23.89" height="23.9"/><rect class="cls-2" x="119.49" y="334.55" width="23.89" height="23.9"/><rect class="cls-3" x="119.49" y="310.66" width="23.89" height="23.89"/><rect class="cls-4" x="119.49" y="286.76" width="23.89" height="23.9"/><rect class="cls-4" x="119.49" y="262.87" width="23.89" height="23.89"/><rect class="cls-3" x="119.49" y="238.97" width="23.89" height="23.9"/><rect class="cls-2" x="119.49" y="215.07" width="23.89" height="23.9"/><rect class="cls-3" x="119.49" y="191.18" width="23.89" height="23.89"/><rect class="cls-3" x="119.49" y="167.28" width="23.89" height="23.9"/><rect class="cls-5" x="119.49" y="143.38" width="23.89" height="23.9"/><rect class="cls-2" x="119.49" y="119.49" width="23.89" height="23.89"/><rect class="cls-3" x="119.49" y="95.59" width="23.89" height="23.9"/><rect class="cls-2" x="119.49" y="71.69" width="23.89" height="23.9"/><rect class="cls-2" x="119.49" y="47.8" width="23.89" height="23.89"/><rect class="cls-3" x="119.49" y="23.9" width="23.89" height="23.9"/><rect class="cls-1" x="119.49" width="23.89" height="23.9"/><rect class="cls-1" x="95.59" y="597.42" width="23.9" height="23.89"/><rect class="cls-3" x="95.59" y="573.52" width="23.9" height="23.9"/><rect class="cls-3" x="95.59" y="549.62" width="23.9" height="23.9"/><rect class="cls-4" x="95.59" y="525.73" width="23.9" height="23.89"/><rect class="cls-4" x="95.59" y="501.83" width="23.9" height="23.9"/><rect class="cls-4" x="95.59" y="477.93" width="23.9" height="23.9"/><rect class="cls-4" x="95.59" y="454.04" width="23.9" height="23.89"/><rect class="cls-2" x="95.59" y="430.14" width="23.9" height="23.9"/><rect class="cls-3" x="95.59" y="406.24" width="23.9" height="23.9"/><rect class="cls-3" x="95.59" y="382.35" width="23.9" height="23.89"/><rect class="cls-2" x="95.59" y="358.45" width="23.9" height="23.9"/><rect class="cls-3" x="95.59" y="334.55" width="23.9" height="23.9"/><rect class="cls-3" x="95.59" y="310.66" width="23.9" height="23.89"/><rect class="cls-3" x="95.59" y="286.76" width="23.9" height="23.9"/><rect class="cls-3" x="95.59" y="262.87" width="23.9" height="23.89"/><rect class="cls-4" x="95.59" y="238.97" width="23.9" height="23.9"/><rect class="cls-2" x="95.59" y="215.07" width="23.9" height="23.9"/><rect class="cls-3" x="95.59" y="191.18" width="23.9" height="23.89"/><rect class="cls-3" x="95.59" y="167.28" width="23.9" height="23.9"/><rect class="cls-2" x="95.59" y="143.38" width="23.9" height="23.9"/><rect class="cls-2" x="95.59" y="119.49" width="23.9" height="23.89"/><rect class="cls-4" x="95.59" y="95.59" width="23.9" height="23.9"/><rect class="cls-5" x="95.59" y="71.69" width="23.9" height="23.9"/><rect class="cls-4" x="95.59" y="47.8" width="23.9" height="23.89"/><rect class="cls-2" x="95.59" y="23.9" width="23.9" height="23.9"/><rect class="cls-1" x="95.59" width="23.9" height="23.9"/><rect class="cls-1" x="71.69" y="597.42" width="23.9" height="23.89"/><rect class="cls-3" x="71.69" y="573.52" width="23.9" height="23.9"/><rect class="cls-2" x="71.69" y="549.62" width="23.9" height="23.9"/><rect class="cls-3" x="71.69" y="525.73" width="23.9" height="23.89"/><rect class="cls-4" x="71.69" y="501.83" width="23.9" height="23.9"/><rect class="cls-4" x="71.69" y="477.93" width="23.9" height="23.9"/><rect class="cls-2" x="71.69" y="454.04" width="23.9" height="23.89"/><rect class="cls-2" x="71.69" y="430.14" width="23.9" height="23.9"/><rect class="cls-3" x="71.69" y="406.24" width="23.9" height="23.9"/><rect class="cls-2" x="71.69" y="382.35" width="23.9" height="23.89"/><rect class="cls-2" x="71.69" y="358.45" width="23.9" height="23.9"/><rect class="cls-5" x="71.69" y="334.55" width="23.9" height="23.9"/><rect class="cls-5" x="71.69" y="310.66" width="23.9" height="23.89"/><rect class="cls-3" x="71.69" y="286.76" width="23.9" height="23.9"/><rect class="cls-3" x="71.69" y="262.87" width="23.9" height="23.89"/><rect class="cls-2" x="71.69" y="238.97" width="23.9" height="23.9"/><rect class="cls-4" x="71.69" y="215.07" width="23.9" height="23.9"/><rect class="cls-4" x="71.69" y="191.18" width="23.9" height="23.89"/><rect class="cls-5" x="71.69" y="167.28" width="23.9" height="23.9"/><rect class="cls-5" x="71.69" y="143.38" width="23.9" height="23.9"/><rect class="cls-4" x="71.69" y="119.49" width="23.9" height="23.89"/><rect class="cls-4" x="71.69" y="95.59" width="23.9" height="23.9"/><rect class="cls-4" x="71.69" y="71.69" width="23.9" height="23.9"/><rect class="cls-4" x="71.69" y="47.8" width="23.9" height="23.89"/><rect class="cls-4" x="71.69" y="23.9" width="23.9" height="23.9"/><rect class="cls-1" x="71.69" width="23.9" height="23.9"/><rect class="cls-1" x="47.8" y="597.42" width="23.89" height="23.89"/><rect class="cls-4" x="47.8" y="573.52" width="23.89" height="23.9"/><rect class="cls-2" x="47.8" y="549.62" width="23.89" height="23.9"/><rect class="cls-4" x="47.8" y="525.73" width="23.89" height="23.89"/><rect class="cls-3" x="47.8" y="501.83" width="23.89" height="23.9"/><rect class="cls-2" x="47.8" y="477.93" width="23.89" height="23.9"/><rect class="cls-3" x="47.8" y="454.04" width="23.89" height="23.89"/><rect class="cls-2" x="47.8" y="430.14" width="23.89" height="23.9"/><rect class="cls-2" x="47.8" y="406.24" width="23.89" height="23.9"/><rect class="cls-2" x="47.8" y="382.35" width="23.89" height="23.89"/><rect class="cls-3" x="47.8" y="358.45" width="23.89" height="23.9"/><rect class="cls-2" x="47.8" y="334.55" width="23.89" height="23.9"/><rect class="cls-2" x="47.8" y="310.66" width="23.89" height="23.89"/><rect class="cls-2" x="47.8" y="286.76" width="23.89" height="23.9"/><rect class="cls-2" x="47.8" y="262.87" width="23.89" height="23.89"/><rect class="cls-3" x="47.8" y="238.97" width="23.89" height="23.9"/><rect class="cls-3" x="47.8" y="215.07" width="23.89" height="23.9"/><rect class="cls-3" x="47.8" y="191.18" width="23.89" height="23.89"/><rect class="cls-4" x="47.8" y="167.28" width="23.89" height="23.9"/><rect class="cls-3" x="47.8" y="143.38" width="23.89" height="23.9"/><rect class="cls-2" x="47.8" y="119.49" width="23.89" height="23.89"/><rect class="cls-2" x="47.8" y="95.59" width="23.89" height="23.9"/><rect class="cls-2" x="47.8" y="71.69" width="23.89" height="23.9"/><rect class="cls-3" x="47.8" y="47.8" width="23.89" height="23.89"/><rect class="cls-3" x="47.8" y="23.9" width="23.89" height="23.9"/><rect class="cls-1" x="47.8" width="23.89" height="23.9"/><rect class="cls-1" x="23.9" y="597.42" width="23.9" height="23.89"/><rect class="cls-1" x="23.9" y="573.52" width="23.9" height="23.9"/><rect class="cls-3" x="23.9" y="549.62" width="23.9" height="23.9"/><rect class="cls-4" x="23.9" y="525.73" width="23.9" height="23.89"/><rect class="cls-2" x="23.9" y="501.83" width="23.9" height="23.9"/><rect class="cls-3" x="23.9" y="477.93" width="23.9" height="23.9"/><rect class="cls-3" x="23.9" y="454.04" width="23.9" height="23.89"/><rect class="cls-2" x="23.9" y="430.14" width="23.9" height="23.9"/><rect class="cls-2" x="23.9" y="406.24" width="23.9" height="23.9"/><rect class="cls-2" x="23.9" y="382.35" width="23.9" height="23.89"/><rect class="cls-3" x="23.9" y="358.45" width="23.9" height="23.9"/><rect class="cls-3" x="23.9" y="334.55" width="23.9" height="23.9"/><rect class="cls-2" x="23.9" y="310.66" width="23.9" height="23.89"/><rect class="cls-2" x="23.9" y="286.76" width="23.9" height="23.9"/><rect class="cls-2" x="23.9" y="262.87" width="23.9" height="23.89"/><rect class="cls-2" x="23.9" y="238.97" width="23.9" height="23.9"/><rect class="cls-2" x="23.9" y="215.07" width="23.9" height="23.9"/><rect class="cls-2" x="23.9" y="191.18" width="23.9" height="23.89"/><rect class="cls-3" x="23.9" y="167.28" width="23.9" height="23.9"/><rect class="cls-3" x="23.9" y="143.38" width="23.9" height="23.9"/><rect class="cls-2" x="23.9" y="119.49" width="23.9" height="23.89"/><rect class="cls-2" x="23.9" y="95.59" width="23.9" height="23.9"/><rect class="cls-5" x="23.9" y="71.69" width="23.9" height="23.9"/><rect class="cls-5" x="23.9" y="47.8" width="23.9" height="23.89"/><rect class="cls-2" x="23.9" y="23.9" width="23.9" height="23.9"/><rect class="cls-1" x="23.9" width="23.9" height="23.9"/><rect class="cls-1" y="597.42" width="23.9" height="23.89"/><rect class="cls-1" y="573.52" width="23.9" height="23.9"/><rect class="cls-1" y="549.62" width="23.9" height="23.9"/><rect class="cls-2" y="525.73" width="23.9" height="23.89"/><rect class="cls-2" y="501.83" width="23.9" height="23.9"/><rect class="cls-2" y="477.93" width="23.9" height="23.9"/><rect class="cls-2" y="454.04" width="23.9" height="23.89"/><rect class="cls-1" y="430.14" width="23.9" height="23.9"/><rect class="cls-1" y="406.24" width="23.9" height="23.9"/><rect class="cls-1" y="382.35" width="23.9" height="23.89"/><rect class="cls-1" y="358.45" width="23.9" height="23.9"/><rect class="cls-1" y="334.55" width="23.9" height="23.9"/><rect class="cls-1" y="310.66" width="23.9" height="23.89"/><rect class="cls-1" y="286.76" width="23.9" height="23.9"/><rect class="cls-1" y="262.87" width="23.9" height="23.89"/><rect class="cls-1" y="238.97" width="23.9" height="23.9"/><rect class="cls-1" y="215.07" width="23.9" height="23.9"/><rect class="cls-1" y="191.18" width="23.9" height="23.89"/><rect class="cls-1" y="167.28" width="23.9" height="23.9"/><rect class="cls-1" y="143.38" width="23.9" height="23.9"/><rect class="cls-1" y="119.49" width="23.9" height="23.89"/><rect class="cls-1" y="95.59" width="23.9" height="23.9"/><rect class="cls-1" y="71.69" width="23.9" height="23.9"/><rect class="cls-1" y="47.8" width="23.9" height="23.89"/><rect class="cls-1" y="23.9" width="23.9" height="23.9"/><rect class="cls-1" width="23.9" height="23.9"/></svg>