<?xml version="1.0" encoding="utf-8"?>
<!-- Generator: Adobe Illustrator 25.0.1, SVG Export Plug-In . SVG Version: 6.00 Build 0)  -->
<svg version="1.1" id="Ebene_1" xmlns="http://www.w3.org/2000/svg" xmlns:xlink="http://www.w3.org/1999/xlink" x="0px" y="0px"
	 viewBox="0 0 1802 902" style="enable-background:new 0 0 1802 902;" xml:space="preserve">
<style type="text/css">
	.st0{fill:#B29650;stroke:#726822;stroke-miterlimit:10;}
	.st1{fill:#BCA871;stroke:#726822;stroke-miterlimit:10;}
	.st2{fill:#B7A056;stroke:#726822;stroke-miterlimit:10;}
	.st3{fill:#BAAB70;stroke:#726822;stroke-miterlimit:10;}
	.st4{fill:#B7A65E;stroke:#726822;stroke-miterlimit:10;}
	.st5{fill:#C9BA71;stroke:#726822;stroke-miterlimit:10;}
	.st6{fill:#B7A748;stroke:#726822;stroke-miterlimit:10;}
	.st7{fill:none;stroke:#726822;stroke-width:2;stroke-miterlimit:10;}
</style>
<g id="Ebene_1_1_">
	<rect x="1261" y="271" class="st0" width="90" height="90"/>
	<rect x="1171" y="361" class="st0" width="90" height="90"/>
	<rect x="1171" y="451" class="st0" width="90" height="90"/>
	<rect x="1171" y="271" class="st0" width="90" height="90"/>
	<rect x="1171" y="181" class="st0" width="90" height="90"/>
	<rect x="1261" y="181" class="st0" width="90" height="90"/>
	<rect x="811" y="451" class="st0" width="90" height="90"/>
	<rect x="1081" y="361" class="st0" width="90" height="90"/>
	<rect x="991" y="181" class="st0" width="90" height="90"/>
	<rect x="1081" y="271" class="st0" width="90" height="90"/>
	<rect x="991" y="361" class="st0" width="90" height="90"/>
	<rect x="811" y="361" class="st0" width="90" height="90"/>
	<rect x="901" y="451" class="st0" width="90" height="90"/>
	<rect x="901" y="271" class="st0" width="90" height="90"/>
	<rect x="721" y="361" class="st0" width="90" height="90"/>
	<rect x="811" y="271" class="st0" width="90" height="90"/>
	<rect x="901" y="361" class="st0" width="90" height="90"/>
	<rect x="991" y="271" class="st0" width="90" height="90"/>
	<rect x="1081" y="181" class="st0" width="90" height="90"/>
	<rect x="721" y="451" class="st0" width="90" height="90"/>
	<rect x="541" y="541" class="st1" width="90" height="90"/>
	<rect x="631" y="631" class="st1" width="90" height="90"/>
	<rect x="631" y="541" class="st1" width="90" height="90"/>
	<rect x="541" y="631" class="st1" width="90" height="90"/>
	<rect x="271" y="541" class="st1" width="90" height="90"/>
	<rect x="271" y="451" class="st1" width="90" height="90"/>
	<rect x="361" y="541" class="st1" width="90" height="90"/>
	<rect x="271" y="721" class="st1" width="90" height="90"/>
	<rect x="271" y="361" class="st1" width="90" height="90"/>
	<rect x="91" y="811" class="st1" width="90" height="90"/>
	<rect x="361" y="811" class="st1" width="90" height="90"/>
	<rect x="451" y="811" class="st1" width="90" height="90"/>
	<rect x="361" y="631" class="st1" width="90" height="90"/>
	<rect x="181" y="811" class="st1" width="90" height="90"/>
	<rect x="181" y="541" class="st1" width="90" height="90"/>
	<rect x="271" y="811" class="st1" width="90" height="90"/>
	<rect x="91" y="721" class="st1" width="90" height="90"/>
	<rect x="271" y="631" class="st1" width="90" height="90"/>
	<rect x="361" y="721" class="st1" width="90" height="90"/>
	<rect x="361" y="451" class="st1" width="90" height="90"/>
	<rect x="451" y="631" class="st1" width="90" height="90"/>
	<rect x="181" y="631" class="st1" width="90" height="90"/>
	<rect x="181" y="721" class="st1" width="90" height="90"/>
	<rect x="451" y="541" class="st1" width="90" height="90"/>
	<rect x="91" y="631" class="st1" width="90" height="90"/>
	<rect x="1" y="721" class="st1" width="90" height="90"/>
	<rect x="1" y="811" class="st1" width="90" height="90"/>
	<rect x="1711" y="811" class="st2" width="90" height="90"/>
	<rect x="1711" y="721" class="st2" width="90" height="90"/>
	<rect x="1711" y="631" class="st2" width="90" height="90"/>
	<rect x="1621" y="721" class="st2" width="90" height="90"/>
	<rect x="1531" y="451" class="st2" width="90" height="90"/>
	<rect x="1441" y="811" class="st2" width="90" height="90"/>
	<rect x="1351" y="451" class="st2" width="90" height="90"/>
	<rect x="1531" y="811" class="st2" width="90" height="90"/>
	<rect x="1351" y="631" class="st2" width="90" height="90"/>
	<rect x="1351" y="271" class="st2" width="90" height="90"/>
	<rect x="1621" y="811" class="st2" width="90" height="90"/>
	<rect x="1621" y="631" class="st2" width="90" height="90"/>
	<rect x="1531" y="541" class="st2" width="90" height="90"/>
	<rect x="1261" y="451" class="st2" width="90" height="90"/>
	<rect x="1441" y="451" class="st2" width="90" height="90"/>
	<rect x="1441" y="361" class="st2" width="90" height="90"/>
	<rect x="1261" y="361" class="st2" width="90" height="90"/>
	<rect x="1441" y="541" class="st2" width="90" height="90"/>
	<rect x="1351" y="181" class="st2" width="90" height="90"/>
	<rect x="1531" y="721" class="st2" width="90" height="90"/>
	<rect x="1531" y="631" class="st2" width="90" height="90"/>
	<rect x="1351" y="361" class="st2" width="90" height="90"/>
	<rect x="1261" y="541" class="st2" width="90" height="90"/>
	<rect x="1351" y="541" class="st2" width="90" height="90"/>
	<rect x="1441" y="721" class="st2" width="90" height="90"/>
	<rect x="1351" y="811" class="st2" width="90" height="90"/>
	<rect x="1441" y="631" class="st2" width="90" height="90"/>
	<rect x="1351" y="721" class="st2" width="90" height="90"/>
	<rect x="1081" y="811" class="st3" width="90" height="90"/>
	<rect x="1261" y="721" class="st3" width="90" height="90"/>
	<rect x="1171" y="541" class="st3" width="90" height="90"/>
	<rect x="1261" y="631" class="st3" width="90" height="90"/>
	<rect x="1261" y="811" class="st3" width="90" height="90"/>
	<rect x="1171" y="631" class="st3" width="90" height="90"/>
	<rect x="1171" y="721" class="st3" width="90" height="90"/>
	<rect x="1171" y="811" class="st3" width="90" height="90"/>
	<rect x="541" y="811" class="st3" width="90" height="90"/>
	<rect x="991" y="811" class="st3" width="90" height="90"/>
	<rect x="901" y="811" class="st3" width="90" height="90"/>
	<rect x="1081" y="631" class="st3" width="90" height="90"/>
	<rect x="1081" y="541" class="st3" width="90" height="90"/>
	<rect x="991" y="721" class="st3" width="90" height="90"/>
	<rect x="811" y="631" class="st3" width="90" height="90"/>
	<rect x="721" y="541" class="st3" width="90" height="90"/>
	<rect x="901" y="541" class="st3" width="90" height="90"/>
	<rect x="991" y="541" class="st3" width="90" height="90"/>
	<rect x="721" y="811" class="st3" width="90" height="90"/>
	<rect x="901" y="631" class="st3" width="90" height="90"/>
	<rect x="721" y="721" class="st3" width="90" height="90"/>
	<rect x="991" y="451" class="st3" width="90" height="90"/>
	<rect x="721" y="631" class="st3" width="90" height="90"/>
	<rect x="811" y="811" class="st3" width="90" height="90"/>
	<rect x="811" y="541" class="st3" width="90" height="90"/>
	<rect x="631" y="721" class="st3" width="90" height="90"/>
	<rect x="541" y="721" class="st3" width="90" height="90"/>
	<rect x="631" y="811" class="st3" width="90" height="90"/>
	<rect x="811" y="721" class="st3" width="90" height="90"/>
	<rect x="901" y="721" class="st3" width="90" height="90"/>
	<rect x="1081" y="721" class="st3" width="90" height="90"/>
	<rect x="1081" y="451" class="st3" width="90" height="90"/>
	<rect x="991" y="631" class="st3" width="90" height="90"/>
	<rect x="451" y="721" class="st3" width="90" height="90"/>
	<rect x="1711" y="271" class="st4" width="90" height="90"/>
	<rect x="1711" y="361" class="st4" width="90" height="90"/>
	<rect x="1711" y="541" class="st4" width="90" height="90"/>
	<rect x="1711" y="451" class="st4" width="90" height="90"/>
	<rect x="1351" y="91" class="st4" width="90" height="90"/>
	<rect x="1621" y="271" class="st4" width="90" height="90"/>
	<rect x="1531" y="181" class="st4" width="90" height="90"/>
	<rect x="1531" y="91" class="st4" width="90" height="90"/>
	<rect x="1351" y="1" class="st4" width="90" height="90"/>
	<rect x="1171" y="91" class="st4" width="90" height="90"/>
	<rect x="1621" y="1" class="st4" width="90" height="90"/>
	<rect x="1441" y="271" class="st4" width="90" height="90"/>
	<rect x="1531" y="1" class="st4" width="90" height="90"/>
	<rect x="1531" y="361" class="st4" width="90" height="90"/>
	<rect x="1621" y="541" class="st4" width="90" height="90"/>
	<rect x="1621" y="451" class="st4" width="90" height="90"/>
	<rect x="1621" y="361" class="st4" width="90" height="90"/>
	<rect x="1621" y="91" class="st4" width="90" height="90"/>
	<rect x="1441" y="181" class="st4" width="90" height="90"/>
	<rect x="1621" y="181" class="st4" width="90" height="90"/>
	<rect x="1441" y="91" class="st4" width="90" height="90"/>
	<rect x="1261" y="91" class="st4" width="90" height="90"/>
	<rect x="1441" y="1" class="st4" width="90" height="90"/>
	<rect x="1261" y="1" class="st4" width="90" height="90"/>
	<rect x="1531" y="271" class="st4" width="90" height="90"/>
	<rect x="1711" y="181" class="st4" width="90" height="90"/>
	<rect x="1711" y="91" class="st4" width="90" height="90"/>
	<rect x="1711" y="1" class="st4" width="90" height="90"/>
	<rect x="1171" y="1" class="st5" width="90" height="90"/>
	<rect x="1081" y="91" class="st5" width="90" height="90"/>
	<rect x="631" y="361" class="st5" width="90" height="90"/>
	<rect x="631" y="91" class="st5" width="90" height="90"/>
	<rect x="541" y="451" class="st5" width="90" height="90"/>
	<rect x="631" y="1" class="st5" width="90" height="90"/>
	<rect x="1081" y="1" class="st5" width="90" height="90"/>
	<rect x="901" y="181" class="st5" width="90" height="90"/>
	<rect x="631" y="451" class="st5" width="90" height="90"/>
	<rect x="901" y="1" class="st5" width="90" height="90"/>
	<rect x="631" y="181" class="st5" width="90" height="90"/>
	<rect x="901" y="91" class="st5" width="90" height="90"/>
	<rect x="721" y="181" class="st5" width="90" height="90"/>
	<rect x="991" y="91" class="st5" width="90" height="90"/>
	<rect x="811" y="91" class="st5" width="90" height="90"/>
	<rect x="811" y="1" class="st5" width="90" height="90"/>
	<rect x="631" y="271" class="st5" width="90" height="90"/>
	<rect x="811" y="181" class="st5" width="90" height="90"/>
	<rect x="991" y="1" class="st5" width="90" height="90"/>
	<rect x="721" y="1" class="st5" width="90" height="90"/>
	<rect x="721" y="91" class="st5" width="90" height="90"/>
	<rect x="721" y="271" class="st5" width="90" height="90"/>
	<rect x="451" y="271" class="st5" width="90" height="90"/>
	<rect x="361" y="361" class="st5" width="90" height="90"/>
	<rect x="361" y="91" class="st5" width="90" height="90"/>
	<rect x="541" y="361" class="st5" width="90" height="90"/>
	<rect x="541" y="271" class="st5" width="90" height="90"/>
	<rect x="361" y="1" class="st5" width="90" height="90"/>
	<rect x="541" y="91" class="st5" width="90" height="90"/>
	<rect x="541" y="181" class="st5" width="90" height="90"/>
	<rect x="541" y="1" class="st5" width="90" height="90"/>
	<rect x="451" y="91" class="st5" width="90" height="90"/>
	<rect x="451" y="1" class="st5" width="90" height="90"/>
	<rect x="451" y="451" class="st5" width="90" height="90"/>
	<rect x="361" y="271" class="st5" width="90" height="90"/>
	<rect x="271" y="1" class="st5" width="90" height="90"/>
	<rect x="271" y="91" class="st5" width="90" height="90"/>
	<rect x="451" y="361" class="st5" width="90" height="90"/>
	<rect x="451" y="181" class="st5" width="90" height="90"/>
	<rect x="181" y="451" class="st6" width="90" height="90"/>
	<rect x="181" y="361" class="st6" width="90" height="90"/>
	<rect x="361" y="181" class="st5" width="90" height="90"/>
	<rect x="181" y="1" class="st6" width="90" height="90"/>
	<rect x="271" y="181" class="st6" width="90" height="90"/>
	<rect x="181" y="181" class="st6" width="90" height="90"/>
	<rect x="181" y="91" class="st6" width="90" height="90"/>
	<rect x="181" y="271" class="st6" width="90" height="90"/>
	<rect x="271" y="271" class="st6" width="90" height="90"/>
	<rect x="91" y="91" class="st6" width="90" height="90"/>
	<rect x="1" y="451" class="st6" width="90" height="90"/>
	<rect x="91" y="181" class="st6" width="90" height="90"/>
	<rect x="91" y="1" class="st6" width="90" height="90"/>
	<rect x="1" y="91" class="st6" width="90" height="90"/>
	<rect x="1" y="631" class="st6" width="90" height="90"/>
	<rect x="1" y="541" class="st6" width="90" height="90"/>
	<rect x="1" y="361" class="st6" width="90" height="90"/>
	<rect x="1" y="271" class="st6" width="90" height="90"/>
	<rect x="1" y="181" class="st6" width="90" height="90"/>
	<rect x="91" y="541" class="st6" width="90" height="90"/>
	<rect x="91" y="451" class="st6" width="90" height="90"/>
	<rect x="1" y="1" class="st6" width="90" height="90"/>
	<rect x="91" y="361" class="st6" width="90" height="90"/>
	<rect x="91" y="271" class="st6" width="90" height="90"/>
	<polygon class="st7" points="1,91 1,1 91,1 181,1 271,1 361,1 451,1 541,1 631,1 721,1 811,1 901,1 991,1 1081,1 1171,1 1261,1 
		1351,1 1441,1 1531,1 1621,1 1711,1 1801,1 1801,91 1801,181 1801,271 1801,361 1801,451 1801,541 1801,631 1801,721 1801,811 
		1801,901 1711,901 1621,901 1531,901 1441,901 1351,901 1261,901 1171,901 1081,901 991,901 901,901 811,901 721,901 631,901 
		541,901 451,901 361,901 271,901 181,901 91,901 1,901 1,811 1,721 1,631 1,541 1,451 1,361 1,271 1,181 	"/>
	<polyline class="st7" points="1,811 91,811 181,811 271,811 361,811 451,811 541,811 631,811 721,811 811,811 901,811 991,811 
		1081,811 1171,811 1261,811 1351,811 1441,811 1531,811 1621,811 1711,811 1801,811 	"/>
	<polyline class="st7" points="1,721 91,721 181,721 271,721 361,721 451,721 541,721 631,721 721,721 811,721 901,721 991,721 
		1081,721 1171,721 1261,721 1351,721 1441,721 1531,721 1621,721 1711,721 1801,721 	"/>
	<polyline class="st7" points="1,631 91,631 181,631 271,631 361,631 451,631 541,631 631,631 721,631 811,631 901,631 991,631 
		1081,631 1171,631 1261,631 1351,631 1441,631 1531,631 1621,631 1711,631 1801,631 	"/>
	<polyline class="st7" points="1,541 91,541 181,541 271,541 361,541 451,541 541,541 631,541 721,541 811,541 901,541 991,541 
		1081,541 1171,541 1261,541 1351,541 1441,541 1531,541 1621,541 1711,541 1801,541 	"/>
	<polyline class="st7" points="1,451 91,451 181,451 271,451 361,451 451,451 541,451 631,451 721,451 811,451 901,451 991,451 
		1081,451 1171,451 1261,451 1351,451 1441,451 1531,451 1621,451 1711,451 1801,451 	"/>
	<polyline class="st7" points="1,361 91,361 181,361 271,361 361,361 451,361 541,361 631,361 721,361 811,361 901,361 991,361 
		1081,361 1171,361 1261,361 1351,361 1441,361 1531,361 1621,361 1711,361 1801,361 	"/>
	<polyline class="st7" points="1,271 91,271 181,271 271,271 361,271 451,271 541,271 631,271 721,271 811,271 901,271 991,271 
		1081,271 1171,271 1261,271 1351,271 1441,271 1531,271 1621,271 1711,271 1801,271 	"/>
	<polyline class="st7" points="1,181 91,181 181,181 271,181 361,181 451,181 541,181 631,181 721,181 811,181 901,181 991,181 
		1081,181 1171,181 1261,181 1351,181 1441,181 1531,181 1621,181 1711,181 1801,181 	"/>
	<polyline class="st7" points="1,91 91,91 181,91 271,91 361,91 451,91 541,91 631,91 721,91 811,91 901,91 991,91 1081,91 1171,91 
		1261,91 1351,91 1441,91 1531,91 1621,91 1711,91 1801,91 	"/>
	<polyline class="st7" points="1711,1 1711,91 1711,181 1711,271 1711,361 1711,451 1711,541 1711,631 1711,721 1711,811 1711,901 	
		"/>
	<polyline class="st7" points="1621,1 1621,91 1621,181 1621,271 1621,361 1621,451 1621,541 1621,631 1621,721 1621,811 1621,901 	
		"/>
	<polyline class="st7" points="1531,1 1531,91 1531,181 1531,271 1531,361 1531,451 1531,541 1531,631 1531,721 1531,811 1531,901 	
		"/>
	<polyline class="st7" points="1441,1 1441,91 1441,181 1441,271 1441,361 1441,451 1441,541 1441,631 1441,721 1441,811 1441,901 	
		"/>
	<polyline class="st7" points="1351,1 1351,91 1351,181 1351,271 1351,361 1351,451 1351,541 1351,631 1351,721 1351,811 1351,901 	
		"/>
	<polyline class="st7" points="1261,1 1261,91 1261,181 1261,271 1261,361 1261,451 1261,541 1261,631 1261,721 1261,811 1261,901 	
		"/>
	<polyline class="st7" points="1171,1 1171,91 1171,181 1171,271 1171,361 1171,451 1171,541 1171,631 1171,721 1171,811 1171,901 	
		"/>
	<polyline class="st7" points="1081,1 1081,91 1081,181 1081,271 1081,361 1081,451 1081,541 1081,631 1081,721 1081,811 1081,901 	
		"/>
	<polyline class="st7" points="991,1 991,91 991,181 991,271 991,361 991,451 991,541 991,631 991,721 991,811 991,901 	"/>
	<polyline class="st7" points="901,1 901,91 901,181 901,271 901,361 901,451 901,541 901,631 901,721 901,811 901,901 	"/>
	<polyline class="st7" points="811,1 811,91 811,181 811,271 811,361 811,451 811,541 811,631 811,721 811,811 811,901 	"/>
	<polyline class="st7" points="721,1 721,91 721,181 721,271 721,361 721,451 721,541 721,631 721,721 721,811 721,901 	"/>
	<polyline class="st7" points="631,1 631,91 631,181 631,271 631,361 631,451 631,541 631,631 631,721 631,811 631,901 	"/>
	<polyline class="st7" points="541,1 541,91 541,181 541,271 541,361 541,451 541,541 541,631 541,721 541,811 541,901 	"/>
	<polyline class="st7" points="451,1 451,91 451,181 451,271 451,361 451,451 451,541 451,631 451,721 451,811 451,901 	"/>
	<polyline class="st7" points="361,1 361,91 361,181 361,271 361,361 361,451 361,541 361,631 361,721 361,811 361,901 	"/>
	<polyline class="st7" points="271,1 271,91 271,181 271,271 271,361 271,451 271,541 271,631 271,721 271,811 271,901 	"/>
	<polyline class="st7" points="181,1 181,91 181,181 181,271 181,361 181,451 181,541 181,631 181,721 181,811 181,901 	"/>
	<polyline class="st7" points="91,1 91,91 91,181 91,271 91,361 91,451 91,541 91,631 91,721 91,811 91,901 	"/>
</g>
</svg>
