<svg id="Ebene_1" data-name="Ebene 1" xmlns="http://www.w3.org/2000/svg" viewBox="0 0 406.24 573.51"><defs><style>.cls-1{fill:#383a2c;}.cls-2{fill:#2d3d34;}.cls-3{fill:#b0c1b7;}.cls-4{fill:#39b54a;}.cls-5{fill:#1c723f;}.cls-6{fill:#009245;}.cls-7{fill:#0c6b37;}.cls-8{fill:#184c2d;}.cls-9{fill:#365b47;}</style></defs><rect class="cls-1" x="238.96" y="549.62" width="23.9" height="23.89"/><rect class="cls-1" x="262.86" y="549.62" width="23.9" height="23.89"/><rect class="cls-1" x="143.38" y="549.62" width="23.9" height="23.89"/><rect class="cls-1" x="119.48" y="549.62" width="23.9" height="23.89"/><rect class="cls-2" x="382.34" y="525.72" width="23.9" height="23.9"/><rect class="cls-3" x="382.34" y="501.82" width="23.9" height="23.9"/><rect class="cls-3" x="382.34" y="477.93" width="23.9" height="23.89"/><rect class="cls-2" x="382.34" y="454.03" width="23.9" height="23.9"/><rect class="cls-2" x="382.34" y="430.13" width="23.9" height="23.9"/><rect class="cls-3" x="382.34" y="406.24" width="23.9" height="23.89"/><rect class="cls-3" x="382.34" y="382.34" width="23.9" height="23.9"/><rect class="cls-2" x="382.34" y="358.44" width="23.9" height="23.9"/><rect class="cls-2" x="382.34" y="334.55" width="23.9" height="23.89"/><rect class="cls-3" x="382.34" y="310.65" width="23.9" height="23.9"/><rect class="cls-3" x="382.34" y="286.75" width="23.9" height="23.9"/><rect class="cls-2" x="382.34" y="262.86" width="23.9" height="23.89"/><rect class="cls-2" x="382.34" y="238.96" width="23.9" height="23.9"/><rect class="cls-3" x="382.34" y="215.07" width="23.9" height="23.89"/><rect class="cls-3" x="382.34" y="191.17" width="23.9" height="23.9"/><rect class="cls-2" x="382.34" y="167.27" width="23.9" height="23.9"/><rect class="cls-2" x="382.34" y="143.38" width="23.9" height="23.89"/><rect class="cls-3" x="382.34" y="119.48" width="23.9" height="23.9"/><rect class="cls-3" x="382.34" y="95.58" width="23.9" height="23.9"/><rect class="cls-2" x="382.34" y="71.69" width="23.9" height="23.89"/><rect class="cls-2" x="358.45" y="525.72" width="23.89" height="23.9"/><rect class="cls-3" x="358.45" y="501.82" width="23.89" height="23.9"/><rect class="cls-3" x="358.45" y="477.93" width="23.89" height="23.89"/><rect class="cls-2" x="358.45" y="454.03" width="23.89" height="23.9"/><rect class="cls-2" x="358.45" y="430.13" width="23.89" height="23.9"/><rect class="cls-3" x="358.45" y="406.24" width="23.89" height="23.89"/><rect class="cls-3" x="358.45" y="382.34" width="23.89" height="23.9"/><rect class="cls-2" x="358.45" y="358.44" width="23.89" height="23.9"/><rect class="cls-2" x="358.45" y="334.55" width="23.89" height="23.89"/><rect class="cls-3" x="358.45" y="310.65" width="23.89" height="23.9"/><rect class="cls-3" x="358.45" y="286.75" width="23.89" height="23.9"/><rect class="cls-2" x="358.45" y="262.86" width="23.89" height="23.89"/><rect class="cls-2" x="358.45" y="238.96" width="23.89" height="23.9"/><rect class="cls-3" x="358.45" y="215.07" width="23.89" height="23.89"/><rect class="cls-3" x="358.45" y="191.17" width="23.89" height="23.9"/><rect class="cls-2" x="358.45" y="167.27" width="23.89" height="23.9"/><rect class="cls-2" x="358.45" y="143.38" width="23.89" height="23.89"/><rect class="cls-3" x="358.45" y="119.48" width="23.89" height="23.9"/><rect class="cls-3" x="358.45" y="95.58" width="23.89" height="23.9"/><rect class="cls-2" x="358.45" y="71.69" width="23.89" height="23.89"/><rect class="cls-4" x="334.55" y="525.72" width="23.9" height="23.9"/><rect class="cls-4" x="334.55" y="501.82" width="23.9" height="23.9"/><rect class="cls-5" x="334.55" y="477.93" width="23.9" height="23.89"/><rect class="cls-4" x="334.55" y="454.03" width="23.9" height="23.9"/><rect class="cls-4" x="334.55" y="430.13" width="23.9" height="23.9"/><rect class="cls-4" x="334.55" y="406.24" width="23.9" height="23.89"/><rect class="cls-5" x="334.55" y="382.34" width="23.9" height="23.9"/><rect class="cls-5" x="334.55" y="358.44" width="23.9" height="23.9"/><rect class="cls-4" x="334.55" y="334.55" width="23.9" height="23.89"/><rect class="cls-4" x="334.55" y="310.65" width="23.9" height="23.9"/><rect class="cls-4" x="334.55" y="286.75" width="23.9" height="23.9"/><rect class="cls-4" x="334.55" y="262.86" width="23.9" height="23.89"/><rect class="cls-5" x="334.55" y="238.96" width="23.9" height="23.9"/><rect class="cls-4" x="334.55" y="215.07" width="23.9" height="23.89"/><rect class="cls-4" x="334.55" y="191.17" width="23.9" height="23.9"/><rect class="cls-4" x="334.55" y="167.27" width="23.9" height="23.9"/><rect class="cls-4" x="334.55" y="143.38" width="23.9" height="23.89"/><rect class="cls-4" x="334.55" y="119.48" width="23.9" height="23.9"/><rect class="cls-4" x="310.65" y="525.72" width="23.9" height="23.9"/><rect class="cls-5" x="310.65" y="501.82" width="23.9" height="23.9"/><rect class="cls-5" x="310.65" y="477.93" width="23.9" height="23.89"/><rect class="cls-4" x="310.65" y="454.03" width="23.9" height="23.9"/><rect class="cls-4" x="310.65" y="430.13" width="23.9" height="23.9"/><rect class="cls-5" x="310.65" y="406.24" width="23.9" height="23.89"/><rect class="cls-5" x="310.65" y="382.34" width="23.9" height="23.9"/><rect class="cls-4" x="310.65" y="358.44" width="23.9" height="23.9"/><rect class="cls-6" x="310.65" y="334.55" width="23.9" height="23.89"/><rect class="cls-7" x="310.65" y="310.65" width="23.9" height="23.9"/><rect class="cls-6" x="310.65" y="286.75" width="23.9" height="23.9"/><rect class="cls-6" x="310.65" y="262.86" width="23.9" height="23.89"/><rect class="cls-6" x="310.65" y="238.96" width="23.9" height="23.9"/><rect class="cls-4" x="310.65" y="215.07" width="23.9" height="23.89"/><rect class="cls-5" x="310.65" y="191.17" width="23.9" height="23.9"/><rect class="cls-4" x="310.65" y="167.27" width="23.9" height="23.9"/><rect class="cls-4" x="310.65" y="143.38" width="23.9" height="23.89"/><rect class="cls-4" x="310.65" y="119.48" width="23.9" height="23.9"/><rect class="cls-4" x="310.65" y="95.58" width="23.9" height="23.9"/><rect class="cls-4" x="286.76" y="525.72" width="23.89" height="23.9"/><rect class="cls-4" x="286.76" y="501.82" width="23.89" height="23.9"/><rect class="cls-4" x="286.76" y="477.93" width="23.89" height="23.89"/><rect class="cls-4" x="286.76" y="454.03" width="23.89" height="23.9"/><rect class="cls-4" x="286.76" y="430.13" width="23.89" height="23.9"/><rect class="cls-4" x="286.76" y="406.24" width="23.89" height="23.89"/><rect class="cls-4" x="286.76" y="382.34" width="23.89" height="23.9"/><rect class="cls-6" x="286.76" y="358.44" width="23.89" height="23.9"/><rect class="cls-6" x="286.76" y="334.55" width="23.89" height="23.89"/><rect class="cls-7" x="286.76" y="310.65" width="23.89" height="23.9"/><rect class="cls-6" x="286.76" y="286.75" width="23.89" height="23.9"/><rect class="cls-6" x="286.76" y="262.86" width="23.89" height="23.89"/><rect class="cls-6" x="286.76" y="238.96" width="23.89" height="23.9"/><rect class="cls-6" x="286.76" y="215.07" width="23.89" height="23.89"/><rect class="cls-4" x="286.76" y="191.17" width="23.89" height="23.9"/><rect class="cls-4" x="286.76" y="167.27" width="23.89" height="23.9"/><rect class="cls-5" x="286.76" y="143.38" width="23.89" height="23.89"/><rect class="cls-5" x="286.76" y="119.48" width="23.89" height="23.9"/><rect class="cls-4" x="286.76" y="95.58" width="23.89" height="23.9"/><rect class="cls-4" x="286.76" y="71.69" width="23.89" height="23.89"/><rect class="cls-1" x="262.86" y="525.72" width="23.9" height="23.9"/><rect class="cls-4" x="262.86" y="501.82" width="23.9" height="23.9"/><rect class="cls-4" x="262.86" y="477.93" width="23.9" height="23.89"/><rect class="cls-5" x="262.86" y="454.03" width="23.9" height="23.9"/><rect class="cls-4" x="262.86" y="430.13" width="23.9" height="23.9"/><rect class="cls-4" x="262.86" y="406.24" width="23.9" height="23.89"/><rect class="cls-6" x="262.86" y="382.34" width="23.9" height="23.9"/><rect class="cls-6" x="262.86" y="358.44" width="23.9" height="23.9"/><rect class="cls-8" x="262.86" y="334.55" width="23.9" height="23.89"/><rect class="cls-6" x="262.86" y="310.65" width="23.9" height="23.9"/><rect class="cls-2" x="262.86" y="286.75" width="23.9" height="23.9"/><rect class="cls-2" x="262.86" y="262.86" width="23.9" height="23.89"/><rect class="cls-6" x="262.86" y="238.96" width="23.9" height="23.9"/><rect class="cls-6" x="262.86" y="215.07" width="23.9" height="23.89"/><rect class="cls-6" x="262.86" y="191.17" width="23.9" height="23.9"/><rect class="cls-4" x="262.86" y="167.27" width="23.9" height="23.9"/><rect class="cls-5" x="262.86" y="143.38" width="23.9" height="23.89"/><rect class="cls-4" x="262.86" y="119.48" width="23.9" height="23.9"/><rect class="cls-4" x="262.86" y="95.58" width="23.9" height="23.9"/><rect class="cls-4" x="262.86" y="71.69" width="23.9" height="23.89"/><rect class="cls-1" x="238.96" y="525.72" width="23.9" height="23.9"/><rect class="cls-4" x="238.96" y="501.82" width="23.9" height="23.9"/><rect class="cls-5" x="238.96" y="477.93" width="23.9" height="23.89"/><rect class="cls-5" x="238.96" y="454.03" width="23.9" height="23.9"/><rect class="cls-4" x="238.96" y="430.13" width="23.9" height="23.9"/><rect class="cls-4" x="238.96" y="406.24" width="23.9" height="23.89"/><rect class="cls-6" x="238.96" y="382.34" width="23.9" height="23.9"/><rect class="cls-8" x="238.96" y="358.44" width="23.9" height="23.9"/><rect class="cls-6" x="238.96" y="334.55" width="23.9" height="23.89"/><rect class="cls-6" x="238.96" y="310.65" width="23.9" height="23.9"/><rect class="cls-2" x="238.96" y="286.75" width="23.9" height="23.9"/><rect class="cls-2" x="238.96" y="262.86" width="23.9" height="23.89"/><rect class="cls-6" x="238.96" y="238.96" width="23.9" height="23.9"/><rect class="cls-7" x="238.96" y="215.07" width="23.9" height="23.89"/><rect class="cls-6" x="238.96" y="191.17" width="23.9" height="23.9"/><rect class="cls-4" x="238.96" y="167.27" width="23.9" height="23.9"/><rect class="cls-4" x="238.96" y="143.38" width="23.9" height="23.89"/><rect class="cls-4" x="238.96" y="119.48" width="23.9" height="23.9"/><rect class="cls-5" x="238.96" y="95.58" width="23.9" height="23.9"/><rect class="cls-4" x="238.96" y="71.69" width="23.9" height="23.89"/><rect class="cls-4" x="215.07" y="525.72" width="23.89" height="23.9"/><rect class="cls-5" x="215.07" y="501.82" width="23.89" height="23.9"/><rect class="cls-5" x="215.07" y="477.93" width="23.89" height="23.89"/><rect class="cls-4" x="215.07" y="454.03" width="23.89" height="23.9"/><rect class="cls-5" x="215.07" y="430.13" width="23.89" height="23.9"/><rect class="cls-4" x="215.07" y="406.24" width="23.89" height="23.89"/><rect class="cls-6" x="215.07" y="382.34" width="23.89" height="23.9"/><rect class="cls-8" x="215.07" y="358.44" width="23.89" height="23.9"/><rect class="cls-6" x="215.07" y="334.55" width="23.89" height="23.89"/><rect class="cls-6" x="215.07" y="310.65" width="23.89" height="23.9"/><rect class="cls-6" x="215.07" y="286.75" width="23.89" height="23.9"/><rect class="cls-6" x="215.07" y="262.86" width="23.89" height="23.89"/><rect class="cls-6" x="215.07" y="238.96" width="23.89" height="23.9"/><rect class="cls-6" x="215.07" y="215.07" width="23.89" height="23.89"/><rect class="cls-6" x="215.07" y="191.17" width="23.89" height="23.9"/><rect class="cls-6" x="215.07" y="167.27" width="23.89" height="23.9"/><rect class="cls-4" x="215.07" y="143.38" width="23.89" height="23.89"/><rect class="cls-5" x="215.07" y="119.48" width="23.89" height="23.9"/><rect class="cls-5" x="215.07" y="95.58" width="23.89" height="23.9"/><rect class="cls-4" x="215.07" y="71.69" width="23.89" height="23.89"/><rect class="cls-9" x="215.07" width="23.89" height="23.89"/><rect class="cls-4" x="191.17" y="525.72" width="23.9" height="23.9"/><rect class="cls-5" x="191.17" y="501.82" width="23.9" height="23.9"/><rect class="cls-4" x="191.17" y="477.93" width="23.9" height="23.89"/><rect class="cls-4" x="191.17" y="454.03" width="23.9" height="23.9"/><rect class="cls-5" x="191.17" y="430.13" width="23.9" height="23.9"/><rect class="cls-4" x="191.17" y="406.24" width="23.9" height="23.89"/><rect class="cls-6" x="191.17" y="382.34" width="23.9" height="23.9"/><rect class="cls-8" x="191.17" y="358.44" width="23.9" height="23.9"/><rect class="cls-6" x="191.17" y="334.55" width="23.9" height="23.89"/><rect class="cls-6" x="191.17" y="310.65" width="23.9" height="23.9"/><rect class="cls-7" x="191.17" y="286.75" width="23.9" height="23.9"/><rect class="cls-7" x="191.17" y="262.86" width="23.9" height="23.89"/><rect class="cls-6" x="191.17" y="238.96" width="23.9" height="23.9"/><rect class="cls-6" x="191.17" y="215.07" width="23.9" height="23.89"/><rect class="cls-9" x="191.17" y="191.17" width="23.9" height="23.9"/><rect class="cls-9" x="191.17" y="167.27" width="23.9" height="23.9"/><rect class="cls-9" x="191.17" y="143.38" width="23.9" height="23.89"/><rect class="cls-9" x="191.17" y="119.48" width="23.9" height="23.9"/><rect class="cls-9" x="191.17" y="95.58" width="23.9" height="23.9"/><rect class="cls-9" x="191.17" y="71.69" width="23.9" height="23.89"/><rect class="cls-9" x="191.17" y="47.79" width="23.9" height="23.9"/><rect class="cls-9" x="191.17" y="23.89" width="23.9" height="23.9"/><rect class="cls-9" x="191.17" width="23.9" height="23.89"/><rect class="cls-4" x="167.28" y="525.72" width="23.89" height="23.9"/><rect class="cls-5" x="167.28" y="501.82" width="23.89" height="23.9"/><rect class="cls-4" x="167.28" y="477.93" width="23.89" height="23.89"/><rect class="cls-4" x="167.28" y="454.03" width="23.89" height="23.9"/><rect class="cls-4" x="167.28" y="430.13" width="23.89" height="23.9"/><rect class="cls-4" x="167.28" y="406.24" width="23.89" height="23.89"/><rect class="cls-6" x="167.28" y="382.34" width="23.89" height="23.9"/><rect class="cls-8" x="167.28" y="358.44" width="23.89" height="23.9"/><rect class="cls-6" x="167.28" y="334.55" width="23.89" height="23.89"/><rect class="cls-6" x="167.28" y="310.65" width="23.89" height="23.9"/><rect class="cls-7" x="167.28" y="286.75" width="23.89" height="23.9"/><rect class="cls-6" x="167.28" y="262.86" width="23.89" height="23.89"/><rect class="cls-6" x="167.28" y="238.96" width="23.89" height="23.9"/><rect class="cls-6" x="167.28" y="215.07" width="23.89" height="23.89"/><rect class="cls-6" x="167.28" y="191.17" width="23.89" height="23.9"/><rect class="cls-6" x="167.28" y="167.27" width="23.89" height="23.9"/><rect class="cls-4" x="167.28" y="143.38" width="23.89" height="23.89"/><rect class="cls-4" x="167.28" y="119.48" width="23.89" height="23.9"/><rect class="cls-5" x="167.28" y="95.58" width="23.89" height="23.9"/><rect class="cls-4" x="167.28" y="71.69" width="23.89" height="23.89"/><rect class="cls-9" x="167.28" width="23.89" height="23.89"/><rect class="cls-1" x="143.38" y="525.72" width="23.9" height="23.9"/><rect class="cls-5" x="143.38" y="501.82" width="23.9" height="23.9"/><rect class="cls-4" x="143.38" y="477.93" width="23.9" height="23.89"/><rect class="cls-4" x="143.38" y="454.03" width="23.9" height="23.9"/><rect class="cls-4" x="143.38" y="430.13" width="23.9" height="23.9"/><rect class="cls-4" x="143.38" y="406.24" width="23.9" height="23.89"/><rect class="cls-6" x="143.38" y="382.34" width="23.9" height="23.9"/><rect class="cls-8" x="143.38" y="358.44" width="23.9" height="23.9"/><rect class="cls-6" x="143.38" y="334.55" width="23.9" height="23.89"/><rect class="cls-6" x="143.38" y="310.65" width="23.9" height="23.9"/><rect class="cls-6" x="143.38" y="286.75" width="23.9" height="23.9"/><rect class="cls-6" x="143.38" y="262.86" width="23.9" height="23.89"/><rect class="cls-6" x="143.38" y="238.96" width="23.9" height="23.9"/><rect class="cls-6" x="143.38" y="215.07" width="23.9" height="23.89"/><rect class="cls-6" x="143.38" y="191.17" width="23.9" height="23.9"/><rect class="cls-4" x="143.38" y="167.27" width="23.9" height="23.9"/><rect class="cls-2" x="143.38" y="143.38" width="23.9" height="23.89"/><rect class="cls-4" x="143.38" y="119.48" width="23.9" height="23.9"/><rect class="cls-4" x="143.38" y="95.58" width="23.9" height="23.9"/><rect class="cls-4" x="143.38" y="71.69" width="23.9" height="23.89"/><rect class="cls-1" x="119.48" y="525.72" width="23.9" height="23.9"/><rect class="cls-4" x="119.48" y="501.82" width="23.9" height="23.9"/><rect class="cls-4" x="119.48" y="477.93" width="23.9" height="23.89"/><rect class="cls-4" x="119.48" y="454.03" width="23.9" height="23.9"/><rect class="cls-5" x="119.48" y="430.13" width="23.9" height="23.9"/><rect class="cls-4" x="119.48" y="406.24" width="23.9" height="23.89"/><rect class="cls-6" x="119.48" y="382.34" width="23.9" height="23.9"/><rect class="cls-6" x="119.48" y="358.44" width="23.9" height="23.9"/><rect class="cls-8" x="119.48" y="334.55" width="23.9" height="23.89"/><rect class="cls-6" x="119.48" y="310.65" width="23.9" height="23.9"/><rect class="cls-6" x="119.48" y="286.75" width="23.9" height="23.9"/><rect class="cls-2" x="119.48" y="262.86" width="23.9" height="23.89"/><rect class="cls-2" x="119.48" y="238.96" width="23.9" height="23.9"/><rect class="cls-2" x="119.48" y="215.07" width="23.9" height="23.89"/><rect class="cls-6" x="119.48" y="191.17" width="23.9" height="23.9"/><rect class="cls-4" x="119.48" y="167.27" width="23.9" height="23.9"/><rect class="cls-2" x="119.48" y="143.38" width="23.9" height="23.89"/><rect class="cls-5" x="119.48" y="119.48" width="23.9" height="23.9"/><rect class="cls-4" x="119.48" y="95.58" width="23.9" height="23.9"/><rect class="cls-4" x="119.48" y="71.69" width="23.9" height="23.89"/><rect class="cls-4" x="95.59" y="525.72" width="23.89" height="23.9"/><rect class="cls-4" x="95.59" y="501.82" width="23.89" height="23.9"/><rect class="cls-4" x="95.59" y="477.93" width="23.89" height="23.89"/><rect class="cls-5" x="95.59" y="454.03" width="23.89" height="23.9"/><rect class="cls-5" x="95.59" y="430.13" width="23.89" height="23.9"/><rect class="cls-4" x="95.59" y="406.24" width="23.89" height="23.89"/><rect class="cls-4" x="95.59" y="382.34" width="23.89" height="23.9"/><rect class="cls-6" x="95.59" y="358.44" width="23.89" height="23.9"/><rect class="cls-6" x="95.59" y="334.55" width="23.89" height="23.89"/><rect class="cls-7" x="95.59" y="310.65" width="23.89" height="23.9"/><rect class="cls-7" x="95.59" y="286.75" width="23.89" height="23.9"/><rect class="cls-6" x="95.59" y="262.86" width="23.89" height="23.89"/><rect class="cls-6" x="95.59" y="238.96" width="23.89" height="23.9"/><rect class="cls-6" x="95.59" y="215.07" width="23.89" height="23.89"/><rect class="cls-4" x="95.59" y="191.17" width="23.89" height="23.9"/><rect class="cls-4" x="95.59" y="167.27" width="23.89" height="23.9"/><rect class="cls-5" x="95.59" y="143.38" width="23.89" height="23.89"/><rect class="cls-5" x="95.59" y="119.48" width="23.89" height="23.9"/><rect class="cls-4" x="95.59" y="95.58" width="23.89" height="23.9"/><rect class="cls-4" x="95.59" y="71.69" width="23.89" height="23.89"/><rect class="cls-5" x="71.69" y="525.72" width="23.9" height="23.9"/><rect class="cls-5" x="71.69" y="501.82" width="23.9" height="23.9"/><rect class="cls-4" x="71.69" y="477.93" width="23.9" height="23.89"/><rect class="cls-4" x="71.69" y="454.03" width="23.9" height="23.9"/><rect class="cls-5" x="71.69" y="430.13" width="23.9" height="23.9"/><rect class="cls-4" x="71.69" y="406.24" width="23.9" height="23.89"/><rect class="cls-4" x="71.69" y="382.34" width="23.9" height="23.9"/><rect class="cls-4" x="71.69" y="358.44" width="23.9" height="23.9"/><rect class="cls-6" x="71.69" y="334.55" width="23.9" height="23.89"/><rect class="cls-6" x="71.69" y="310.65" width="23.9" height="23.9"/><rect class="cls-6" x="71.69" y="286.75" width="23.9" height="23.9"/><rect class="cls-6" x="71.69" y="262.86" width="23.9" height="23.89"/><rect class="cls-6" x="71.69" y="238.96" width="23.9" height="23.9"/><rect class="cls-4" x="71.69" y="215.07" width="23.9" height="23.89"/><rect class="cls-5" x="71.69" y="191.17" width="23.9" height="23.9"/><rect class="cls-4" x="71.69" y="167.27" width="23.9" height="23.9"/><rect class="cls-5" x="71.69" y="143.38" width="23.9" height="23.89"/><rect class="cls-4" x="71.69" y="119.48" width="23.9" height="23.9"/><rect class="cls-4" x="71.69" y="95.58" width="23.9" height="23.9"/><rect class="cls-4" x="47.79" y="525.72" width="23.9" height="23.9"/><rect class="cls-4" x="47.79" y="501.82" width="23.9" height="23.9"/><rect class="cls-4" x="47.79" y="477.93" width="23.9" height="23.89"/><rect class="cls-4" x="47.79" y="454.03" width="23.9" height="23.9"/><rect class="cls-5" x="47.79" y="430.13" width="23.9" height="23.9"/><rect class="cls-4" x="47.79" y="406.24" width="23.9" height="23.89"/><rect class="cls-4" x="47.79" y="382.34" width="23.9" height="23.9"/><rect class="cls-4" x="47.79" y="358.44" width="23.9" height="23.9"/><rect class="cls-5" x="47.79" y="334.55" width="23.9" height="23.89"/><rect class="cls-5" x="47.79" y="310.65" width="23.9" height="23.9"/><rect class="cls-4" x="47.79" y="286.75" width="23.9" height="23.9"/><rect class="cls-4" x="47.79" y="262.86" width="23.9" height="23.89"/><rect class="cls-4" x="47.79" y="238.96" width="23.9" height="23.9"/><rect class="cls-5" x="47.79" y="215.07" width="23.9" height="23.89"/><rect class="cls-5" x="47.79" y="191.17" width="23.9" height="23.9"/><rect class="cls-4" x="47.79" y="167.27" width="23.9" height="23.9"/><rect class="cls-4" x="47.79" y="143.38" width="23.9" height="23.89"/><rect class="cls-4" x="47.79" y="119.48" width="23.9" height="23.9"/><rect class="cls-2" x="23.9" y="525.72" width="23.89" height="23.9"/><rect class="cls-3" x="23.9" y="501.82" width="23.89" height="23.9"/><rect class="cls-3" x="23.9" y="477.93" width="23.89" height="23.89"/><rect class="cls-2" x="23.9" y="454.03" width="23.89" height="23.9"/><rect class="cls-2" x="23.9" y="430.13" width="23.89" height="23.9"/><rect class="cls-3" x="23.9" y="406.24" width="23.89" height="23.89"/><rect class="cls-3" x="23.9" y="382.34" width="23.89" height="23.9"/><rect class="cls-2" x="23.9" y="358.44" width="23.89" height="23.9"/><rect class="cls-2" x="23.9" y="334.55" width="23.89" height="23.89"/><rect class="cls-3" x="23.9" y="310.65" width="23.89" height="23.9"/><rect class="cls-3" x="23.9" y="286.75" width="23.89" height="23.9"/><rect class="cls-2" x="23.9" y="262.86" width="23.89" height="23.89"/><rect class="cls-2" x="23.9" y="238.96" width="23.89" height="23.9"/><rect class="cls-3" x="23.9" y="215.07" width="23.89" height="23.89"/><rect class="cls-3" x="23.9" y="191.17" width="23.89" height="23.9"/><rect class="cls-2" x="23.9" y="167.27" width="23.89" height="23.9"/><rect class="cls-2" x="23.9" y="143.38" width="23.89" height="23.89"/><rect class="cls-3" x="23.9" y="119.48" width="23.89" height="23.9"/><rect class="cls-3" x="23.9" y="95.58" width="23.89" height="23.9"/><rect class="cls-2" x="23.9" y="71.69" width="23.89" height="23.89"/><rect class="cls-2" y="525.72" width="23.9" height="23.9"/><rect class="cls-3" y="501.82" width="23.9" height="23.9"/><rect class="cls-3" y="477.93" width="23.9" height="23.89"/><rect class="cls-2" y="454.03" width="23.9" height="23.9"/><rect class="cls-2" y="430.13" width="23.9" height="23.9"/><rect class="cls-3" y="406.24" width="23.9" height="23.89"/><rect class="cls-3" y="382.34" width="23.9" height="23.9"/><rect class="cls-2" y="358.44" width="23.9" height="23.9"/><rect class="cls-2" y="334.55" width="23.9" height="23.89"/><rect class="cls-3" y="310.65" width="23.9" height="23.9"/><rect class="cls-3" y="286.75" width="23.9" height="23.9"/><rect class="cls-2" y="262.86" width="23.9" height="23.89"/><rect class="cls-2" y="238.96" width="23.9" height="23.9"/><rect class="cls-3" y="215.07" width="23.9" height="23.89"/><rect class="cls-3" y="191.17" width="23.9" height="23.9"/><rect class="cls-2" y="167.27" width="23.9" height="23.9"/><rect class="cls-2" y="143.38" width="23.9" height="23.89"/><rect class="cls-3" y="119.48" width="23.9" height="23.9"/><rect class="cls-3" y="95.58" width="23.9" height="23.9"/><rect class="cls-2" y="71.69" width="23.9" height="23.89"/></svg>