<?xml version="1.0" encoding="utf-8"?>
<!-- Generator: Adobe Illustrator 25.0.1, SVG Export Plug-In . SVG Version: 6.00 Build 0)  -->
<svg version="1.1" id="Ebene_1" xmlns="http://www.w3.org/2000/svg" xmlns:xlink="http://www.w3.org/1999/xlink" x="0px" y="0px"
	 viewBox="0 0 714.6 850.4" style="enable-background:new 0 0 714.6 850.4;" xml:space="preserve">
<style type="text/css">
	.st0{fill:#D8DADA;stroke:#12120D;stroke-width:11.46;stroke-miterlimit:10;}
	.st1{fill:#060300;}
	.st2{fill:#FFFFFF;}
	.st3{fill:none;stroke:#060300;stroke-width:11.46;stroke-miterlimit:10;}
</style>
<path class="st0" d="M360,8.1L360,8.1h-0.9l0,0C-106.4,15.4,30.7,772.3,30.7,772.3s0.5,91.7,61.6,45s93.5-18,93.5-18
	s64.7,82.7,115.1,21.6s104.3-14.4,104.3-14.4s66.9,71.4,107.9,14.4s86.3-10.8,86.3-10.8s91.8,82.7,89-37.8
	C688.4,772.3,825.5,15.4,360,8.1z"/>
<circle class="st1" cx="253.2" cy="305.8" r="73.7"/>
<circle class="st2" cx="243.3" cy="336.4" r="18"/>
<circle class="st2" cx="279.3" cy="318.4" r="10.8"/>
<ellipse transform="matrix(0.7071 -0.7071 0.7071 0.7071 -81.0264 416.0849)" class="st1" cx="461.7" cy="305.8" rx="73.7" ry="73.7"/>
<ellipse transform="matrix(0.1602 -0.9871 0.9871 0.1602 47.4608 728.6034)" class="st2" cx="451.9" cy="336.4" rx="18" ry="18"/>
<circle class="st2" cx="487.9" cy="318.4" r="10.8"/>
<path class="st3" d="M317.9,402.4c0,0.2,0,0.4,0,0.6c0,21.8,17.7,39.6,39.5,39.6c21.8,0,39.6-17.7,39.6-39.5c0,0,0,0,0,0
	c0-0.2,0-0.4,0-0.6"/>
</svg>
