<svg id="Ebene_1" data-name="Ebene 1" xmlns="http://www.w3.org/2000/svg" viewBox="0 0 850.39 850.39"><defs><style>.cls-1{fill:#0f0800;}.cls-2{fill:#f08100;}.cls-3{fill:#f08200;}.cls-4{fill:#d57705;}.cls-5{fill:#d57604;}.cls-6{fill:#d57707;}.cls-7{fill:#24a63b;}.cls-8{fill:#6aad41;}.cls-9{fill:#f28f00;}.cls-10{fill:#f6a902;}</style></defs><path class="cls-1" d="M214.5,713.34C83.69,631.65,67.39,437.05,147,325.12c47.68-67.06,114.39-91.88,194.37-86.35,17.48,1.21,34.87,1.95,52.37.27,6.53-.63,8.19-2.18,7.15-9.28-5-34.4-1-67.83,13.38-99.71a105.82,105.82,0,0,1,8.69-15.61c18.13-26.83,32.11-27.57,52.24-3,.59.71,1.17,1.42,1.74,2.15,5.37,6.86,14.58,13.51,15,20.65.36,6.48-12.17,8.77-18.56,13.66-19.51,15-22.07,37.12-22.81,58.36-1.34,38.6-8.79,33.24,32.06,33.54,29.37.21,58.79-3.93,88.07,1.42,75.57,13.81,127.64,58,155.93,127.87,41.64,102.82,32.27,201.36-33.68,292.43-14.14,19.52-33.13,34.28-52.43,48.47-3.52,7.82-10.94,11-17.9,14.37-41.11,19.74-84.31,29-129.94,24.21-14.13-1.48-28.18,1.43-40.75,5.09-23.67,6.89-45.59.53-68.07-2.6-11.45-1.59-22.6-2.53-34.22-1.76-41.73,2.77-81.47-5.75-119.33-23.29C224,723.13,217.6,720.24,214.5,713.34Z"/><path class="cls-2" d="M485.76,253.7c13.79,2.63,27.47,5.51,40.57,10.89,55,22.63,90.59,63.44,109,119,25.06,75.74,28.36,151.66-6.6,225.55C601,667.75,557.49,710,494.23,729.42c-10.34,3.15-10.77-1.07-6-8.44,10.17-15.84,20.26-31.7,30-47.86,26-43.29,41.62-90,48.58-139.58,6.5-46.25,6.23-92.43-5.9-138.17A291.36,291.36,0,0,0,493.6,271.9c-3.69-4.06-7.89-7.85-10.16-13C482.53,256.85,480.48,253.41,485.76,253.7Z"/><path class="cls-3" d="M355.34,729.43C295,711.06,251.23,672.1,224.7,616.18c-46.83-98.69-39.43-196.14,18.35-288,27.78-44.17,71.8-67.5,123.68-74.91,1.87,6.83-3.73,10.11-7.35,13.65-33.35,32.59-54.46,72.48-69.29,116-5.94,17.44-9.08,35.84-10.33,54-2.43,35.56-2.89,70.91,3.82,106.64,9.29,49.48,25.62,95.74,51.57,138.54,8.29,13.67,15.93,27.92,26.17,40.41,1.62,2,4.46,4.36,1.75,7C361,731.51,357.92,730.81,355.34,729.43Z"/><path class="cls-2" d="M579.22,281.64c-18-12.67-37.05-23.5-59.79-31.36,53.14-6.6,118.74,14.8,159.37,62,50.89,59.12,66.7,128.89,59.67,204.59-5.34,57.33-25.65,109.06-65.82,151.54-35.07,37.08-78.13,58.62-129,64.16-1.3-3.56,1.23-5.14,3.66-6.3,32.94-15.69,56.8-41.7,78.2-70.07,43.31-57.44,57.45-122.38,51-193.49-5.44-59.54-29-110.36-67.24-155.11C600.63,297.57,591.1,288.11,579.22,281.64Z"/><path class="cls-2" d="M286.38,729.38c-77.54-16.89-129.07-64.78-157-137.19-31.61-81.88-27.6-163.2,13.83-241.32,36-67.94,112.09-109.19,186-101.22L290,268c-41.3,20.52-67.77,54.65-88.36,94.69-30,58.32-37,120.27-26.79,183.82a251,251,0,0,0,48.84,114.13c17,22.27,37.63,40.08,58.23,58.33,3.12,2.77,8.54,4.38,6.85,10.41-.06.21-.68.35-1,.35A6.55,6.55,0,0,1,286.38,729.38Z"/><path class="cls-2" d="M367.07,687.72c-41.73-65.72-57.94-138.17-55.4-215.14,2.06-62.27,14.27-122.14,47.49-176.13a129.56,129.56,0,0,1,28.91-33c22.54-18.26,44.32-19.83,68.31-3.79,9.46,6.32,18.3,13.78,23.87,24.19.57.77,1.35,1.92,1,2.43-6,8.31-5.35,8.22-4.71,15.13.72,7.69,2.58,14.05,8.82,19.27,6.46,5.41,9.78,13.27,13,20.88,1.46,3.49,1.14,7.58-2.92,9.55-3.51,1.71-6.06-.72-8.34-3.11-15.64-16.41-32.13-31.94-44.28-51.52-9-14.49-22.24-14-34.38-2.71-27,25.09-31.19,58.54-35.85,92-.57,4.05,1.21,8.75-.8,12.27-9.78,17.14-6.54,35.8-6.76,54-.49,40,.43,80-.48,120-.05,2.3-.73,4.82.32,6.82,14.13,26.92,13.64,57.62,22.24,86,2.13,7,6.1,12.16,10.76,17.25s8.13,10.37,2.08,16.8c-5.78,6.13-11.25,4.52-16.72-.57C378.43,693.84,372.71,690.83,367.07,687.72Z"/><path class="cls-3" d="M367.07,687.72c10.56-5.42,14.47,5.15,20.25,9.45,4.42,3.3,6.29,3.82,10,.23,3.37-3.29,6-6.87.77-9.91-16.41-9.45-15.69-27.3-19.28-42-4.08-16.66-9.55-33.45-9.36-51.06,0-1.34,0-3.53-.73-3.92-14.91-7.83-7-21.25-7.17-32-.7-45.54-.24-91.09-.36-136.64,0-7.06.3-13.88,5.07-19.51,2.93-3.46,3.41-7.32,3.17-11.6-1.17-20.23,1.86-39.53,12.23-57.4,1.68-2.91,1.37-7.06,1.68-10.67,1.32-15.25,27.45-41,41.47-41.45,7.1-.23,13.55,1.34,16.65,7.41,6.14,12.06,19.5,19.09,22.44,33.16.72,3.42,4.39,2.95,6.19,4.69,6.39,6.18,16.73,8.34,19,18.88.54,2.56,2.81,5.3,6.07,3.1,2.11-1.43,2.13-5,.66-6.24-7-6-6.45-17-15.87-21.69-5.6-2.77-10.08-7.9-6.25-15.95,2.48-5.19-2-8.41-5.7-11.23-2.21-1.69-5.08-3.22-3.54-6.47,1.77-3.76,5.24-2.75,8.41-2,2.62.63,6.16,6.88,7.45-1.15,22.4,25.53,34.39,56.47,42.77,88.43,26.48,101,20,199.38-27.18,293.73-3.13,6.26-4.55,14.2-12.64,16.93-7.33,2.52-14.45,5.79-22.64,3.93a8.76,8.76,0,0,0-10.3,5.13c-4.56,9.61-12.82,10.4-22,10.42-19.09,0-19.07.23-21.63,18.91-.28,2-1.75,3.11-4.57,4,6.21,3.72,18.16,3.29,11.34,15.32C391,729.14,378.13,709.2,367.07,687.72Z"/><path class="cls-4" d="M355.34,729.43c5.92-1.68,5.88-1.66,4.48-3.59C334.26,690.57,313,653.36,297.87,612,283,571.13,274,529.19,273.61,486.49c-.47-46.47,5.19-92.59,25-136.39,16.74-37,40.59-67.94,68.09-96.83,5.37-3.19,11-2.5,17.88-1.81-48.79,42.66-67,99-77.38,158.69C289.67,511.32,305,607,358.08,695.8c8.48,14.19,18.59,27.2,31.34,41.08A111.17,111.17,0,0,1,355.34,729.43Z"/><path class="cls-5" d="M485.76,253.7c-.48,9.61,8.36,13.27,13.3,18.64,38.68,42,61.34,92,71.2,147.17,8,44.81,6,90.38-3.11,135.17-7.88,38.51-20.27,75.67-39.6,110C516,685.17,503.31,705,490.2,724.46c-6.28,9.34,3.31,2.91,4,5-10.06,4.83-21.09,5.46-33.73,8.41,59.49-71.84,87.85-153.59,88.11-244,.26-89.38-14.35-175.07-82.55-242.82C472.87,251.18,479.53,249.91,485.76,253.7Z"/><path class="cls-4" d="M286.38,729.38c-9.21-12.11-22.19-20.15-33-30.55-25.83-24.85-47.71-52.29-61.59-86-7.7-18.69-13.76-37.71-19.67-56.93-2.62-8.53-2.92-17.45-3.37-25.73-1.83-33.85-2.4-67.66,5.14-101.37,9-40.07,25.13-77.41,49.32-109.29C239.85,297.62,258.79,273.4,290,268c-33.42,23.19-61.88,51.31-77,89.57-43.27,109.61-42.72,215.29,33.78,312,22.44,28.35,51.44,49.24,84.8,64.29A111,111,0,0,1,286.38,729.38Z"/><path class="cls-6" d="M579.22,281.64c14.06.5,22,11.83,29.52,20.28,26.45,29.87,48.57,62.95,59.77,101.93,11.56,40.25,16.12,80.93,11.22,123.1-4.5,38.74-15.2,74.88-35.24,108a292.82,292.82,0,0,1-83.86,89.54c-5.24,3.64-12.69,2.54-17,8.09-8.27,3.87-17,2-26,1.71,21.49-11.17,42.24-23.18,60.21-39.49,65.28-59.31,90.76-134.2,86.06-220.65-2.18-40.2-10.24-79.23-26.86-116.22C623.65,328,603.09,303.59,579.22,281.64Z"/><path class="cls-7" d="M461.2,112.07a14.53,14.53,0,0,1,2.16,1.69c14,15.89,14,16-1.21,29.94-13.8,12.62-18.35,29.32-20.53,46.84-1.53,12.27-1.89,24.7-2.63,37.06-.3,4.92,1,11.27-7.05,9.91-7.43-1.25-18.09,5.75-20.92-8.45-5-25-1.82-49.32,5-73.43,1.45-5.19,3.68-10.16,5.56-15.24,5.11-5.78,7.8-13,11.9-19.43C441.25,108.82,448.93,106.51,461.2,112.07Z"/><path class="cls-2" d="M413.42,740.64c-.14-2.26.1-6.39-.48-6.51-10.95-2.26-10.12-9.37-11-18.62C400.9,704.37,404.09,700,413.9,699a83.66,83.66,0,0,1,16.52,0c8.14.72,14.37-.93,17.25-9.65.8-2.41,3.1-6,4.88-6.14,10.19-.57,20.43-.25,30.65-.23l-.78,5c-14.59,7.79-24.28,20.55-35.11,32.54-5.36,5.93-14.48,7.93-18,17.32-2.62,6.93-10.12,3.86-15.85,2.81Z"/><path class="cls-3" d="M413.43,740.54c7.53.21,14.66.45,15.41-10.28.26-3.75,2.72-8.55,7.47-8.77,9.83-.47,15.07-6.54,17.76-14.58,4.68-14,17.92-14.21,28.35-19-8.4,19.76-22.25,35.45-38.38,49C435.25,744.21,424.37,745.34,413.43,740.54Z"/><path class="cls-8" d="M461.2,112.07c-14.71-3.33-22.9,4.33-29.43,16.35-2.39,4.41-4.21,10.27-10.23,12,3.66-11.55,9.44-21.95,18.26-30.27C447.31,103,455,101.43,461.2,112.07Z"/><path class="cls-9" d="M482.85,513.66c-5.59,22.29-4.15,45.42-8.19,67.94a712.52,712.52,0,0,1-19.93,84c-2.9,9.41-9.49,17-16.63,23.23-9.41,8.28-23.56,5.51-31.44-4.48-19-24-21.74-53.82-28.58-82-11.83-48.69-9.43-98.46-8.25-147.9.95-39.74,8-78.67,20.4-116.8,4.81-14.82,9.8-28.24,21.32-39,10.36-9.65,23.7-8.48,31.82,3.56,2.82,4.18,5.9,8.37,7.68,13,3.81,9.93,9.89,16.81,20.73,18.71-6.94,5.45-8.37,12-6,20.66,11.36,41.71,19,83.93,15.48,127.51C480.39,492.68,481.54,503.2,482.85,513.66Z"/><path class="cls-2" d="M512.52,581.9c-3,5.46-4.59,11.21-2.22,17.37.59,1.55.54,4.4-.45,5.33-13,12.19-9,30.29-15.65,44.8-4.06,8.85-11.14,14.33-17.18,20.9-2.31,2.52-8.25,1.86-11.3-1.73-2.92-3.43-6.05-7.39-4-12.41,3-7.23,9.16-.16,13.91-2.9-6.51-18.88-4.2-35.72,8.17-52.86,6.07-8.4,2.36-22.23,4-33.6,1.54-10.6,2.39-22-1.49-32.78-1.31-3.65-1.35-8.2,1.53-10.43,17.69-13.69,15.54-36.27,24.58-53.78,1.14-2.2,1.09-5.64.3-8.1-6.09-19-5.51-37.64,2.23-56.29.66.41,2.63,1.11,2.59,1.66-1,12.81-4.87,26.27,13.53,31.54,3.34.95,3.06,10.33.45,14.1-6.92,10-4,19.73-2.58,30.22,1.27,9.25,5,21.18-11.33,22.78-5.43.53-3.73,4.55-1.11,6.81,6.54,5.61,5.46,9.54,2.4,18-3.83,10.64-.94,22.82-18,22.72-2.06,0-5.59,7.09-3,12.14,1.22,2.35,4.47,4.51,2.73,7.24-2.25,3.52-6.05,6.83-2.57,10.85C503,589.1,506.47,579.43,512.52,581.9Z"/><path class="cls-10" d="M482.85,513.66c-7.71-3.78-5.76-11-5.42-17,2.34-42.66-.73-84.8-11.13-126.3-1.78-7.1-3.53-14.23-5.81-21.17-3.52-10.71-.38-16,11.29-15.17,16.53,24.47,22.41,52.51,27.79,80.88,5.61,29.58,1.18,58.21-5.52,86.91C492.49,508.42,489.81,512.71,482.85,513.66Z"/><path class="cls-2" d="M505.09,356.33c3.36.25,5.9,2.07,3.44,5.12-4.93,6.11-3.31,10.66,1.77,15.36,2.5,2.32,3.61,5.31,1.69,8.64-1.22,2.11-3.1,3.49-5.58,3.25-4.5-.44-3.52-4.44-4.62-7.24-2.43-6.14-2.55-12.45-2.3-18.87C499.63,358.89,501,356.44,505.09,356.33Z"/></svg>