<svg id="Ebene_1" data-name="Ebene 1" xmlns="http://www.w3.org/2000/svg" viewBox="0 0 850.39 850.39"><defs><style>.cls-1{fill:#0f0800;}.cls-2{fill:#503300;}.cls-3{fill:#321e00;}.cls-4{fill:#804f00;}.cls-5{fill:#6b4200;}</style></defs><path class="cls-1" d="M214.41,713.46C83.55,631.73,67.25,437.05,146.86,325.08,194.56,258,261.3,233.16,341.3,238.7c17.49,1.21,34.89,1.94,52.4.26,6.53-.62,8.19-2.17,7.15-9.28-5-34.41-1-67.85,13.39-99.74a105.42,105.42,0,0,1,8.69-15.62c18.13-26.85,32.12-27.59,52.26-3,.59.72,1.17,1.43,1.74,2.16,5.37,6.86,14.59,13.51,15,20.65.36,6.49-12.18,8.78-18.57,13.67-19.52,15-22.08,37.13-22.82,58.38-1.34,38.61-8.79,33.26,32.08,33.56,29.37.21,58.81-3.93,88.1,1.42,75.6,13.81,127.69,58,156,127.92C768.36,471.94,759,570.52,693,661.62c-14.14,19.53-33.14,34.3-52.44,48.49-3.53,7.83-10.95,11-17.91,14.38-41.13,19.74-84.35,29-130,24.22-14.14-1.48-28.2,1.43-40.77,5.09-23.67,6.9-45.61.53-68.09-2.6-11.46-1.59-22.61-2.53-34.24-1.76-41.75,2.77-81.5-5.75-119.38-23.3C223.93,723.24,217.51,720.36,214.41,713.46Z"/><path class="cls-2" d="M485.78,253.63c13.8,2.63,27.49,5.51,40.59,10.9,55,22.63,90.62,63.46,109,119.05,25.07,75.77,28.38,151.73-6.6,225.64C601,667.84,557.55,710.07,494.26,729.54c-10.35,3.15-10.78-1.07-6.05-8.44,10.18-15.85,20.27-31.71,30-47.88,26-43.31,41.63-90.05,48.6-139.63,6.5-46.27,6.23-92.47-5.9-138.23a291.59,291.59,0,0,0-67.26-123.52c-3.7-4.06-7.89-7.85-10.16-13C482.55,256.79,480.5,253.34,485.78,253.63Z"/><path class="cls-2" d="M355.31,729.55c-60.37-18.38-104.15-57.35-130.69-113.29C177.77,517.53,185.17,420,243,328.14c27.8-44.18,71.84-67.53,123.74-74.94,1.86,6.84-3.74,10.12-7.35,13.65C326,299.46,304.88,339.37,290,382.92,284.1,400.37,281,418.78,279.7,437c-2.43,35.57-2.89,70.93,3.82,106.68,9.3,49.5,25.63,95.78,51.59,138.59,8.3,13.68,15.94,27.93,26.19,40.42,1.61,2,4.45,4.37,1.74,7C361,731.64,357.89,730.93,355.31,729.55Z"/><path class="cls-2" d="M579.29,281.58c-18-12.68-37.07-23.5-59.82-31.37,53.16-6.6,118.79,14.81,159.43,62,50.91,59.14,66.73,128.93,59.69,204.67-5.33,57.35-25.66,109.1-65.84,151.59-35.08,37.1-78.16,58.65-129.07,64.19-1.3-3.56,1.23-5.14,3.66-6.3,32.95-15.7,56.82-41.71,78.23-70.1,43.33-57.46,57.47-122.43,51-193.56-5.44-59.56-29-110.41-67.27-155.18C600.7,297.52,591.16,288.06,579.29,281.58Z"/><path class="cls-2" d="M286.33,729.5c-77.57-16.89-129.13-64.8-157.1-137.25C97.61,510.35,101.62,429,143.07,350.84c36.05-68,112.13-109.23,186.08-101.26l-39.21,18.31c-41.31,20.53-67.8,54.67-88.39,94.72-30,58.35-37,120.32-26.8,183.9a251,251,0,0,0,48.86,114.17c17,22.28,37.64,40.1,58.25,58.36,3.12,2.76,8.55,4.37,6.85,10.41,0,.21-.68.35-1,.35A5.87,5.87,0,0,1,286.33,729.5Z"/><path class="cls-2" d="M367,687.83c-41.74-65.75-58-138.23-55.41-215.23,2.05-62.3,14.27-122.19,47.51-176.21a129.41,129.41,0,0,1,28.92-33c22.55-18.27,44.34-19.84,68.33-3.8,9.46,6.33,18.31,13.79,23.89,24.21.56.77,1.35,1.91,1,2.43-6,8.31-5.35,8.22-4.71,15.13.72,7.69,2.58,14.06,8.83,19.28,6.45,5.41,9.78,13.28,13,20.89,1.46,3.49,1.14,7.58-2.93,9.55-3.5,1.71-6.05-.72-8.33-3.11-15.65-16.41-32.15-32-44.3-51.54-9-14.49-22.25-14-34.4-2.72-27,25.1-31.2,58.57-35.86,92.05-.57,4,1.21,8.74-.8,12.27-9.79,17.15-6.54,35.81-6.76,54-.49,40,.42,80-.48,120-.05,2.3-.73,4.82.32,6.83,14.13,26.92,13.65,57.63,22.24,86,2.13,7,6.1,12.17,10.77,17.26s8.13,10.38,2.08,16.8c-5.78,6.14-11.25,4.53-16.73-.57C378.41,694,372.69,690.93,367,687.83Z"/><path class="cls-2" d="M367,687.83c10.57-5.43,14.48,5.14,20.26,9.45,4.43,3.3,6.3,3.82,10,.23,3.37-3.29,6-6.88.76-9.91-16.41-9.46-15.68-27.32-19.28-42-4.08-16.67-9.55-33.47-9.36-51.08,0-1.35,0-3.53-.74-3.92-14.91-7.84-7-21.26-7.17-32-.7-45.56-.23-91.13-.36-136.69,0-7.07.3-13.88,5.08-19.52,2.92-3.46,3.41-7.32,3.16-11.6-1.16-20.25,1.86-39.55,12.24-57.43,1.69-2.91,1.37-7.06,1.68-10.67,1.32-15.25,27.47-41,41.49-41.47,7.1-.23,13.55,1.34,16.65,7.42,6.15,12.06,19.51,19.09,22.46,33.17.72,3.42,4.39,3,6.19,4.69,6.39,6.18,16.74,8.34,19,18.89.54,2.56,2.82,5.3,6.08,3.1,2.1-1.43,2.13-5,.66-6.24-7-6-6.46-17-15.88-21.7-5.6-2.77-10.08-7.91-6.25-15.95,2.48-5.2-2-8.42-5.7-11.24-2.22-1.69-5.08-3.22-3.54-6.48,1.77-3.76,5.24-2.75,8.41-2,2.62.62,6.16,6.88,7.45-1.15,22.41,25.53,34.41,56.48,42.79,88.46,26.49,101,20,199.46-27.2,293.85-3.12,6.26-4.54,14.2-12.63,16.93-7.34,2.53-14.47,5.8-22.66,3.93a8.77,8.77,0,0,0-10.3,5.13c-4.57,9.62-12.82,10.41-22,10.43-19.1,0-19.08.23-21.64,18.92-.28,2-1.75,3.11-4.57,4,6.21,3.72,18.17,3.29,11.34,15.33C391,729.26,378.11,709.32,367,687.83Z"/><path class="cls-3" d="M355.31,729.55c5.92-1.68,5.89-1.66,4.49-3.59-25.57-35.29-46.9-72.51-62-113.88C282.9,571.19,274,529.24,273.55,486.52c-.47-46.49,5.19-92.64,25-136.45,16.75-37,40.6-68,68.12-96.87,5.37-3.19,11-2.5,17.88-1.8-48.81,42.66-67,99.07-77.41,158.75-17.56,101.21-2.25,197,50.87,285.76,8.49,14.19,18.6,27.21,31.35,41.09A111.3,111.3,0,0,1,355.31,729.55Z"/><path class="cls-3" d="M485.78,253.63c-.48,9.62,8.36,13.28,13.31,18.65,38.69,42,61.36,92,71.23,147.22,8,44.83,6,90.42-3.11,135.23-7.88,38.53-20.28,75.7-39.62,110.08-11.51,20.46-24.25,40.29-37.36,59.77-6.29,9.34,3.31,2.91,4,5-10.07,4.84-21.1,5.46-33.75,8.41C520,666.09,548.4,584.3,548.66,493.89c.26-89.41-14.36-175.13-82.59-242.91C472.89,251.11,479.55,249.84,485.78,253.63Z"/><path class="cls-3" d="M286.33,729.5c-9.22-12.11-22.2-20.16-33-30.56-25.84-24.87-47.73-52.31-61.61-86C184,594.23,177.94,575.2,172,556c-2.62-8.53-2.92-17.46-3.37-25.74-1.83-33.86-2.41-67.69,5.14-101.4,9-40.09,25.14-77.45,49.34-109.35,16.63-21.91,35.58-46.14,66.8-51.59-33.44,23.2-61.91,51.33-77,89.6-43.29,109.65-42.75,215.38,33.79,312.07,22.44,28.37,51.46,49.27,84.83,64.32A111.1,111.1,0,0,1,286.33,729.5Z"/><path class="cls-3" d="M579.29,281.58c14.05.5,22,11.83,29.52,20.29,26.47,29.88,48.59,63,59.79,102,11.57,40.27,16.13,81,11.23,123.15-4.5,38.75-15.21,74.91-35.25,108a292.93,292.93,0,0,1-83.9,89.57c-5.24,3.64-12.69,2.54-17,8.09-8.27,3.87-17,2-26,1.72,21.5-11.19,42.27-23.19,60.24-39.52,65.31-59.33,90.8-134.25,86.1-220.73-2.19-40.22-10.24-79.26-26.88-116.26C623.73,328,603.16,303.54,579.29,281.58Z"/><path class="cls-4" d="M461.22,111.94a14.36,14.36,0,0,1,2.15,1.7c14,15.9,14.05,16-1.2,29.94-13.81,12.63-18.36,29.34-20.55,46.87-1.52,12.27-1.88,24.7-2.63,37.08-.29,4.91,1,11.27-7,9.91-7.44-1.25-18.1,5.75-20.94-8.46-5-25-1.81-49.34,5-73.46,1.46-5.19,3.69-10.16,5.56-15.24,5.12-5.78,7.81-13,11.91-19.44C441.25,108.69,448.94,106.38,461.22,111.94Z"/><path class="cls-2" d="M413.41,740.77c-.14-2.27.1-6.4-.48-6.52-10.95-2.26-10.12-9.37-11-18.62-1.05-11.15,2.14-15.48,11.95-16.57a83.76,83.76,0,0,1,16.53,0c8.14.72,14.38-.94,17.26-9.65.8-2.42,3.1-6,4.88-6.15,10.2-.57,20.44-.25,30.67-.23-.26,1.65-.53,3.31-.79,5-14.6,7.8-24.29,20.56-35.12,32.56-5.36,5.93-14.49,7.93-18,17.32-2.62,6.94-10.12,3.86-15.85,2.82Z"/><path class="cls-2" d="M413.43,740.67c7.53.2,14.66.45,15.41-10.29.26-3.75,2.72-8.55,7.48-8.78,9.83-.46,15.07-6.54,17.76-14.58,4.68-14,17.93-14.21,28.36-19-8.4,19.77-22.26,35.47-38.4,49C435.26,744.33,424.37,745.46,413.43,740.67Z"/><path class="cls-4" d="M461.22,111.94c-14.72-3.32-22.91,4.34-29.44,16.36-2.4,4.41-4.22,10.27-10.24,12,3.66-11.56,9.44-22,18.27-30.29C447.32,102.91,455,101.3,461.22,111.94Z"/><path class="cls-5" d="M482.88,513.69c-5.6,22.31-4.16,45.44-8.2,68a710.76,710.76,0,0,1-19.94,84.07c-2.9,9.41-9.5,17-16.63,23.24-9.42,8.27-23.57,5.51-31.46-4.48-19-24.07-21.74-53.85-28.59-82-11.83-48.71-9.43-98.5-8.25-148,.95-39.76,8-78.71,20.4-116.85,4.81-14.83,9.81-28.26,21.34-39,10.36-9.66,23.71-8.48,31.83,3.56,2.82,4.18,5.9,8.38,7.68,13,3.81,9.93,9.9,16.82,20.74,18.71-6.95,5.46-8.38,12-6,20.67,11.36,41.73,19,84,15.48,127.57C480.41,492.7,481.56,503.23,482.88,513.69Z"/><path class="cls-2" d="M512.55,582c-3,5.46-4.59,11.22-2.22,17.38.59,1.54.55,4.4-.45,5.33-13,12.19-9,30.31-15.65,44.82-4.06,8.85-11.15,14.33-17.19,20.91-2.31,2.52-8.26,1.86-11.31-1.73-2.91-3.44-6.05-7.4-3.94-12.42,3-7.23,9.15-.16,13.91-2.9-6.52-18.89-4.2-35.74,8.17-52.88,6.07-8.41,2.37-22.24,4-33.61,1.53-10.61,2.39-22-1.49-32.79-1.32-3.66-1.36-8.21,1.52-10.44,17.7-13.69,15.55-36.29,24.6-53.81,1.13-2.19,1.08-5.64.29-8.09-6.09-19-5.51-37.66,2.24-56.32.66.41,2.63,1.11,2.59,1.67-1,12.81-4.88,26.28,13.54,31.54,3.34,1,3.05,10.34.44,14.11-6.92,10-4,19.74-2.58,30.23,1.28,9.26,5,21.19-11.33,22.79-5.44.53-3.74,4.56-1.11,6.81,6.53,5.62,5.46,9.54,2.4,18-3.83,10.64-.94,22.82-18,22.72-2.06,0-5.6,7.09-3,12.15,1.22,2.35,4.47,4.51,2.73,7.24-2.25,3.52-6.06,6.83-2.57,10.86C503,589.17,506.51,579.49,512.55,582Z"/><path class="cls-4" d="M482.88,513.69c-7.72-3.77-5.77-11-5.43-17,2.35-42.67-.73-84.83-11.14-126.36-1.78-7.1-3.52-14.23-5.81-21.17-3.52-10.71-.38-16,11.3-15.18,16.53,24.48,22.42,52.53,27.8,80.92,5.61,29.59,1.19,58.23-5.53,86.94C492.52,508.46,489.83,512.75,482.88,513.69Z"/><path class="cls-2" d="M505.12,356.3c3.37.25,5.91,2.07,3.44,5.13-4.93,6.1-3.31,10.66,1.77,15.36,2.5,2.32,3.62,5.31,1.7,8.65-1.22,2.11-3.1,3.49-5.59,3.24-4.5-.43-3.52-4.44-4.62-7.23-2.43-6.15-2.56-12.46-2.3-18.88C499.66,358.86,501,356.41,505.12,356.3Z"/></svg>