<?xml version="1.0" encoding="utf-8"?>
<!-- Generator: Adobe Illustrator 25.0.0, SVG Export Plug-In . SVG Version: 6.00 Build 0)  -->
<svg version="1.1" id="Ebene_1" xmlns="http://www.w3.org/2000/svg" xmlns:xlink="http://www.w3.org/1999/xlink" x="0px" y="0px"
	 viewBox="0 0 379 383.9" style="enable-background:new 0 0 379 383.9;" xml:space="preserve">
<style type="text/css">
	.st0{fill:#FFFF00;}
	.st1{fill:#FAC800;}
	.st2{fill:#FFF5F5;}
	.st3{fill:#F0F5FA;}
	.st4{fill:#E4ECF2;}
	.st5{fill:#0FF5FF;}
	.st6{fill:#C5D7E6;}
	.st7{fill:#6CEF4B;}
	.st8{fill:#FA0000;}
	.st9{fill:#3F62FF;}
	.st10{fill:#955030;}
	.st11{fill:#794B2C;}
	.st12{fill:#677A8F;}
</style>
<g>
	<rect x="11.5" y="72.4" class="st0" width="289.7" height="80.6"/>
	<rect x="268.9" y="72.4" class="st1" width="32.3" height="80.6"/>
	<rect x="177.6" y="72.4" class="st2" width="91.7" height="80.6"/>
	<path class="st3" d="M361.2,378.2H73.7c-23.5,0-42.6-19.1-42.6-42.6S50.2,293,73.7,293h287.5V378.2z"/>
	<rect x="331.1" y="293.1" class="st4" width="30.1" height="85.1"/>
	<path class="st5" d="M376.2,383.9H73.7c-26.6,0-48.2-21.6-48.2-48.2s21.6-48.2,48.2-48.2h302.5c3.1,0,5.6,2.5,5.6,5.6
		s-2.5,5.6-5.6,5.6H73.7c-20.4,0-36.9,16.6-36.9,36.9c0,20.4,16.6,36.9,36.9,36.9h302.5c3.1,0,5.6,2.5,5.6,5.6
		C381.8,381.4,379.3,383.9,376.2,383.9L376.2,383.9z"/>
	<path class="st6" d="M361.2,327.1H129.1c-3.1,0-5.6-2.5-5.6-5.6s2.5-5.6,5.6-5.6h232.1V327.1z"/>
	<path class="st6" d="M361.2,355.5H190.7c-3.1,0-5.6-2.5-5.6-5.6s2.5-5.6,5.6-5.6h170.4L361.2,355.5L361.2,355.5z"/>
	<path class="st3" d="M313,281.9H33.3c-15.2,0-27.5-12.3-27.5-27.6c0-15.2,12.3-27.6,27.5-27.6H313V281.9z"/>
	<rect x="283" y="226.8" class="st4" width="30" height="55.1"/>
	<path class="st7" d="M330.2,287.5h-297C14.9,287.5,0,272.6,0,254.3c0-18.3,14.9-33.2,33.2-33.2h297c3.1,0,5.6,2.5,5.6,5.6
		s-2.5,5.6-5.6,5.6h-297c-12.1,0-21.9,9.8-21.9,21.9s9.8,21.9,21.9,21.9h297c3.1,0,5.6,2.5,5.6,5.6
		C335.9,285,333.3,287.5,330.2,287.5L330.2,287.5z"/>
	<path class="st6" d="M313,261.1h-79.1c-3.1,0-5.6-2.5-5.6-5.6s2.5-5.6,5.6-5.6H313V261.1z"/>
	<path class="st3" d="M98.9,5.5h224.5c16.9,0,30.6,13.7,30.6,30.6s-13.7,30.6-30.6,30.6H98.9V5.5z"/>
	<path class="st4" d="M323.4,5.5h-30.1c16.9,0,30.6,13.7,30.6,30.6s-13.7,30.6-30.6,30.6h30.1c16.9,0,30.6-13.7,30.6-30.6
		C354,19.2,340.3,5.5,323.4,5.5L323.4,5.5z"/>
	<path class="st8" d="M323.4,72.4H79.8c-3.1,0-5.6-2.5-5.6-5.6s2.5-5.6,5.6-5.6h243.7c13.8,0,25-11.2,25-25s-11.2-25-25-25H79.8
		c-3.1,0-5.6-2.5-5.6-5.6S76.7,0,79.8,0h243.7c20,0,36.2,16.3,36.2,36.2C359.7,56.1,343.4,72.4,323.4,72.4L323.4,72.4z"/>
	<rect x="44.1" y="153" class="st9" width="335" height="68.2"/>
	<rect x="276.8" y="153" class="st10" width="102.3" height="68.2"/>
	<rect x="349" y="153" class="st11" width="30" height="68.2"/>
	<path class="st2" d="M159.4,198.3H82.8c-6.2,0-11.3-5-11.3-11.3s5-11.3,11.3-11.3h76.6c6.2,0,11.3,5,11.3,11.3
		S165.6,198.3,159.4,198.3L159.4,198.3z"/>
	<path class="st2" d="M346.5,192.7h-36.7c-3.1,0-5.6-2.5-5.6-5.6s2.5-5.6,5.6-5.6h36.7c3.1,0,5.6,2.5,5.6,5.6
		C352.2,190.2,349.6,192.7,346.5,192.7L346.5,192.7z"/>
	<path class="st12" d="M244,125.3c-3.1,0-5.6-2.5-5.6-5.6v-14c0-3.1,2.5-5.6,5.6-5.6s5.6,2.5,5.6,5.6v14
		C249.6,122.8,247.1,125.3,244,125.3L244,125.3z"/>
	<path class="st12" d="M223.5,125.3c-3.1,0-5.6-2.5-5.6-5.6v-14c0-3.1,2.5-5.6,5.6-5.6s5.6,2.5,5.6,5.6v14
		C229.1,122.8,226.6,125.3,223.5,125.3L223.5,125.3z"/>
	<path class="st12" d="M202.9,125.3c-3.1,0-5.6-2.5-5.6-5.6v-14c0-3.1,2.5-5.6,5.6-5.6s5.6,2.5,5.6,5.6v14
		C208.6,122.8,206,125.3,202.9,125.3L202.9,125.3z"/>
	<path class="st6" d="M98.8,30.5h128.6c3.1,0,5.6,2.5,5.6,5.6s-2.5,5.6-5.6,5.6H98.8V30.5z"/>
</g>
</svg>
