<?xml version="1.0" encoding="utf-8"?>
<!-- Generator: Adobe Illustrator 25.0.0, SVG Export Plug-In . SVG Version: 6.00 Build 0)  -->
<svg version="1.1" id="Ebene_1" xmlns="http://www.w3.org/2000/svg" xmlns:xlink="http://www.w3.org/1999/xlink" x="0px" y="0px"
	 viewBox="0 0 256 332.9" style="enable-background:new 0 0 256 332.9;" xml:space="preserve">
<style type="text/css">
	.st0{fill:#0FF5FF;}
	.st1{fill:#0722BA;}
	.st2{fill:#072269;}
	.st3{fill:#03BCFF;}
	.st4{fill:#3F62FF;}
</style>
<g>
	<path class="st0" d="M256,320.1c0,7.1-5.7,12.8-12.8,12.8H12.8c-7.1,0-12.8-5.7-12.8-12.8V12.9C0,5.8,5.7,0.1,12.8,0.1h170.5
		l8.7,1.5l7.5-1.5c3.4,0,6.6,1.3,9.1,3.8l43.7,43.7c2.4,2.4,3.7,5.7,3.7,9.1V320.1L256,320.1z"/>
	<path class="st1" d="M160.3,76.9H95.9c-3.4,0-6.2-2.8-6.2-6.2V57.5c0-3.4,2.8-6.2,6.2-6.2h64.4c3.4,0,6.2,2.8,6.2,6.2v13.2
		C166.4,74.1,163.7,76.9,160.3,76.9L160.3,76.9z"/>
	<path class="st2" d="M217.6,108.1H38.4c-3.1,0-5.6-2.5-5.6-5.6s2.5-5.6,5.6-5.6h179.2c3.1,0,5.6,2.5,5.6,5.6
		S220.7,108.1,217.6,108.1L217.6,108.1z"/>
	<path class="st2" d="M217.6,133.7H38.4c-3.1,0-5.6-2.5-5.6-5.6s2.5-5.6,5.6-5.6h179.2c3.1,0,5.6,2.5,5.6,5.6
		S220.7,133.7,217.6,133.7L217.6,133.7z"/>
	<path class="st2" d="M217.6,159.3H38.4c-3.1,0-5.6-2.5-5.6-5.6s2.5-5.6,5.6-5.6h179.2c3.1,0,5.6,2.5,5.6,5.6
		S220.7,159.3,217.6,159.3L217.6,159.3z"/>
	<path class="st2" d="M179.2,184.9H76.8c-3.1,0-5.6-2.5-5.6-5.6s2.5-5.6,5.6-5.6h102.4c3.1,0,5.6,2.5,5.6,5.6
		S182.3,184.9,179.2,184.9L179.2,184.9z"/>
	<path class="st2" d="M179.2,312.9c-31.3,0-56.8-25.5-56.8-56.8s25.5-56.8,56.8-56.8s56.8,25.5,56.8,56.8S210.6,312.9,179.2,312.9
		L179.2,312.9z M179.2,210.5c-25.1,0-45.6,20.5-45.6,45.6s20.5,45.6,45.6,45.6s45.6-20.5,45.6-45.6
		C224.8,230.9,204.4,210.5,179.2,210.5L179.2,210.5z"/>
	<path class="st3" d="M252.3,47.5L208.6,3.8c-2.4-2.4-5.7-3.8-9.1-3.8h-17.8c3.4,0,6.7,1.3,9.1,3.8l43.7,43.7
		c2.4,2.4,3.7,5.7,3.7,9.1v263.5c0,7.1-5.7,12.8-12.8,12.8h17.8c7.1,0,12.8-5.7,12.8-12.8V56.6C256,53.2,254.7,49.9,252.3,47.5
		L252.3,47.5z"/>
	<path class="st4" d="M252.3,47.5L208.6,3.8c-1.1-1.1-2.4-2-3.8-2.6v37.3c0,7.1,5.7,12.8,12.8,12.8h37.2
		C254.2,49.9,253.4,48.6,252.3,47.5L252.3,47.5z"/>
	<path class="st1" d="M207,2.5c-0.1-0.1-0.1-0.1-0.2-0.2c-0.3-0.2-0.6-0.4-0.9-0.6l0,0c-0.3-0.2-0.7-0.4-1-0.5l0,0v16.6l29.7,29.7
		c1.1,1.1,2,2.4,2.6,3.8H255c-0.2-0.3-0.3-0.7-0.5-1l0,0c-0.2-0.3-0.4-0.6-0.6-0.9c-0.1-0.1-0.1-0.1-0.2-0.2
		c-0.2-0.2-0.3-0.5-0.5-0.7c-0.3-0.3-0.5-0.6-0.8-0.9L208.6,3.8c-0.3-0.3-0.6-0.5-0.9-0.8C207.5,2.9,207.2,2.7,207,2.5L207,2.5z"/>
	<g>
		<path class="st2" d="M169.2,252.9c1.8-2.1,3.7-3.7,5.8-4.7s4.4-1.5,7-1.5c2.5,0,4.8,0.5,6.9,1.4s3.9,2.2,5.5,3.9
			c1.6,1.7,2.8,3.7,3.7,6s1.3,4.7,1.3,7.3c0,3.7-0.8,7-2.5,10s-4,5.3-7,7s-6.4,2.5-10.2,2.5c-4.4,0-8.2-1.1-11.3-3.2
			c-3.2-2.1-5.6-5.3-7.3-9.5s-2.5-9.3-2.5-15.3c0-4.9,0.5-9.3,1.5-13.2c1-3.9,2.5-7.1,4.4-9.6c1.9-2.6,4.2-4.5,6.9-5.8s5.8-2,9.3-2
			c3.3,0,6.3,0.7,8.8,2s4.5,2.9,5.7,4.8c1.3,1.9,1.9,3.8,1.9,5.5c0,1.1-0.4,2-1.2,2.9s-1.8,1.3-3.1,1.3c-1.1,0-2.1-0.3-3-1
			s-1.6-1.6-2.1-2.9c-0.6-1.6-1.5-2.8-2.9-3.8c-1.3-1-2.8-1.4-4.5-1.4c-1.4,0-2.8,0.4-4.1,1.2c-1.4,0.8-2.5,1.9-3.5,3.2
			C170.7,240.9,169.5,245.8,169.2,252.9z M179.7,277.2c2.6,0,4.8-1.1,6.5-3.2s2.6-5,2.6-8.5c0-2.4-0.4-4.4-1.2-6.1s-1.9-3-3.3-3.9
			s-3-1.3-4.6-1.3s-3.2,0.4-4.6,1.3c-1.5,0.9-2.7,2.1-3.6,3.7s-1.3,3.5-1.3,5.7c0,3.5,0.9,6.4,2.7,8.8
			C174.7,276,177,277.2,179.7,277.2z"/>
	</g>
</g>
</svg>
