<?xml version="1.0" encoding="utf-8"?>
<!-- Generator: Adobe Illustrator 25.0.0, SVG Export Plug-In . SVG Version: 6.00 Build 0)  -->
<svg version="1.1" id="Ebene_1" xmlns="http://www.w3.org/2000/svg" xmlns:xlink="http://www.w3.org/1999/xlink" x="0px" y="0px"
	 viewBox="0 0 256 332.9" style="enable-background:new 0 0 256 332.9;" xml:space="preserve">
<style type="text/css">
	.st0{fill:#FA0000;}
	.st1{fill:#940600;}
	.st2{fill:#4E0100;}
	.st3{fill:#6C0400;}
</style>
<g>
	<path class="st0" d="M256,320.1c0,7.1-5.7,12.8-12.8,12.8H12.8c-7.1,0-12.8-5.7-12.8-12.8V12.9C0,5.8,5.7,0.1,12.8,0.1h170.5
		l8.7,1.5l7.5-1.5c3.4,0,6.6,1.3,9.1,3.8l43.7,43.7c2.4,2.4,3.7,5.7,3.7,9.1L256,320.1L256,320.1z"/>
	<path class="st1" d="M160.2,76.9H95.8c-3.4,0-6.2-2.8-6.2-6.2V57.5c0-3.4,2.8-6.2,6.2-6.2h64.4c3.4,0,6.2,2.8,6.2,6.2v13.2
		C166.4,74.1,163.6,76.9,160.2,76.9L160.2,76.9z"/>
	<path class="st2" d="M217.6,108.1H38.4c-3.1,0-5.6-2.5-5.6-5.6s2.5-5.6,5.6-5.6h179.2c3.1,0,5.6,2.5,5.6,5.6
		S220.7,108.1,217.6,108.1L217.6,108.1z"/>
	<path class="st2" d="M217.6,133.7H38.4c-3.1,0-5.6-2.5-5.6-5.6s2.5-5.6,5.6-5.6h179.2c3.1,0,5.6,2.5,5.6,5.6
		S220.7,133.7,217.6,133.7L217.6,133.7z"/>
	<path class="st2" d="M217.6,159.3H38.4c-3.1,0-5.6-2.5-5.6-5.6s2.5-5.6,5.6-5.6h179.2c3.1,0,5.6,2.5,5.6,5.6
		S220.7,159.3,217.6,159.3L217.6,159.3z"/>
	<path class="st2" d="M179.2,184.9H76.8c-3.1,0-5.6-2.5-5.6-5.6s2.5-5.6,5.6-5.6h102.4c3.1,0,5.6,2.5,5.6,5.6
		S182.3,184.9,179.2,184.9L179.2,184.9z"/>
	<path class="st2" d="M179.2,312.9c-31.3,0-56.8-25.5-56.8-56.8s25.5-56.8,56.8-56.8s56.8,25.5,56.8,56.8S210.5,312.9,179.2,312.9
		L179.2,312.9z M179.2,210.5c-25.1,0-45.6,20.5-45.6,45.6c0,25.1,20.5,45.6,45.6,45.6s45.6-20.5,45.6-45.6
		C224.8,231,204.3,210.5,179.2,210.5L179.2,210.5z"/>
	<path class="st1" d="M252.2,47.5L208.5,3.8c-2.4-2.4-5.7-3.8-9.1-3.8h-17.7c3.4,0,6.7,1.3,9.1,3.8l43.7,43.7
		c2.4,2.4,3.7,5.7,3.7,9.1v263.5c0,7.1-5.7,12.8-12.8,12.8h17.8c7.1,0,12.8-5.7,12.8-12.8V56.6C256,53.2,254.6,49.9,252.2,47.5
		L252.2,47.5z"/>
	<path class="st1" d="M252.2,47.5L208.5,3.8c-1.1-1.1-2.4-2-3.8-2.6v37.2c0,7.1,5.7,12.8,12.8,12.8h37.2
		C254.2,49.9,253.3,48.6,252.2,47.5L252.2,47.5z"/>
	<path class="st3" d="M207,2.5c-0.1-0.1-0.1-0.1-0.2-0.2c-0.3-0.2-0.6-0.4-0.9-0.6l0,0c-0.3-0.2-0.7-0.4-1-0.5l0,0v16.6l29.7,29.7
		c1.1,1.1,2,2.4,2.6,3.8H255c-0.2-0.3-0.3-0.7-0.5-1l0,0c-0.2-0.3-0.4-0.6-0.6-0.9c-0.1-0.1-0.1-0.1-0.2-0.2
		c-0.2-0.2-0.3-0.5-0.5-0.7c-0.3-0.3-0.5-0.6-0.8-0.9L208.7,3.9c-0.3-0.3-0.6-0.5-0.9-0.8C207.4,2.9,207.2,2.7,207,2.5L207,2.5z"/>
	<g>
		<path class="st2" d="M173,273.8h20.4c2,0,3.6,0.4,4.6,1.2c1.1,0.8,1.6,2,1.6,3.4c0,1.3-0.4,2.4-1.3,3.2c-0.8,0.9-2.1,1.3-3.8,1.3
			h-28.8c-2,0-3.5-0.5-4.6-1.6c-1.1-1.1-1.6-2.3-1.6-3.8c0-0.9,0.4-2.2,1.1-3.7s1.5-2.8,2.3-3.7c3.5-3.6,6.6-6.7,9.4-9.2
			c2.8-2.6,4.8-4.3,6-5.1c2.1-1.5,3.9-3,5.3-4.6c1.4-1.5,2.5-3.1,3.2-4.7s1.1-3.2,1.1-4.7c0-1.7-0.4-3.2-1.2-4.5s-1.9-2.3-3.2-3.1
			c-1.4-0.7-2.9-1.1-4.5-1.1c-3.4,0-6.1,1.5-8,4.5c-0.3,0.4-0.7,1.5-1.3,3.2s-1.3,3.1-2.1,4s-1.9,1.4-3.4,1.4
			c-1.3,0-2.4-0.4-3.2-1.3s-1.3-2-1.3-3.5c0-1.8,0.4-3.7,1.2-5.6c0.8-2,2-3.7,3.6-5.3c1.6-1.6,3.6-2.9,6.1-3.8s5.3-1.5,8.7-1.5
			c4,0,7.4,0.6,10.2,1.9c1.8,0.8,3.4,2,4.8,3.4c1.4,1.5,2.5,3.1,3.2,5.1c0.8,1.9,1.2,3.9,1.2,6c0,3.2-0.8,6.2-2.4,8.8
			c-1.6,2.6-3.2,4.7-4.9,6.2c-1.7,1.5-4.5,3.8-8.4,7.1c-3.9,3.2-6.6,5.7-8.1,7.5C174.2,271.9,173.6,272.8,173,273.8z"/>
	</g>
</g>
</svg>
