<?xml version="1.0" encoding="utf-8"?>
<!-- Generator: Adobe Illustrator 25.0.0, SVG Export Plug-In . SVG Version: 6.00 Build 0)  -->
<svg version="1.1" id="Ebene_1" xmlns="http://www.w3.org/2000/svg" xmlns:xlink="http://www.w3.org/1999/xlink" x="0px" y="0px"
	 viewBox="0 0 512 512" style="enable-background:new 0 0 512 512;" xml:space="preserve">
<style type="text/css">
	.st0{fill:#3A312A;}
	.st1{fill:#493E34;}
	.st2{fill:#332B25;}
	.st3{fill:#CBCBCB;}
	.st4{fill:#E4E4E2;}
	.st5{fill:#8F563B;}
</style>
<path class="st0" d="M159,420c-28.5-24.3-44.6-54.9-44.6-85.2c0-24.6,7.9-48.6,22.8-69.2c4.1-5.6,5.8-12.3,5-18.8v-0.4
	c-2.7-17.8-19-31.9-39-33.4c-1.2-0.1-2.5-0.1-3.7-0.1c-15.5,0-29.5,7.2-37.2,19.3c-0.9,1.4-2.6,2.3-4.5,2.3h-0.1
	c-1.9,0-3.7-1-4.5-2.4c-9-15.1-13.8-32.3-13.8-49.5c0-29.4,13.2-56.7,37.2-77c22.1-18.7,51.1-28.9,81.7-28.9h1.3
	c30.7,0.3,59.7,11.1,81.8,30.4c22,19.2,34.6,44.9,35.6,72.1c0.1,3,0.1,6.1-0.1,9.2c0,0.1,0,0.1,0,0.2c-0.5,8-2,15.9-4.5,23.6v0.1
	c-26.1,71-22.7,133.6-15.3,173.5c8.1,43.6,22.9,71.2,23,71.5c0.6,1.4,0.4,3.1-0.5,4.3c-0.8,1-2,1.7-3.2,1.9
	c-0.3,0.1-0.7,0.1-1.1,0.1h-0.1c-1.6,0-3.1-0.1-4.7-0.1c-11-0.4-22.1-1.9-33.1-4.4c-0.6-1.1-1.1-2.2-1.6-3.4l-0.2-0.4
	c-0.1-0.3-0.2-0.5-0.4-0.8s-0.3-0.7-0.5-1c-0.1-0.2-0.2-0.4-0.4-0.6c-0.6-1-1.3-1.9-2.1-2.7c-0.1-0.1-0.2-0.1-0.3-0.2l0,0
	c-0.3-0.2-0.6-0.3-0.9-0.5l-70.8-28.9c-0.1,0-0.1-0.1-0.2-0.1c-0.1,0-0.2-0.1-0.3-0.1L159,420z"/>
<path class="st1" d="M372.8,247.4l51.8,8l24-32l24,8v16l-8,32h-24l-33.7,12.1c-20,7.1-42,6-61.2-3.1l-15.9-7.6l-1.1-1.3L372.8,247.4
	z"/>
<path class="st1" d="M160.2,420.7l3.5,1.4l67.7,27.6c0,0,0.1,0,0.2,0.1c0.1,0.1,0.2,0.2,0.3,0.3l0,0c1,0.8,1.7,1.8,2.4,2.9
	c0.1,0.2,0.2,0.4,0.3,0.6s0.2,0.4,0.3,0.6s0.2,0.4,0.3,0.6s0.2,0.4,0.3,0.6l0.2,0.4c0.1,0.3,0.3,0.6,0.4,0.9
	c0.4,0.8,0.7,1.7,1.1,2.4c1.3,2.5,3,4.5,6.2,4.5h27h5.9h96c0.3,0,0.5-0.1,0.7-0.3l19-23c0.3-0.3,0.2-0.9-0.1-1.2l-22.8-22.8
	c-0.4-0.4-0.9-0.4-1.3,0l-15.1,15.1c-0.1,0.2-0.4,0.3-0.6,0.3H314c-0.7,0-1.1-0.7-0.8-1.3l67.9-134.6v-0.1l15.6-39.9
	c0.1-0.1,0.1-0.1,0.1-0.2l3.7-23.3c0-0.3,0.3-0.6,0.7-0.7l27.1-4.5c13.1-2.2,25.3-8.5,34.7-17.9l9-9c0.3-0.2,0.4-0.7,0.2-1l-3.9-7.6
	l-7.1-14.2c-8.4-16.8-21.4-30.9-37.6-40.6l-14.8-8.9c-0.2-0.2-0.4-0.5-0.4-0.8c0-20.7-6.2-40.9-17.7-58.1l-13.3-20
	c-0.4-0.6-1.3-0.6-1.6,0.1l-9.7,22.7l-6.6,15.4l-7,16.3c0,0.1-0.1,0.1-0.1,0.2l-8.6,11.4c-10,13.3-15.4,29.5-15.4,46.1v13.7
	c0,0.4-0.3,0.8-0.7,0.9l-50.8,12.7l-0.3,0.1l-20.9,5.2c-15.4,3.9-29.9,10.8-42.6,20.3c-28.3,21.3-45.7,54-47.5,89.4l-6.2,116.3
	l0.6,0.9L160.2,420.7z"/>
<g>
	<circle class="st2" cx="416.6" cy="175.4" r="13.5"/>
	<path class="st2" d="M472.6,199.5l-8,8h-11.8c-4.4,0-8-3.6-8-8s3.6-8,8-8h15.8L472.6,199.5z"/>
</g>
<path class="st3" d="M329.8,280.8c16.7,4.3,33.8,6.5,51.1,6.5c18.9,0,41.5-2.6,59.8-7.8l-6.4,6.4L421.2,299
	c-8.3,8.3-18.1,14.7-28.9,19.1l-23.6,9.4h-27.8l-12.2-47L329.8,280.8z"/>
<path class="st4" d="M335.4,326.5c0.8,5.9,1.3,11.9,1.3,17.9c0,15.2-2.7,30.3-8.1,44.5l-15.9,42.5l41.9-41.9
	c9-9,14.1-21.2,14.1-33.9v-28.1l-40-47L335.4,326.5z"/>
<polygon class="st5" points="159.4,419.7 159.3,420.2 159.8,420.4 160,420.6 "/>
</svg>
