<?xml version="1.0" encoding="utf-8"?>
<!-- Generator: Adobe Illustrator 25.0.1, SVG Export Plug-In . SVG Version: 6.00 Build 0)  -->
<svg version="1.1" id="Capa_1" xmlns="http://www.w3.org/2000/svg" xmlns:xlink="http://www.w3.org/1999/xlink" x="0px" y="0px"
	 viewBox="0 0 14.2 14.2" style="enable-background:new 0 0 14.2 14.2;" xml:space="preserve">
<style type="text/css">
	.st0{fill:#FFFFFF;}
</style>
<g>
	<path class="st0" d="M12.1,1.9c-0.8-0.8-1.7-1.4-2.7-1.7v2.1c0.5,0.2,0.9,0.5,1.3,1c2,2,2,5.2,0,7.2c-2,2-5.2,2-7.2,0
		c-2-2-2-5.2,0-7.2c0,0,0,0,0,0h0l1.2,1.2l0-3.7l-3.7,0l1.2,1.2c0,0,0,0,0,0c-2.8,2.8-2.8,7.2,0,10c2.8,2.8,7.2,2.8,10,0
		C14.8,9.1,14.8,4.6,12.1,1.9z"/>
</g>
</svg>
