<?xml version="1.0" encoding="utf-8"?>
<!-- Generator: Adobe Illustrator 25.0.1, SVG Export Plug-In . SVG Version: 6.00 Build 0)  -->
<svg version="1.1" id="Capa_1" xmlns="http://www.w3.org/2000/svg" xmlns:xlink="http://www.w3.org/1999/xlink" x="0px" y="0px"
	 viewBox="0 0 512 512" style="enable-background:new 0 0 512 512;" xml:space="preserve">
<style type="text/css">
	.st0{fill:#FFFFFF;}
	.st1{fill:none;stroke:#FFFFFF;stroke-width:5;stroke-linecap:round;stroke-miterlimit:10;}
	.st2{fill:none;stroke:#000000;stroke-width:15;stroke-miterlimit:10;}
</style>
<path class="st0" d="M494,18.5C479.7,4.2,460.1-2,440.2,1.3l-22.5,3.8c-0.1,0-0.2,0-0.3,0c-72.2,12.3-137.8,45.8-190,97.2L89.7,115
	c-13.1,1.2-25.4,7-34.7,16.3c-22,22-22,57.7,0,79.6l33,32.9c-1.4,3-2.2,6.2-2.2,9.6c0,6,2.3,11.6,6.6,15.8l25.1,25.1
	c-11.1-0.1-22.2,1.7-32.9,5.3c-3.9,1.3-6.1,5.6-4.7,9.5c1.1,3.1,4,5.1,7.1,5.1c0.8,0,1.6-0.1,2.4-0.4c11.1-3.8,22.8-5.2,34.4-4.2
	c-4.7,2.6-9,5.8-12.8,9.7l-23.3,23.3c-2.2,2.2-2.8,5.5-1.6,8.3c1.2,2.8,4.1,4.6,7.2,4.5l25.8-0.9l-14.2,42.8
	c-0.9,2.7-0.2,5.7,1.8,7.7c2,2,5,2.7,7.7,1.8l42.8-14.2l-0.9,25.8c-0.1,3.1,1.7,5.9,4.5,7.2c1,0.4,2,0.6,3,0.6c2,0,3.9-0.8,5.3-2.2
	l23.3-23.3c3.9-3.9,7.1-8.2,9.7-12.8c0.2,2.3,0.3,4.7,0.3,7c0,22.8-8.9,44.3-25,60.5l-30,29.9l1.7-49c0.1-2.5-1-4.8-3-6.3
	c-2-1.5-4.5-1.9-6.9-1.1l-84.4,28.1l28.1-84.4c0.8-2.3,0.4-4.9-1.1-6.9c-1.5-2-3.8-3.1-6.3-3l-49,1.7l30-30c2.8-2.8,5.8-5.5,9-7.8
	c3.3-2.5,4-7.2,1.5-10.5c-2.5-3.3-7.2-4-10.5-1.5c-3.7,2.8-7.2,5.9-10.6,9.2L2.2,367.2c-2.2,2.2-2.8,5.5-1.6,8.3
	c1.2,2.8,4.1,4.6,7.2,4.5l57.3-2l-29.5,88.4c-0.9,2.7-0.2,5.7,1.8,7.7c2,2,5,2.7,7.7,1.8l88.4-29.5l-2,57.3
	c-0.1,3.1,1.7,5.9,4.5,7.1c1,0.4,2,0.6,3,0.6c2,0,3.9-0.8,5.3-2.2l43.5-43.4c19-19,29.4-44.2,29.4-71.1c0-0.2,0-0.4,0-0.7l26,26
	c4.2,4.2,9.9,6.6,15.8,6.6c3.4,0,6.6-0.8,9.6-2.2l32.9,33c10.6,10.6,24.8,16.5,39.8,16.5c15,0,29.2-5.9,39.8-16.5
	c9.3-9.3,15.1-21.6,16.3-34.7L410.1,285c25.1-25.5,46.1-54.5,62.6-86.3c11.3-22,20.4-45.1,26.9-68.9c1.1-4-1.3-8.2-5.3-9.3
	c-4-1.1-8.2,1.3-9.3,5.3c-6,21.7-14.2,42.9-24.4,63.1L323.4,51.7c30.1-15.2,62.4-25.9,96.3-31.6c0.1,0,0.2,0,0.3,0l22.8-3.9
	c15-2.5,29.8,2.2,40.6,13c10.8,10.8,15.5,25.6,12.9,40.6l-3.9,22.8c-0.3,1.5-0.5,3.1-0.8,4.6c-0.8,4.1,1.9,8,6,8.8
	c4.1,0.8,8-1.9,8.8-6c0.3-1.6,0.6-3.2,0.9-4.8l3.9-22.8C514.5,52.3,508.2,32.8,494,18.5z M65.6,200.2c-16.1-16.1-16.1-42.3,0-58.3
	c6.8-6.8,15.8-11,25.4-11.9L210.8,119L97.6,232.2L65.6,200.2z M181.6,390l-9.9,9.9l0.6-17.5c0.1-2.5-1-4.8-3-6.3
	c-2-1.5-4.5-1.9-6.9-1.1l-38.8,12.9l12.9-38.8c0.8-2.3,0.4-4.9-1.1-6.9c-1.5-2-3.9-3.1-6.3-3l-17.5,0.6l9.9-9.8
	c5.6-5.6,12.6-9.5,20.2-11.3l51.2,51.2C191.1,377.5,187.2,384.4,181.6,390z M382.5,421.4c-0.9,9.6-5.1,18.6-11.9,25.4
	c-7.8,7.8-18.2,12.1-29.2,12.1c-11,0-21.4-4.3-29.2-12.1l-32-32l113.2-113.2L382.5,421.4z M453.3,202.8
	c-15.2,26.9-33.9,51.6-55.8,73.4L264.3,409.5c-2.9,2.9-7.5,2.9-10.4,0l-151-151c-2.9-2.9-2.9-7.5,0-10.4L236.2,115
	c22.1-22.1,46.7-40.8,73.4-55.8L453.3,202.8z"/>
<path class="st0" d="M245.2,267.2c15.1,15.1,35.1,23.4,56.4,23.4c21.3,0,41.3-8.3,56.4-23.4c15.1-15.1,23.4-35.1,23.4-56.4
	s-8.3-41.3-23.4-56.4c-15.1-15.1-35.1-23.4-56.4-23.4c-21.3,0-41.3,8.3-56.4,23.4c-15.1,15.1-23.4,35.1-23.4,56.4
	S230.1,252.2,245.2,267.2L245.2,267.2z M255.8,165.1c12.2-12.2,28.5-19,45.8-19s33.5,6.7,45.8,19s19,28.5,19,45.8s-6.7,33.5-19,45.8
	c-12.2,12.2-28.5,19-45.8,19s-33.5-6.7-45.8-19c-12.2-12.2-19-28.5-19-45.8S243.6,177.3,255.8,165.1z"/>
<g>
	<g>
		<path class="st0" d="M262.3,215.7v-44h10.6c4.1,0,7.1,0.8,8.9,2.5c1.8,1.7,2.8,4.4,2.9,8.2c0,1,0.1,1.9,0.1,2.7c0,0.8,0,1.5,0,2.3
			c0,0.8,0,1.7-0.1,2.7c-0.1,2.4-0.5,4.3-1.2,5.9c-0.7,1.5-1.8,2.7-3.4,3.5l5.2,16.2h-8.7l-4.2-14.9h-1.9v14.9H262.3z M270.6,193.6
			h2.4c2.3,0,3.5-1,3.6-3c0.2-2.9,0.2-5.7,0-8.6c-0.1-2-1.3-3-3.6-3h-2.4V193.6z"/>
	</g>
</g>
<g>
	<path class="st0" d="M329.4,249.7c-2.7,0-4.8-0.4-6.4-1.1c-1.6-0.7-2.7-1.9-3.4-3.5c-0.7-1.6-1.1-3.8-1.2-6.4c0-0.9,0-1.9,0-3
		c0-1.1,0-2.1,0-3h7.8c0,0.7,0,1.5,0,2.4s0,1.9,0,2.8s0,1.7,0,2.4c0.1,1.9,1.1,2.8,3.2,2.8c1.1,0,1.9-0.2,2.3-0.7
		c0.5-0.5,0.7-1.2,0.7-2.1v-35h8.3v33.5c0,4-0.8,6.8-2.5,8.5C336.5,248.8,333.6,249.7,329.4,249.7z"/>
</g>
<line class="st1" x1="270.6" y1="251.1" x2="338.2" y2="174.3"/>
<path class="st2" d="M23.6,356.7"/>
</svg>
