<svg xmlns="http://www.w3.org/2000/svg" viewBox="0 0 1302 694.29"><defs><style>.cls-1{fill:#3caec1;}.cls-2{fill:#34c0e1;}.cls-3{fill:#b9842c;}.cls-4{fill:#b36d2d;}.cls-5{fill:#f9ae3e;}</style></defs><g id="Ebene_2" data-name="Ebene 2"><g id="Ebene_2-2" data-name="Ebene 2"><rect class="cls-1" width="1302" height="694.29"/><path class="cls-2" d="M0,334.38s301.51,74.91,689.47-20.09c0,0,150.78-36,612.52,20v359H0Z"/><path class="cls-3" d="M0,435.24s66.94,44.29,203.87,10.93c1.86-.46,3.7-1,5.52-1.56,5.24-1.63,20.41-5.33,41.2-1.59a86.8,86.8,0,0,1,28.54,10.77c14.19,8.36,49.1,23.72,90.24,3.85A142.88,142.88,0,0,1,415.88,444c22.05-2.43,52.95-2.84,86.46,5.81a106,106,0,0,1,21,7.81c12.24,6.15,41.51,16.74,66.44-6.31,0,0,35.35-39.55,130.93-2.09a59,59,0,0,1,8.27,4c9.69,5.68,41.11,20.8,75,1.61A77.7,77.7,0,0,1,833.09,445c11.56-1.34,22.69-1.7,43.64,8.3,0,0,42.84,19.29,112.89,3A171.08,171.08,0,0,0,1029,441.51c11.25-5.77,32.43-11.55,58.27,5.78,0,0,39.47,33.87,96.2,2.94,0,0,57.78-31.51,118.53-14.94v258H0Z"/><rect class="cls-4" y="500.49" width="1302" height="192.8"/><path class="cls-5" d="M0,558.16s39-27.37,104,6.63c0,0,40,21.49,71.77,9.91a42.66,42.66,0,0,0,18.84-14.09c7-8.94,29.46-27.18,88.39-2.82,0,0,64.71,37.75,111.49,5.89a55.09,55.09,0,0,0,9.28-8.25c5.55-6,25.81-19.49,84.27,6.44,0-.07,30.48,14.83,70.58,5.17A95.09,95.09,0,0,0,588,554.12c10.58-6.86,34.75-16.74,69,3.67,0,0,72,30,109,0,0,0,43-22,100-2,0,0,82.66,31.23,106.27,2.15a33.18,33.18,0,0,1,11.93-9.53c10.65-4.8,29.47-9.19,50.8,4.38,0,0,52,37,115,1,0,0,16.12-14.22,78.84-.19a50.09,50.09,0,0,1,8.38,2.66s39.28,13.77,64.78,1.9V693.29H0Z"/></g></g></svg>